{
.appVersion = "1141";
DisplayStrings = (
"adhesion\012\012adhesion"
);
customParameters = (
{
name = Axes;
value = (
{
Name = Weight;
Tag = wght;
}
);
}
);
date = "2018-12-14 21:07:04 +0000";
familyName = "League Script";
featurePrefixes = (
{
automatic = 1;
code = "languagesystem DFLT dflt;\012";
name = Languagesystems;
}
);
features = (
{
automatic = 1;
code = "sub f i by fi;\012sub f l by fl;\012";
name = liga;
}
);
fontMaster = (
{
ascender = 750;
capHeight = 700;
descender = -250;
id = master01;
userData = {
GSOffsetHorizontal = 9;
GSOffsetMakeStroke = 1;
GSOffsetPosition = 1;
GSOffsetVertical = 9;
};
weightValue = 18;
widthValue = 5;
xHeight = 500;
},
{
ascender = 800;
capHeight = 700;
descender = -200;
id = "AF956123-A183-4F86-8774-5A4F8E572774";
userData = {
GSCornerRadius = 59;
GSOffsetHorizontal = 49;
GSOffsetMakeStroke = 1;
GSOffsetPosition = 0;
GSOffsetVertical = 49;
};
weight = Bold;
weightValue = 84;
xHeight = 500;
}
);
glyphs = (
{
glyphname = A;
lastChange = "2018-12-04 21:47:02 +0000";
layers = (
{
layerId = master01;
paths = (
{
closed = 1;
nodes = (
"1426 1030 OFFCURVE",
"1372 1030 CURVE SMOOTH",
"1343 1030 OFFCURVE",
"1315 1028 OFFCURVE",
"1293 1024 CURVE SMOOTH",
"1176 1004 OFFCURVE",
"1072 944 OFFCURVE",
"972 857 CURVE SMOOTH",
"873 770 OFFCURVE",
"779 655 OFFCURVE",
"682 524 CURVE SMOOTH",
"674 513 OFFCURVE",
"666 502 OFFCURVE",
"659 491 CURVE",
"632 499 OFFCURVE",
"606 501 OFFCURVE",
"581 501 CURVE SMOOTH",
"542 501 OFFCURVE",
"502 496 OFFCURVE",
"474 472 CURVE SMOOTH",
"451 453 OFFCURVE",
"442 425 OFFCURVE",
"442 400 CURVE SMOOTH",
"442 384 OFFCURVE",
"446 368 OFFCURVE",
"457 353 CURVE",
"471 332 OFFCURVE",
"495 314 OFFCURVE",
"533 299 CURVE",
"504 253 OFFCURVE",
"476 209 OFFCURVE",
"448 168 CURVE SMOOTH",
"413 117 OFFCURVE",
"378 72 OFFCURVE",
"342 39 CURVE SMOOTH",
"278 -22 OFFCURVE",
"177 -54 OFFCURVE",
"104 -4 CURVE SMOOTH",
"74 18 OFFCURVE",
"59 52 OFFCURVE",
"50 81 CURVE",
"42 111 OFFCURVE",
"42 136 OFFCURVE",
"42 139 CURVE SMOOTH",
"42 140 OFFCURVE",
"42 140 OFFCURVE",
"42 140 CURVE",
"42 145 OFFCURVE",
"38 149 OFFCURVE",
"33 149 CURVE SMOOTH",
"28 149 OFFCURVE",
"24 145 OFFCURVE",
"24 140 CURVE",
"24 140 OFFCURVE",
"24 140 OFFCURVE",
"24 139 CURVE SMOOTH",
"24 133 OFFCURVE",
"25 88 OFFCURVE",
"45 43 CURVE SMOOTH",
"55 21 OFFCURVE",
"71 -1 OFFCURVE",
"94 -18 CURVE SMOOTH",
"177 -79 OFFCURVE",
"291 -34 OFFCURVE",
"354 26 CURVE SMOOTH",
"410 78 OFFCURVE",
"462 154 OFFCURVE",
"517 240 CURVE SMOOTH",
"528 258 OFFCURVE",
"539 275 OFFCURVE",
"550 293 CURVE",
"594 280 OFFCURVE",
"652 271 OFFCURVE",
"729 268 CURVE SMOOTH",
"773 266 OFFCURVE",
"812 268 OFFCURVE",
"852 271 CURVE",
"869 228 OFFCURVE",
"881 183 OFFCURVE",
"889 142 CURVE SMOOTH",
"898 93 OFFCURVE",
"904 46 OFFCURVE",
"904 0 CURVE",
"922 0 LINE",
"922 20 OFFCURVE",
"922 31 OFFCURVE",
"922 42 CURVE SMOOTH",
"922 130 OFFCURVE",
"930 211 OFFCURVE",
"943 287 CURVE",
"1063 315 OFFCURVE",
"1122 363 OFFCURVE",
"1122 364 CURVE",
"1126 367 OFFCURVE",
"1127 373 OFFCURVE",
"1124 377 CURVE SMOOTH",
"1120 382 OFFCURVE",
"1115 381 OFFCURVE",
"1111 378 CURVE",
"1111 378 OFFCURVE",
"1111 378 OFFCURVE",
"1111 378 CURVE",
"1109 376 OFFCURVE",
"1056 333 OFFCURVE",
"947 306 CURVE",
"988 513 OFFCURVE",
"1072 671 OFFCURVE",
"1157 784 CURVE SMOOTH",
"1216 863 OFFCURVE",
"1275 920 OFFCURVE",
"1319 957 CURVE SMOOTH",
"1341 976 OFFCURVE",
"1359 990 OFFCURVE",
"1372 999 CURVE SMOOTH",
"1375 1001 OFFCURVE",
"1389 1011 OFFCURVE",
"1392 1013 CURVE",
"1438 1010 OFFCURVE",
"1489 997 OFFCURVE",
"1534 966 CURVE",
"1538 963 OFFCURVE",
"1544 963 OFFCURVE",
"1547 967 CURVE SMOOTH",
"1550 971 OFFCURVE",
"1548 977 OFFCURVE",
"1544 980 CURVE SMOOTH",
"1488 1020 OFFCURVE"
);
},
{
closed = 1;
nodes = (
"470 445 OFFCURVE",
"486 458 CURVE SMOOTH",
"512 480 OFFCURVE",
"550 484 OFFCURVE",
"581 484 CURVE SMOOTH",
"606 484 OFFCURVE",
"628 481 OFFCURVE",
"648 476 CURVE",
"610 422 OFFCURVE",
"576 367 OFFCURVE",
"543 315 CURVE",
"504 330 OFFCURVE",
"460 356 OFFCURVE",
"460 400 CURVE SMOOTH",
"460 423 OFFCURVE"
);
},
{
closed = 1;
nodes = (
"601 297 OFFCURVE",
"560 309 CURVE",
"594 362 OFFCURVE",
"628 417 OFFCURVE",
"666 470 CURVE",
"715 454 OFFCURVE",
"753 425 OFFCURVE",
"784 388 CURVE SMOOTH",
"809 359 OFFCURVE",
"829 325 OFFCURVE",
"845 289 CURVE",
"797 285 OFFCURVE",
"764 285 OFFCURVE",
"730 286 CURVE SMOOTH",
"656 288 OFFCURVE"
);
},
{
closed = 1;
nodes = (
"895 200 OFFCURVE",
"885 231 CURVE SMOOTH",
"881 245 OFFCURVE",
"876 259 OFFCURVE",
"870 273 CURVE",
"889 276 OFFCURVE",
"907 279 OFFCURVE",
"924 282 CURVE",
"916 238 OFFCURVE",
"910 191 OFFCURVE",
"907 141 CURVE",
"902 170 OFFCURVE"
);
},
{
closed = 1;
nodes = (
"968 516 OFFCURVE",
"928 301 CURVE",
"908 297 OFFCURVE",
"886 294 OFFCURVE",
"863 291 CURVE",
"847 330 OFFCURVE",
"825 367 OFFCURVE",
"798 400 CURVE SMOOTH",
"767 437 OFFCURVE",
"727 468 OFFCURVE",
"677 486 CURVE",
"683 495 OFFCURVE",
"690 504 OFFCURVE",
"697 513 CURVE SMOOTH",
"793 644 OFFCURVE",
"887 758 OFFCURVE",
"984 843 CURVE SMOOTH",
"1082 929 OFFCURVE",
"1183 987 OFFCURVE",
"1297 1007 CURVE SMOOTH",
"1315 1010 OFFCURVE",
"1337 1012 OFFCURVE",
"1361 1013 CURVE",
"1321 985 OFFCURVE",
"1232 914 OFFCURVE",
"1143 795 CURVE SMOOTH",
"1055 678 OFFCURVE"
);
}
);
width = 1208;
},
{
layerId = "AF956123-A183-4F86-8774-5A4F8E572774";
width = 600;
}
);
unicode = 0041;
},
{
glyphname = Aacute;
lastChange = "2018-12-14 18:07:14 +0000";
layers = (
{
layerId = master01;
paths = (
{
closed = 1;
nodes = (
"1426 1030 OFFCURVE",
"1372 1030 CURVE SMOOTH",
"1343 1030 OFFCURVE",
"1315 1028 OFFCURVE",
"1293 1024 CURVE SMOOTH",
"1176 1004 OFFCURVE",
"1072 944 OFFCURVE",
"972 857 CURVE SMOOTH",
"873 770 OFFCURVE",
"779 655 OFFCURVE",
"682 524 CURVE SMOOTH",
"674 513 OFFCURVE",
"666 502 OFFCURVE",
"659 491 CURVE",
"632 499 OFFCURVE",
"606 501 OFFCURVE",
"581 501 CURVE SMOOTH",
"542 501 OFFCURVE",
"502 496 OFFCURVE",
"474 472 CURVE SMOOTH",
"451 453 OFFCURVE",
"442 425 OFFCURVE",
"442 400 CURVE SMOOTH",
"442 384 OFFCURVE",
"446 368 OFFCURVE",
"457 353 CURVE",
"471 332 OFFCURVE",
"495 314 OFFCURVE",
"533 299 CURVE",
"504 253 OFFCURVE",
"476 209 OFFCURVE",
"448 168 CURVE SMOOTH",
"413 117 OFFCURVE",
"378 72 OFFCURVE",
"342 39 CURVE SMOOTH",
"278 -22 OFFCURVE",
"177 -54 OFFCURVE",
"104 -4 CURVE SMOOTH",
"74 18 OFFCURVE",
"59 52 OFFCURVE",
"50 81 CURVE",
"42 111 OFFCURVE",
"42 136 OFFCURVE",
"42 139 CURVE SMOOTH",
"42 140 OFFCURVE",
"42 140 OFFCURVE",
"42 140 CURVE",
"42 145 OFFCURVE",
"38 149 OFFCURVE",
"33 149 CURVE SMOOTH",
"28 149 OFFCURVE",
"24 145 OFFCURVE",
"24 140 CURVE",
"24 140 OFFCURVE",
"24 140 OFFCURVE",
"24 139 CURVE SMOOTH",
"24 133 OFFCURVE",
"25 88 OFFCURVE",
"45 43 CURVE SMOOTH",
"55 21 OFFCURVE",
"71 -1 OFFCURVE",
"94 -18 CURVE SMOOTH",
"177 -79 OFFCURVE",
"291 -34 OFFCURVE",
"354 26 CURVE SMOOTH",
"410 78 OFFCURVE",
"462 154 OFFCURVE",
"517 240 CURVE SMOOTH",
"528 258 OFFCURVE",
"539 275 OFFCURVE",
"550 293 CURVE",
"594 280 OFFCURVE",
"652 271 OFFCURVE",
"729 268 CURVE SMOOTH",
"773 266 OFFCURVE",
"812 268 OFFCURVE",
"852 271 CURVE",
"869 228 OFFCURVE",
"881 183 OFFCURVE",
"889 142 CURVE SMOOTH",
"898 93 OFFCURVE",
"904 46 OFFCURVE",
"904 0 CURVE",
"922 0 LINE",
"922 20 OFFCURVE",
"922 31 OFFCURVE",
"922 42 CURVE SMOOTH",
"922 130 OFFCURVE",
"930 211 OFFCURVE",
"943 287 CURVE",
"1063 315 OFFCURVE",
"1122 363 OFFCURVE",
"1122 364 CURVE",
"1126 367 OFFCURVE",
"1127 373 OFFCURVE",
"1124 377 CURVE SMOOTH",
"1120 382 OFFCURVE",
"1115 381 OFFCURVE",
"1111 378 CURVE",
"1111 378 OFFCURVE",
"1111 378 OFFCURVE",
"1111 378 CURVE",
"1109 376 OFFCURVE",
"1056 333 OFFCURVE",
"947 306 CURVE",
"988 513 OFFCURVE",
"1072 671 OFFCURVE",
"1157 784 CURVE SMOOTH",
"1216 863 OFFCURVE",
"1275 920 OFFCURVE",
"1319 957 CURVE SMOOTH",
"1341 976 OFFCURVE",
"1359 990 OFFCURVE",
"1372 999 CURVE SMOOTH",
"1375 1001 OFFCURVE",
"1389 1011 OFFCURVE",
"1392 1013 CURVE",
"1438 1010 OFFCURVE",
"1489 997 OFFCURVE",
"1534 966 CURVE",
"1538 963 OFFCURVE",
"1544 963 OFFCURVE",
"1547 967 CURVE SMOOTH",
"1550 971 OFFCURVE",
"1548 977 OFFCURVE",
"1544 980 CURVE SMOOTH",
"1488 1020 OFFCURVE"
);
},
{
closed = 1;
nodes = (
"470 445 OFFCURVE",
"486 458 CURVE SMOOTH",
"512 480 OFFCURVE",
"550 484 OFFCURVE",
"581 484 CURVE SMOOTH",
"606 484 OFFCURVE",
"628 481 OFFCURVE",
"648 476 CURVE",
"610 422 OFFCURVE",
"576 367 OFFCURVE",
"543 315 CURVE",
"504 330 OFFCURVE",
"460 356 OFFCURVE",
"460 400 CURVE SMOOTH",
"460 423 OFFCURVE"
);
},
{
closed = 1;
nodes = (
"601 297 OFFCURVE",
"560 309 CURVE",
"594 362 OFFCURVE",
"628 417 OFFCURVE",
"666 470 CURVE",
"715 454 OFFCURVE",
"753 425 OFFCURVE",
"784 388 CURVE SMOOTH",
"809 359 OFFCURVE",
"829 325 OFFCURVE",
"845 289 CURVE",
"797 285 OFFCURVE",
"764 285 OFFCURVE",
"730 286 CURVE SMOOTH",
"656 288 OFFCURVE"
);
},
{
closed = 1;
nodes = (
"895 200 OFFCURVE",
"885 231 CURVE SMOOTH",
"881 245 OFFCURVE",
"876 259 OFFCURVE",
"870 273 CURVE",
"889 276 OFFCURVE",
"907 279 OFFCURVE",
"924 282 CURVE",
"916 238 OFFCURVE",
"910 191 OFFCURVE",
"907 141 CURVE",
"902 170 OFFCURVE"
);
},
{
closed = 1;
nodes = (
"968 516 OFFCURVE",
"928 301 CURVE",
"908 297 OFFCURVE",
"886 294 OFFCURVE",
"863 291 CURVE",
"847 330 OFFCURVE",
"825 367 OFFCURVE",
"798 400 CURVE SMOOTH",
"767 437 OFFCURVE",
"727 468 OFFCURVE",
"677 486 CURVE",
"683 495 OFFCURVE",
"690 504 OFFCURVE",
"697 513 CURVE SMOOTH",
"793 644 OFFCURVE",
"887 758 OFFCURVE",
"984 843 CURVE SMOOTH",
"1082 929 OFFCURVE",
"1183 987 OFFCURVE",
"1297 1007 CURVE SMOOTH",
"1315 1010 OFFCURVE",
"1337 1012 OFFCURVE",
"1361 1013 CURVE",
"1321 985 OFFCURVE",
"1232 914 OFFCURVE",
"1143 795 CURVE SMOOTH",
"1055 678 OFFCURVE"
);
},
{
closed = 1;
nodes = (
"1479 1097 OFFCURVE",
"1624 1189 CURVE",
"1628 1192 OFFCURVE",
"1630 1197 OFFCURVE",
"1627 1202 CURVE",
"1624 1206 OFFCURVE",
"1619 1207 OFFCURVE",
"1614 1204 CURVE SMOOTH",
"1487 1122 OFFCURVE",
"1313 1066 OFFCURVE",
"1159 1086 CURVE",
"1154 1087 OFFCURVE",
"1150 1083 OFFCURVE",
"1149 1079 CURVE",
"1148 1074 OFFCURVE",
"1151 1069 OFFCURVE",
"1156 1068 CURVE",
"1318 1051 OFFCURVE"
);
}
);
width = 1208;
},
{
layerId = "AF956123-A183-4F86-8774-5A4F8E572774";
width = 600;
}
);
unicode = 00C1;
},
{
glyphname = Acircumflex;
lastChange = "2018-12-14 18:07:14 +0000";
layers = (
{
layerId = master01;
paths = (
{
closed = 1;
nodes = (
"1426 1030 OFFCURVE",
"1372 1030 CURVE SMOOTH",
"1343 1030 OFFCURVE",
"1315 1028 OFFCURVE",
"1293 1024 CURVE SMOOTH",
"1176 1004 OFFCURVE",
"1072 944 OFFCURVE",
"972 857 CURVE SMOOTH",
"873 770 OFFCURVE",
"779 655 OFFCURVE",
"682 524 CURVE SMOOTH",
"674 513 OFFCURVE",
"666 502 OFFCURVE",
"659 491 CURVE",
"632 499 OFFCURVE",
"606 501 OFFCURVE",
"581 501 CURVE SMOOTH",
"542 501 OFFCURVE",
"502 496 OFFCURVE",
"474 472 CURVE SMOOTH",
"451 453 OFFCURVE",
"442 425 OFFCURVE",
"442 400 CURVE SMOOTH",
"442 384 OFFCURVE",
"446 368 OFFCURVE",
"457 353 CURVE",
"471 332 OFFCURVE",
"495 314 OFFCURVE",
"533 299 CURVE",
"504 253 OFFCURVE",
"476 209 OFFCURVE",
"448 168 CURVE SMOOTH",
"413 117 OFFCURVE",
"378 72 OFFCURVE",
"342 39 CURVE SMOOTH",
"278 -22 OFFCURVE",
"177 -54 OFFCURVE",
"104 -4 CURVE SMOOTH",
"74 18 OFFCURVE",
"59 52 OFFCURVE",
"50 81 CURVE",
"42 111 OFFCURVE",
"42 136 OFFCURVE",
"42 139 CURVE SMOOTH",
"42 140 OFFCURVE",
"42 140 OFFCURVE",
"42 140 CURVE",
"42 145 OFFCURVE",
"38 149 OFFCURVE",
"33 149 CURVE SMOOTH",
"28 149 OFFCURVE",
"24 145 OFFCURVE",
"24 140 CURVE",
"24 140 OFFCURVE",
"24 140 OFFCURVE",
"24 139 CURVE SMOOTH",
"24 133 OFFCURVE",
"25 88 OFFCURVE",
"45 43 CURVE SMOOTH",
"55 21 OFFCURVE",
"71 -1 OFFCURVE",
"94 -18 CURVE SMOOTH",
"177 -79 OFFCURVE",
"291 -34 OFFCURVE",
"354 26 CURVE SMOOTH",
"410 78 OFFCURVE",
"462 154 OFFCURVE",
"517 240 CURVE SMOOTH",
"528 258 OFFCURVE",
"539 275 OFFCURVE",
"550 293 CURVE",
"594 280 OFFCURVE",
"652 271 OFFCURVE",
"729 268 CURVE SMOOTH",
"773 266 OFFCURVE",
"812 268 OFFCURVE",
"852 271 CURVE",
"869 228 OFFCURVE",
"881 183 OFFCURVE",
"889 142 CURVE SMOOTH",
"898 93 OFFCURVE",
"904 46 OFFCURVE",
"904 0 CURVE",
"922 0 LINE",
"922 20 OFFCURVE",
"922 31 OFFCURVE",
"922 42 CURVE SMOOTH",
"922 130 OFFCURVE",
"930 211 OFFCURVE",
"943 287 CURVE",
"1063 315 OFFCURVE",
"1122 363 OFFCURVE",
"1122 364 CURVE",
"1126 367 OFFCURVE",
"1127 373 OFFCURVE",
"1124 377 CURVE SMOOTH",
"1120 382 OFFCURVE",
"1115 381 OFFCURVE",
"1111 378 CURVE",
"1111 378 OFFCURVE",
"1111 378 OFFCURVE",
"1111 378 CURVE",
"1109 376 OFFCURVE",
"1056 333 OFFCURVE",
"947 306 CURVE",
"988 513 OFFCURVE",
"1072 671 OFFCURVE",
"1157 784 CURVE SMOOTH",
"1216 863 OFFCURVE",
"1275 920 OFFCURVE",
"1319 957 CURVE SMOOTH",
"1341 976 OFFCURVE",
"1359 990 OFFCURVE",
"1372 999 CURVE SMOOTH",
"1375 1001 OFFCURVE",
"1389 1011 OFFCURVE",
"1392 1013 CURVE",
"1438 1010 OFFCURVE",
"1489 997 OFFCURVE",
"1534 966 CURVE",
"1538 963 OFFCURVE",
"1544 963 OFFCURVE",
"1547 967 CURVE SMOOTH",
"1550 971 OFFCURVE",
"1548 977 OFFCURVE",
"1544 980 CURVE SMOOTH",
"1488 1020 OFFCURVE"
);
},
{
closed = 1;
nodes = (
"470 445 OFFCURVE",
"486 458 CURVE SMOOTH",
"512 480 OFFCURVE",
"550 484 OFFCURVE",
"581 484 CURVE SMOOTH",
"606 484 OFFCURVE",
"628 481 OFFCURVE",
"648 476 CURVE",
"610 422 OFFCURVE",
"576 367 OFFCURVE",
"543 315 CURVE",
"504 330 OFFCURVE",
"460 356 OFFCURVE",
"460 400 CURVE SMOOTH",
"460 423 OFFCURVE"
);
},
{
closed = 1;
nodes = (
"601 297 OFFCURVE",
"560 309 CURVE",
"594 362 OFFCURVE",
"628 417 OFFCURVE",
"666 470 CURVE",
"715 454 OFFCURVE",
"753 425 OFFCURVE",
"784 388 CURVE SMOOTH",
"809 359 OFFCURVE",
"829 325 OFFCURVE",
"845 289 CURVE",
"797 285 OFFCURVE",
"764 285 OFFCURVE",
"730 286 CURVE SMOOTH",
"656 288 OFFCURVE"
);
},
{
closed = 1;
nodes = (
"895 200 OFFCURVE",
"885 231 CURVE SMOOTH",
"881 245 OFFCURVE",
"876 259 OFFCURVE",
"870 273 CURVE",
"889 276 OFFCURVE",
"907 279 OFFCURVE",
"924 282 CURVE",
"916 238 OFFCURVE",
"910 191 OFFCURVE",
"907 141 CURVE",
"902 170 OFFCURVE"
);
},
{
closed = 1;
nodes = (
"968 516 OFFCURVE",
"928 301 CURVE",
"908 297 OFFCURVE",
"886 294 OFFCURVE",
"863 291 CURVE",
"847 330 OFFCURVE",
"825 367 OFFCURVE",
"798 400 CURVE SMOOTH",
"767 437 OFFCURVE",
"727 468 OFFCURVE",
"677 486 CURVE",
"683 495 OFFCURVE",
"690 504 OFFCURVE",
"697 513 CURVE SMOOTH",
"793 644 OFFCURVE",
"887 758 OFFCURVE",
"984 843 CURVE SMOOTH",
"1082 929 OFFCURVE",
"1183 987 OFFCURVE",
"1297 1007 CURVE SMOOTH",
"1315 1010 OFFCURVE",
"1337 1012 OFFCURVE",
"1361 1013 CURVE",
"1321 985 OFFCURVE",
"1232 914 OFFCURVE",
"1143 795 CURVE SMOOTH",
"1055 678 OFFCURVE"
);
},
{
closed = 1;
nodes = (
"1626 1058 OFFCURVE",
"1626 1063 CURVE SMOOTH",
"1626 1068 OFFCURVE",
"1622 1072 OFFCURVE",
"1617 1072 CURVE SMOOTH",
"1571 1072 OFFCURVE",
"1539 1093 OFFCURVE",
"1520 1135 CURVE SMOOTH",
"1506 1167 OFFCURVE",
"1506 1200 OFFCURVE",
"1506 1201 CURVE SMOOTH",
"1506 1208 OFFCURVE",
"1497 1212 OFFCURVE",
"1492 1209 CURVE SMOOTH",
"1369 1133 OFFCURVE",
"1259 1112 OFFCURVE",
"1188 1105 CURVE SMOOTH",
"1111 1097 OFFCURVE",
"1061 1108 OFFCURVE",
"1061 1108 CURVE",
"1056 1109 OFFCURVE",
"1051 1106 OFFCURVE",
"1050 1101 CURVE SMOOTH",
"1049 1096 OFFCURVE",
"1052 1091 OFFCURVE",
"1057 1090 CURVE",
"1059 1090 OFFCURVE",
"1109 1079 OFFCURVE",
"1189 1087 CURVE SMOOTH",
"1236 1091 OFFCURVE",
"1283 1101 OFFCURVE",
"1330 1116 CURVE SMOOTH",
"1384 1132 OFFCURVE",
"1437 1156 OFFCURVE",
"1489 1186 CURVE",
"1490 1172 OFFCURVE",
"1494 1150 OFFCURVE",
"1504 1128 CURVE SMOOTH",
"1525 1080 OFFCURVE",
"1564 1054 OFFCURVE",
"1617 1054 CURVE SMOOTH",
"1622 1054 OFFCURVE"
);
}
);
width = 1208;
},
{
layerId = "AF956123-A183-4F86-8774-5A4F8E572774";
width = 600;
}
);
unicode = 00C2;
},
{
glyphname = Adieresis;
lastChange = "2018-12-14 18:07:14 +0000";
layers = (
{
layerId = master01;
paths = (
{
closed = 1;
nodes = (
"1426 1030 OFFCURVE",
"1372 1030 CURVE SMOOTH",
"1343 1030 OFFCURVE",
"1315 1028 OFFCURVE",
"1293 1024 CURVE SMOOTH",
"1176 1004 OFFCURVE",
"1072 944 OFFCURVE",
"972 857 CURVE SMOOTH",
"873 770 OFFCURVE",
"779 655 OFFCURVE",
"682 524 CURVE SMOOTH",
"674 513 OFFCURVE",
"666 502 OFFCURVE",
"659 491 CURVE",
"632 499 OFFCURVE",
"606 501 OFFCURVE",
"581 501 CURVE SMOOTH",
"542 501 OFFCURVE",
"502 496 OFFCURVE",
"474 472 CURVE SMOOTH",
"451 453 OFFCURVE",
"442 425 OFFCURVE",
"442 400 CURVE SMOOTH",
"442 384 OFFCURVE",
"446 368 OFFCURVE",
"457 353 CURVE",
"471 332 OFFCURVE",
"495 314 OFFCURVE",
"533 299 CURVE",
"504 253 OFFCURVE",
"476 209 OFFCURVE",
"448 168 CURVE SMOOTH",
"413 117 OFFCURVE",
"378 72 OFFCURVE",
"342 39 CURVE SMOOTH",
"278 -22 OFFCURVE",
"177 -54 OFFCURVE",
"104 -4 CURVE SMOOTH",
"74 18 OFFCURVE",
"59 52 OFFCURVE",
"50 81 CURVE",
"42 111 OFFCURVE",
"42 136 OFFCURVE",
"42 139 CURVE SMOOTH",
"42 140 OFFCURVE",
"42 140 OFFCURVE",
"42 140 CURVE",
"42 145 OFFCURVE",
"38 149 OFFCURVE",
"33 149 CURVE SMOOTH",
"28 149 OFFCURVE",
"24 145 OFFCURVE",
"24 140 CURVE",
"24 140 OFFCURVE",
"24 140 OFFCURVE",
"24 139 CURVE SMOOTH",
"24 133 OFFCURVE",
"25 88 OFFCURVE",
"45 43 CURVE SMOOTH",
"55 21 OFFCURVE",
"71 -1 OFFCURVE",
"94 -18 CURVE SMOOTH",
"177 -79 OFFCURVE",
"291 -34 OFFCURVE",
"354 26 CURVE SMOOTH",
"410 78 OFFCURVE",
"462 154 OFFCURVE",
"517 240 CURVE SMOOTH",
"528 258 OFFCURVE",
"539 275 OFFCURVE",
"550 293 CURVE",
"594 280 OFFCURVE",
"652 271 OFFCURVE",
"729 268 CURVE SMOOTH",
"773 266 OFFCURVE",
"812 268 OFFCURVE",
"852 271 CURVE",
"869 228 OFFCURVE",
"881 183 OFFCURVE",
"889 142 CURVE SMOOTH",
"898 93 OFFCURVE",
"904 46 OFFCURVE",
"904 0 CURVE",
"922 0 LINE",
"922 20 OFFCURVE",
"922 31 OFFCURVE",
"922 42 CURVE SMOOTH",
"922 130 OFFCURVE",
"930 211 OFFCURVE",
"943 287 CURVE",
"1063 315 OFFCURVE",
"1122 363 OFFCURVE",
"1122 364 CURVE",
"1126 367 OFFCURVE",
"1127 373 OFFCURVE",
"1124 377 CURVE SMOOTH",
"1120 382 OFFCURVE",
"1115 381 OFFCURVE",
"1111 378 CURVE",
"1111 378 OFFCURVE",
"1111 378 OFFCURVE",
"1111 378 CURVE",
"1109 376 OFFCURVE",
"1056 333 OFFCURVE",
"947 306 CURVE",
"988 513 OFFCURVE",
"1072 671 OFFCURVE",
"1157 784 CURVE SMOOTH",
"1216 863 OFFCURVE",
"1275 920 OFFCURVE",
"1319 957 CURVE SMOOTH",
"1341 976 OFFCURVE",
"1359 990 OFFCURVE",
"1372 999 CURVE SMOOTH",
"1375 1001 OFFCURVE",
"1389 1011 OFFCURVE",
"1392 1013 CURVE",
"1438 1010 OFFCURVE",
"1489 997 OFFCURVE",
"1534 966 CURVE",
"1538 963 OFFCURVE",
"1544 963 OFFCURVE",
"1547 967 CURVE SMOOTH",
"1550 971 OFFCURVE",
"1548 977 OFFCURVE",
"1544 980 CURVE SMOOTH",
"1488 1020 OFFCURVE"
);
},
{
closed = 1;
nodes = (
"470 445 OFFCURVE",
"486 458 CURVE SMOOTH",
"512 480 OFFCURVE",
"550 484 OFFCURVE",
"581 484 CURVE SMOOTH",
"606 484 OFFCURVE",
"628 481 OFFCURVE",
"648 476 CURVE",
"610 422 OFFCURVE",
"576 367 OFFCURVE",
"543 315 CURVE",
"504 330 OFFCURVE",
"460 356 OFFCURVE",
"460 400 CURVE SMOOTH",
"460 423 OFFCURVE"
);
},
{
closed = 1;
nodes = (
"601 297 OFFCURVE",
"560 309 CURVE",
"594 362 OFFCURVE",
"628 417 OFFCURVE",
"666 470 CURVE",
"715 454 OFFCURVE",
"753 425 OFFCURVE",
"784 388 CURVE SMOOTH",
"809 359 OFFCURVE",
"829 325 OFFCURVE",
"845 289 CURVE",
"797 285 OFFCURVE",
"764 285 OFFCURVE",
"730 286 CURVE SMOOTH",
"656 288 OFFCURVE"
);
},
{
closed = 1;
nodes = (
"895 200 OFFCURVE",
"885 231 CURVE SMOOTH",
"881 245 OFFCURVE",
"876 259 OFFCURVE",
"870 273 CURVE",
"889 276 OFFCURVE",
"907 279 OFFCURVE",
"924 282 CURVE",
"916 238 OFFCURVE",
"910 191 OFFCURVE",
"907 141 CURVE",
"902 170 OFFCURVE"
);
},
{
closed = 1;
nodes = (
"968 516 OFFCURVE",
"928 301 CURVE",
"908 297 OFFCURVE",
"886 294 OFFCURVE",
"863 291 CURVE",
"847 330 OFFCURVE",
"825 367 OFFCURVE",
"798 400 CURVE SMOOTH",
"767 437 OFFCURVE",
"727 468 OFFCURVE",
"677 486 CURVE",
"683 495 OFFCURVE",
"690 504 OFFCURVE",
"697 513 CURVE SMOOTH",
"793 644 OFFCURVE",
"887 758 OFFCURVE",
"984 843 CURVE SMOOTH",
"1082 929 OFFCURVE",
"1183 987 OFFCURVE",
"1297 1007 CURVE SMOOTH",
"1315 1010 OFFCURVE",
"1337 1012 OFFCURVE",
"1361 1013 CURVE",
"1321 985 OFFCURVE",
"1232 914 OFFCURVE",
"1143 795 CURVE SMOOTH",
"1055 678 OFFCURVE"
);
},
{
closed = 1;
nodes = (
"1322 1174 OFFCURVE",
"1292 1174 CURVE SMOOTH",
"1262 1174 OFFCURVE",
"1238 1150 OFFCURVE",
"1238 1120 CURVE SMOOTH",
"1238 1090 OFFCURVE",
"1262 1066 OFFCURVE",
"1292 1066 CURVE SMOOTH",
"1322 1066 OFFCURVE",
"1346 1090 OFFCURVE",
"1346 1120 CURVE SMOOTH",
"1346 1150 OFFCURVE"
);
},
{
closed = 1;
nodes = (
"1484 1174 OFFCURVE",
"1454 1174 CURVE SMOOTH",
"1424 1174 OFFCURVE",
"1400 1150 OFFCURVE",
"1400 1120 CURVE SMOOTH",
"1400 1090 OFFCURVE",
"1424 1066 OFFCURVE",
"1454 1066 CURVE SMOOTH",
"1484 1066 OFFCURVE",
"1508 1090 OFFCURVE",
"1508 1120 CURVE SMOOTH",
"1508 1150 OFFCURVE"
);
}
);
width = 1208;
},
{
layerId = "AF956123-A183-4F86-8774-5A4F8E572774";
width = 600;
}
);
unicode = 00C4;
},
{
glyphname = Agrave;
lastChange = "2018-12-14 18:07:14 +0000";
layers = (
{
layerId = master01;
paths = (
{
closed = 1;
nodes = (
"1426 1030 OFFCURVE",
"1372 1030 CURVE SMOOTH",
"1343 1030 OFFCURVE",
"1315 1028 OFFCURVE",
"1293 1024 CURVE SMOOTH",
"1176 1004 OFFCURVE",
"1072 944 OFFCURVE",
"972 857 CURVE SMOOTH",
"873 770 OFFCURVE",
"779 655 OFFCURVE",
"682 524 CURVE SMOOTH",
"674 513 OFFCURVE",
"666 502 OFFCURVE",
"659 491 CURVE",
"632 499 OFFCURVE",
"606 501 OFFCURVE",
"581 501 CURVE SMOOTH",
"542 501 OFFCURVE",
"502 496 OFFCURVE",
"474 472 CURVE SMOOTH",
"451 453 OFFCURVE",
"442 425 OFFCURVE",
"442 400 CURVE SMOOTH",
"442 384 OFFCURVE",
"446 368 OFFCURVE",
"457 353 CURVE",
"471 332 OFFCURVE",
"495 314 OFFCURVE",
"533 299 CURVE",
"504 253 OFFCURVE",
"476 209 OFFCURVE",
"448 168 CURVE SMOOTH",
"413 117 OFFCURVE",
"378 72 OFFCURVE",
"342 39 CURVE SMOOTH",
"278 -22 OFFCURVE",
"177 -54 OFFCURVE",
"104 -4 CURVE SMOOTH",
"74 18 OFFCURVE",
"59 52 OFFCURVE",
"50 81 CURVE",
"42 111 OFFCURVE",
"42 136 OFFCURVE",
"42 139 CURVE SMOOTH",
"42 140 OFFCURVE",
"42 140 OFFCURVE",
"42 140 CURVE",
"42 145 OFFCURVE",
"38 149 OFFCURVE",
"33 149 CURVE SMOOTH",
"28 149 OFFCURVE",
"24 145 OFFCURVE",
"24 140 CURVE",
"24 140 OFFCURVE",
"24 140 OFFCURVE",
"24 139 CURVE SMOOTH",
"24 133 OFFCURVE",
"25 88 OFFCURVE",
"45 43 CURVE SMOOTH",
"55 21 OFFCURVE",
"71 -1 OFFCURVE",
"94 -18 CURVE SMOOTH",
"177 -79 OFFCURVE",
"291 -34 OFFCURVE",
"354 26 CURVE SMOOTH",
"410 78 OFFCURVE",
"462 154 OFFCURVE",
"517 240 CURVE SMOOTH",
"528 258 OFFCURVE",
"539 275 OFFCURVE",
"550 293 CURVE",
"594 280 OFFCURVE",
"652 271 OFFCURVE",
"729 268 CURVE SMOOTH",
"773 266 OFFCURVE",
"812 268 OFFCURVE",
"852 271 CURVE",
"869 228 OFFCURVE",
"881 183 OFFCURVE",
"889 142 CURVE SMOOTH",
"898 93 OFFCURVE",
"904 46 OFFCURVE",
"904 0 CURVE",
"922 0 LINE",
"922 20 OFFCURVE",
"922 31 OFFCURVE",
"922 42 CURVE SMOOTH",
"922 130 OFFCURVE",
"930 211 OFFCURVE",
"943 287 CURVE",
"1063 315 OFFCURVE",
"1122 363 OFFCURVE",
"1122 364 CURVE",
"1126 367 OFFCURVE",
"1127 373 OFFCURVE",
"1124 377 CURVE SMOOTH",
"1120 382 OFFCURVE",
"1115 381 OFFCURVE",
"1111 378 CURVE",
"1111 378 OFFCURVE",
"1111 378 OFFCURVE",
"1111 378 CURVE",
"1109 376 OFFCURVE",
"1056 333 OFFCURVE",
"947 306 CURVE",
"988 513 OFFCURVE",
"1072 671 OFFCURVE",
"1157 784 CURVE SMOOTH",
"1216 863 OFFCURVE",
"1275 920 OFFCURVE",
"1319 957 CURVE SMOOTH",
"1341 976 OFFCURVE",
"1359 990 OFFCURVE",
"1372 999 CURVE SMOOTH",
"1375 1001 OFFCURVE",
"1389 1011 OFFCURVE",
"1392 1013 CURVE",
"1438 1010 OFFCURVE",
"1489 997 OFFCURVE",
"1534 966 CURVE",
"1538 963 OFFCURVE",
"1544 963 OFFCURVE",
"1547 967 CURVE SMOOTH",
"1550 971 OFFCURVE",
"1548 977 OFFCURVE",
"1544 980 CURVE SMOOTH",
"1488 1020 OFFCURVE"
);
},
{
closed = 1;
nodes = (
"470 445 OFFCURVE",
"486 458 CURVE SMOOTH",
"512 480 OFFCURVE",
"550 484 OFFCURVE",
"581 484 CURVE SMOOTH",
"606 484 OFFCURVE",
"628 481 OFFCURVE",
"648 476 CURVE",
"610 422 OFFCURVE",
"576 367 OFFCURVE",
"543 315 CURVE",
"504 330 OFFCURVE",
"460 356 OFFCURVE",
"460 400 CURVE SMOOTH",
"460 423 OFFCURVE"
);
},
{
closed = 1;
nodes = (
"601 297 OFFCURVE",
"560 309 CURVE",
"594 362 OFFCURVE",
"628 417 OFFCURVE",
"666 470 CURVE",
"715 454 OFFCURVE",
"753 425 OFFCURVE",
"784 388 CURVE SMOOTH",
"809 359 OFFCURVE",
"829 325 OFFCURVE",
"845 289 CURVE",
"797 285 OFFCURVE",
"764 285 OFFCURVE",
"730 286 CURVE SMOOTH",
"656 288 OFFCURVE"
);
},
{
closed = 1;
nodes = (
"895 200 OFFCURVE",
"885 231 CURVE SMOOTH",
"881 245 OFFCURVE",
"876 259 OFFCURVE",
"870 273 CURVE",
"889 276 OFFCURVE",
"907 279 OFFCURVE",
"924 282 CURVE",
"916 238 OFFCURVE",
"910 191 OFFCURVE",
"907 141 CURVE",
"902 170 OFFCURVE"
);
},
{
closed = 1;
nodes = (
"968 516 OFFCURVE",
"928 301 CURVE",
"908 297 OFFCURVE",
"886 294 OFFCURVE",
"863 291 CURVE",
"847 330 OFFCURVE",
"825 367 OFFCURVE",
"798 400 CURVE SMOOTH",
"767 437 OFFCURVE",
"727 468 OFFCURVE",
"677 486 CURVE",
"683 495 OFFCURVE",
"690 504 OFFCURVE",
"697 513 CURVE SMOOTH",
"793 644 OFFCURVE",
"887 758 OFFCURVE",
"984 843 CURVE SMOOTH",
"1082 929 OFFCURVE",
"1183 987 OFFCURVE",
"1297 1007 CURVE SMOOTH",
"1315 1010 OFFCURVE",
"1337 1012 OFFCURVE",
"1361 1013 CURVE",
"1321 985 OFFCURVE",
"1232 914 OFFCURVE",
"1143 795 CURVE SMOOTH",
"1055 678 OFFCURVE"
);
},
{
closed = 1;
nodes = (
"1481 1079 OFFCURVE",
"1501 1081 CURVE",
"1506 1081 OFFCURVE",
"1510 1086 OFFCURVE",
"1510 1091 CURVE",
"1509 1096 OFFCURVE",
"1505 1099 OFFCURVE",
"1500 1099 CURVE",
"1367 1088 OFFCURVE",
"1201 1112 OFFCURVE",
"1152 1259 CURVE SMOOTH",
"1144 1286 OFFCURVE",
"1144 1306 OFFCURVE",
"1144 1306 CURVE",
"1144 1311 OFFCURVE",
"1140 1315 OFFCURVE",
"1135 1315 CURVE SMOOTH",
"1130 1315 OFFCURVE",
"1126 1311 OFFCURVE",
"1126 1306 CURVE SMOOTH",
"1126 1305 OFFCURVE",
"1126 1284 OFFCURVE",
"1135 1255 CURVE SMOOTH",
"1173 1126 OFFCURVE",
"1311 1078 OFFCURVE",
"1441 1078 CURVE SMOOTH",
"1461 1078 OFFCURVE"
);
}
);
width = 1208;
},
{
layerId = "AF956123-A183-4F86-8774-5A4F8E572774";
width = 600;
}
);
unicode = 00C0;
},
{
glyphname = Aring;
lastChange = "2018-12-14 18:07:14 +0000";
layers = (
{
layerId = master01;
paths = (
{
closed = 1;
nodes = (
"1426 1030 OFFCURVE",
"1372 1030 CURVE SMOOTH",
"1343 1030 OFFCURVE",
"1315 1028 OFFCURVE",
"1293 1024 CURVE SMOOTH",
"1176 1004 OFFCURVE",
"1072 944 OFFCURVE",
"972 857 CURVE SMOOTH",
"873 770 OFFCURVE",
"779 655 OFFCURVE",
"682 524 CURVE SMOOTH",
"674 513 OFFCURVE",
"666 502 OFFCURVE",
"659 491 CURVE",
"632 499 OFFCURVE",
"606 501 OFFCURVE",
"581 501 CURVE SMOOTH",
"542 501 OFFCURVE",
"502 496 OFFCURVE",
"474 472 CURVE SMOOTH",
"451 453 OFFCURVE",
"442 425 OFFCURVE",
"442 400 CURVE SMOOTH",
"442 384 OFFCURVE",
"446 368 OFFCURVE",
"457 353 CURVE",
"471 332 OFFCURVE",
"495 314 OFFCURVE",
"533 299 CURVE",
"504 253 OFFCURVE",
"476 209 OFFCURVE",
"448 168 CURVE SMOOTH",
"413 117 OFFCURVE",
"378 72 OFFCURVE",
"342 39 CURVE SMOOTH",
"278 -22 OFFCURVE",
"177 -54 OFFCURVE",
"104 -4 CURVE SMOOTH",
"74 18 OFFCURVE",
"59 52 OFFCURVE",
"50 81 CURVE",
"42 111 OFFCURVE",
"42 136 OFFCURVE",
"42 139 CURVE SMOOTH",
"42 140 OFFCURVE",
"42 140 OFFCURVE",
"42 140 CURVE",
"42 145 OFFCURVE",
"38 149 OFFCURVE",
"33 149 CURVE SMOOTH",
"28 149 OFFCURVE",
"24 145 OFFCURVE",
"24 140 CURVE",
"24 140 OFFCURVE",
"24 140 OFFCURVE",
"24 139 CURVE SMOOTH",
"24 133 OFFCURVE",
"25 88 OFFCURVE",
"45 43 CURVE SMOOTH",
"55 21 OFFCURVE",
"71 -1 OFFCURVE",
"94 -18 CURVE SMOOTH",
"177 -79 OFFCURVE",
"291 -34 OFFCURVE",
"354 26 CURVE SMOOTH",
"410 78 OFFCURVE",
"462 154 OFFCURVE",
"517 240 CURVE SMOOTH",
"528 258 OFFCURVE",
"539 275 OFFCURVE",
"550 293 CURVE",
"594 280 OFFCURVE",
"652 271 OFFCURVE",
"729 268 CURVE SMOOTH",
"773 266 OFFCURVE",
"812 268 OFFCURVE",
"852 271 CURVE",
"869 228 OFFCURVE",
"881 183 OFFCURVE",
"889 142 CURVE SMOOTH",
"898 93 OFFCURVE",
"904 46 OFFCURVE",
"904 0 CURVE",
"922 0 LINE",
"922 20 OFFCURVE",
"922 31 OFFCURVE",
"922 42 CURVE SMOOTH",
"922 130 OFFCURVE",
"930 211 OFFCURVE",
"943 287 CURVE",
"1063 315 OFFCURVE",
"1122 363 OFFCURVE",
"1122 364 CURVE",
"1126 367 OFFCURVE",
"1127 373 OFFCURVE",
"1124 377 CURVE SMOOTH",
"1120 382 OFFCURVE",
"1115 381 OFFCURVE",
"1111 378 CURVE",
"1111 378 OFFCURVE",
"1111 378 OFFCURVE",
"1111 378 CURVE",
"1109 376 OFFCURVE",
"1056 333 OFFCURVE",
"947 306 CURVE",
"988 513 OFFCURVE",
"1072 671 OFFCURVE",
"1157 784 CURVE SMOOTH",
"1216 863 OFFCURVE",
"1275 920 OFFCURVE",
"1319 957 CURVE SMOOTH",
"1341 976 OFFCURVE",
"1359 990 OFFCURVE",
"1372 999 CURVE SMOOTH",
"1375 1001 OFFCURVE",
"1389 1011 OFFCURVE",
"1392 1013 CURVE",
"1438 1010 OFFCURVE",
"1489 997 OFFCURVE",
"1534 966 CURVE",
"1538 963 OFFCURVE",
"1544 963 OFFCURVE",
"1547 967 CURVE SMOOTH",
"1550 971 OFFCURVE",
"1548 977 OFFCURVE",
"1544 980 CURVE SMOOTH",
"1488 1020 OFFCURVE"
);
},
{
closed = 1;
nodes = (
"470 445 OFFCURVE",
"486 458 CURVE SMOOTH",
"512 480 OFFCURVE",
"550 484 OFFCURVE",
"581 484 CURVE SMOOTH",
"606 484 OFFCURVE",
"628 481 OFFCURVE",
"648 476 CURVE",
"610 422 OFFCURVE",
"576 367 OFFCURVE",
"543 315 CURVE",
"504 330 OFFCURVE",
"460 356 OFFCURVE",
"460 400 CURVE SMOOTH",
"460 423 OFFCURVE"
);
},
{
closed = 1;
nodes = (
"601 297 OFFCURVE",
"560 309 CURVE",
"594 362 OFFCURVE",
"628 417 OFFCURVE",
"666 470 CURVE",
"715 454 OFFCURVE",
"753 425 OFFCURVE",
"784 388 CURVE SMOOTH",
"809 359 OFFCURVE",
"829 325 OFFCURVE",
"845 289 CURVE",
"797 285 OFFCURVE",
"764 285 OFFCURVE",
"730 286 CURVE SMOOTH",
"656 288 OFFCURVE"
);
},
{
closed = 1;
nodes = (
"895 200 OFFCURVE",
"885 231 CURVE SMOOTH",
"881 245 OFFCURVE",
"876 259 OFFCURVE",
"870 273 CURVE",
"889 276 OFFCURVE",
"907 279 OFFCURVE",
"924 282 CURVE",
"916 238 OFFCURVE",
"910 191 OFFCURVE",
"907 141 CURVE",
"902 170 OFFCURVE"
);
},
{
closed = 1;
nodes = (
"968 516 OFFCURVE",
"928 301 CURVE",
"908 297 OFFCURVE",
"886 294 OFFCURVE",
"863 291 CURVE",
"847 330 OFFCURVE",
"825 367 OFFCURVE",
"798 400 CURVE SMOOTH",
"767 437 OFFCURVE",
"727 468 OFFCURVE",
"677 486 CURVE",
"683 495 OFFCURVE",
"690 504 OFFCURVE",
"697 513 CURVE SMOOTH",
"793 644 OFFCURVE",
"887 758 OFFCURVE",
"984 843 CURVE SMOOTH",
"1082 929 OFFCURVE",
"1183 987 OFFCURVE",
"1297 1007 CURVE SMOOTH",
"1315 1010 OFFCURVE",
"1337 1012 OFFCURVE",
"1361 1013 CURVE",
"1321 985 OFFCURVE",
"1232 914 OFFCURVE",
"1143 795 CURVE SMOOTH",
"1055 678 OFFCURVE"
);
},
{
closed = 1;
nodes = (
"1521 1106 OFFCURVE",
"1521 1173 CURVE SMOOTH",
"1521 1240 OFFCURVE",
"1467 1294 OFFCURVE",
"1400 1294 CURVE SMOOTH",
"1333 1294 OFFCURVE",
"1279 1240 OFFCURVE",
"1279 1173 CURVE SMOOTH",
"1279 1106 OFFCURVE",
"1333 1052 OFFCURVE",
"1400 1052 CURVE SMOOTH",
"1467 1052 OFFCURVE"
);
},
{
closed = 1;
nodes = (
"1503 1230 OFFCURVE",
"1503 1173 CURVE SMOOTH",
"1503 1116 OFFCURVE",
"1457 1070 OFFCURVE",
"1400 1070 CURVE SMOOTH",
"1343 1070 OFFCURVE",
"1297 1116 OFFCURVE",
"1297 1173 CURVE SMOOTH",
"1297 1230 OFFCURVE",
"1343 1276 OFFCURVE",
"1400 1276 CURVE SMOOTH",
"1457 1276 OFFCURVE"
);
}
);
width = 1208;
},
{
layerId = "AF956123-A183-4F86-8774-5A4F8E572774";
width = 600;
}
);
unicode = 00C5;
},
{
glyphname = Atilde;
lastChange = "2018-12-14 18:07:14 +0000";
layers = (
{
layerId = master01;
paths = (
{
closed = 1;
nodes = (
"1426 1030 OFFCURVE",
"1372 1030 CURVE SMOOTH",
"1343 1030 OFFCURVE",
"1315 1028 OFFCURVE",
"1293 1024 CURVE SMOOTH",
"1176 1004 OFFCURVE",
"1072 944 OFFCURVE",
"972 857 CURVE SMOOTH",
"873 770 OFFCURVE",
"779 655 OFFCURVE",
"682 524 CURVE SMOOTH",
"674 513 OFFCURVE",
"666 502 OFFCURVE",
"659 491 CURVE",
"632 499 OFFCURVE",
"606 501 OFFCURVE",
"581 501 CURVE SMOOTH",
"542 501 OFFCURVE",
"502 496 OFFCURVE",
"474 472 CURVE SMOOTH",
"451 453 OFFCURVE",
"442 425 OFFCURVE",
"442 400 CURVE SMOOTH",
"442 384 OFFCURVE",
"446 368 OFFCURVE",
"457 353 CURVE",
"471 332 OFFCURVE",
"495 314 OFFCURVE",
"533 299 CURVE",
"504 253 OFFCURVE",
"476 209 OFFCURVE",
"448 168 CURVE SMOOTH",
"413 117 OFFCURVE",
"378 72 OFFCURVE",
"342 39 CURVE SMOOTH",
"278 -22 OFFCURVE",
"177 -54 OFFCURVE",
"104 -4 CURVE SMOOTH",
"74 18 OFFCURVE",
"59 52 OFFCURVE",
"50 81 CURVE",
"42 111 OFFCURVE",
"42 136 OFFCURVE",
"42 139 CURVE SMOOTH",
"42 140 OFFCURVE",
"42 140 OFFCURVE",
"42 140 CURVE",
"42 145 OFFCURVE",
"38 149 OFFCURVE",
"33 149 CURVE SMOOTH",
"28 149 OFFCURVE",
"24 145 OFFCURVE",
"24 140 CURVE",
"24 140 OFFCURVE",
"24 140 OFFCURVE",
"24 139 CURVE SMOOTH",
"24 133 OFFCURVE",
"25 88 OFFCURVE",
"45 43 CURVE SMOOTH",
"55 21 OFFCURVE",
"71 -1 OFFCURVE",
"94 -18 CURVE SMOOTH",
"177 -79 OFFCURVE",
"291 -34 OFFCURVE",
"354 26 CURVE SMOOTH",
"410 78 OFFCURVE",
"462 154 OFFCURVE",
"517 240 CURVE SMOOTH",
"528 258 OFFCURVE",
"539 275 OFFCURVE",
"550 293 CURVE",
"594 280 OFFCURVE",
"652 271 OFFCURVE",
"729 268 CURVE SMOOTH",
"773 266 OFFCURVE",
"812 268 OFFCURVE",
"852 271 CURVE",
"869 228 OFFCURVE",
"881 183 OFFCURVE",
"889 142 CURVE SMOOTH",
"898 93 OFFCURVE",
"904 46 OFFCURVE",
"904 0 CURVE",
"922 0 LINE",
"922 20 OFFCURVE",
"922 31 OFFCURVE",
"922 42 CURVE SMOOTH",
"922 130 OFFCURVE",
"930 211 OFFCURVE",
"943 287 CURVE",
"1063 315 OFFCURVE",
"1122 363 OFFCURVE",
"1122 364 CURVE",
"1126 367 OFFCURVE",
"1127 373 OFFCURVE",
"1124 377 CURVE SMOOTH",
"1120 382 OFFCURVE",
"1115 381 OFFCURVE",
"1111 378 CURVE",
"1111 378 OFFCURVE",
"1111 378 OFFCURVE",
"1111 378 CURVE",
"1109 376 OFFCURVE",
"1056 333 OFFCURVE",
"947 306 CURVE",
"988 513 OFFCURVE",
"1072 671 OFFCURVE",
"1157 784 CURVE SMOOTH",
"1216 863 OFFCURVE",
"1275 920 OFFCURVE",
"1319 957 CURVE SMOOTH",
"1341 976 OFFCURVE",
"1359 990 OFFCURVE",
"1372 999 CURVE SMOOTH",
"1375 1001 OFFCURVE",
"1389 1011 OFFCURVE",
"1392 1013 CURVE",
"1438 1010 OFFCURVE",
"1489 997 OFFCURVE",
"1534 966 CURVE",
"1538 963 OFFCURVE",
"1544 963 OFFCURVE",
"1547 967 CURVE SMOOTH",
"1550 971 OFFCURVE",
"1548 977 OFFCURVE",
"1544 980 CURVE SMOOTH",
"1488 1020 OFFCURVE"
);
},
{
closed = 1;
nodes = (
"470 445 OFFCURVE",
"486 458 CURVE SMOOTH",
"512 480 OFFCURVE",
"550 484 OFFCURVE",
"581 484 CURVE SMOOTH",
"606 484 OFFCURVE",
"628 481 OFFCURVE",
"648 476 CURVE",
"610 422 OFFCURVE",
"576 367 OFFCURVE",
"543 315 CURVE",
"504 330 OFFCURVE",
"460 356 OFFCURVE",
"460 400 CURVE SMOOTH",
"460 423 OFFCURVE"
);
},
{
closed = 1;
nodes = (
"601 297 OFFCURVE",
"560 309 CURVE",
"594 362 OFFCURVE",
"628 417 OFFCURVE",
"666 470 CURVE",
"715 454 OFFCURVE",
"753 425 OFFCURVE",
"784 388 CURVE SMOOTH",
"809 359 OFFCURVE",
"829 325 OFFCURVE",
"845 289 CURVE",
"797 285 OFFCURVE",
"764 285 OFFCURVE",
"730 286 CURVE SMOOTH",
"656 288 OFFCURVE"
);
},
{
closed = 1;
nodes = (
"895 200 OFFCURVE",
"885 231 CURVE SMOOTH",
"881 245 OFFCURVE",
"876 259 OFFCURVE",
"870 273 CURVE",
"889 276 OFFCURVE",
"907 279 OFFCURVE",
"924 282 CURVE",
"916 238 OFFCURVE",
"910 191 OFFCURVE",
"907 141 CURVE",
"902 170 OFFCURVE"
);
},
{
closed = 1;
nodes = (
"968 516 OFFCURVE",
"928 301 CURVE",
"908 297 OFFCURVE",
"886 294 OFFCURVE",
"863 291 CURVE",
"847 330 OFFCURVE",
"825 367 OFFCURVE",
"798 400 CURVE SMOOTH",
"767 437 OFFCURVE",
"727 468 OFFCURVE",
"677 486 CURVE",
"683 495 OFFCURVE",
"690 504 OFFCURVE",
"697 513 CURVE SMOOTH",
"793 644 OFFCURVE",
"887 758 OFFCURVE",
"984 843 CURVE SMOOTH",
"1082 929 OFFCURVE",
"1183 987 OFFCURVE",
"1297 1007 CURVE SMOOTH",
"1315 1010 OFFCURVE",
"1337 1012 OFFCURVE",
"1361 1013 CURVE",
"1321 985 OFFCURVE",
"1232 914 OFFCURVE",
"1143 795 CURVE SMOOTH",
"1055 678 OFFCURVE"
);
},
{
closed = 1;
nodes = (
"1577 1062 OFFCURVE",
"1578 1066 CURVE",
"1578 1067 OFFCURVE",
"1582 1087 OFFCURVE",
"1575 1109 CURVE SMOOTH",
"1568 1130 OFFCURVE",
"1551 1157 OFFCURVE",
"1503 1169 CURVE SMOOTH",
"1414 1189 OFFCURVE",
"1367 1077 OFFCURVE",
"1281 1077 CURVE SMOOTH",
"1262 1077 OFFCURVE",
"1249 1082 OFFCURVE",
"1241 1093 CURVE SMOOTH",
"1223 1117 OFFCURVE",
"1237 1160 OFFCURVE",
"1238 1161 CURVE",
"1239 1166 OFFCURVE",
"1237 1171 OFFCURVE",
"1232 1173 CURVE",
"1227 1174 OFFCURVE",
"1222 1172 OFFCURVE",
"1220 1167 CURVE",
"1220 1165 OFFCURVE",
"1203 1114 OFFCURVE",
"1226 1083 CURVE",
"1237 1067 OFFCURVE",
"1256 1059 OFFCURVE",
"1281 1059 CURVE SMOOTH",
"1373 1059 OFFCURVE",
"1425 1167 OFFCURVE",
"1499 1151 CURVE SMOOTH",
"1573 1135 OFFCURVE",
"1561 1073 OFFCURVE",
"1560 1070 CURVE",
"1559 1065 OFFCURVE",
"1562 1060 OFFCURVE",
"1567 1059 CURVE SMOOTH",
"1573 1058 OFFCURVE"
);
}
);
width = 1208;
},
{
layerId = "AF956123-A183-4F86-8774-5A4F8E572774";
width = 600;
}
);
unicode = 00C3;
},
{
glyphname = AE;
lastChange = "2018-12-14 18:07:14 +0000";
layers = (
{
layerId = master01;
paths = (
{
closed = 1;
nodes = (
"1569 83 OFFCURVE",
"1646 232 CURVE SMOOTH",
"1648 236 OFFCURVE",
"1646 242 OFFCURVE",
"1641 244 CURVE",
"1637 246 OFFCURVE",
"1631 244 OFFCURVE",
"1629 239 CURVE",
"1561 99 OFFCURVE",
"1420 18 OFFCURVE",
"1265 18 CURVE SMOOTH",
"1190 18 OFFCURVE",
"1104 52 OFFCURVE",
"1055 117 CURVE SMOOTH",
"1021 165 OFFCURVE",
"1015 223 OFFCURVE",
"1023 292 CURVE",
"1035 364 OFFCURVE",
"1069 429 OFFCURVE",
"1127 478 CURVE SMOOTH",
"1171 517 OFFCURVE",
"1226 545 OFFCURVE",
"1287 557 CURVE",
"1295 542 OFFCURVE",
"1309 526 OFFCURVE",
"1323 515 CURVE SMOOTH",
"1356 488 OFFCURVE",
"1448 462 OFFCURVE",
"1466 511 CURVE",
"1478 557 OFFCURVE",
"1430 577 OFFCURVE",
"1389 581 CURVE SMOOTH",
"1358 583 OFFCURVE",
"1328 583 OFFCURVE",
"1297 577 CURVE",
"1276 626 OFFCURVE",
"1276 685 OFFCURVE",
"1292 743 CURVE",
"1349 696 OFFCURVE",
"1414 677 OFFCURVE",
"1491 674 CURVE",
"1574 674 OFFCURVE",
"1658 711 OFFCURVE",
"1706 777 CURVE SMOOTH",
"1739 825 OFFCURVE",
"1741 897 OFFCURVE",
"1697 941 CURVE",
"1654 981 OFFCURVE",
"1590 983 OFFCURVE",
"1532 976 CURVE",
"1531 976 OFFCURVE",
"1476 968 OFFCURVE",
"1414 930 CURVE SMOOTH",
"1384 911 OFFCURVE",
"1351 884 OFFCURVE",
"1324 847 CURVE SMOOTH",
"1309 826 OFFCURVE",
"1295 803 OFFCURVE",
"1284 775 CURVE",
"1251 812 OFFCURVE",
"1228 852 OFFCURVE",
"1218 910 CURVE SMOOTH",
"1217 915 OFFCURVE",
"1214 918 OFFCURVE",
"1208 918 CURVE",
"1202 917 OFFCURVE",
"1199 913 OFFCURVE",
"1200 907 CURVE SMOOTH",
"1209 845 OFFCURVE",
"1242 793 OFFCURVE",
"1277 757 CURVE",
"1257 700 OFFCURVE",
"1256 635 OFFCURVE",
"1278 574 CURVE",
"1219 562 OFFCURVE",
"1166 534 OFFCURVE",
"1116 492 CURVE SMOOTH",
"1077 459 OFFCURVE",
"1021 397 OFFCURVE",
"1005 295 CURVE SMOOTH",
"996 230 OFFCURVE",
"1001 161 OFFCURVE",
"1042 104 CURVE SMOOTH",
"1093 37 OFFCURVE",
"1173 4 OFFCURVE",
"1265 0 CURVE",
"1430 0 OFFCURVE"
);
},
{
closed = 1;
nodes = (
"1373 500 OFFCURVE",
"1334 529 CURVE SMOOTH",
"1322 538 OFFCURVE",
"1313 549 OFFCURVE",
"1306 560 CURVE",
"1325 563 OFFCURVE",
"1350 567 OFFCURVE",
"1387 564 CURVE",
"1412 563 OFFCURVE",
"1459 549 OFFCURVE",
"1449 516 CURVE",
"1434 489 OFFCURVE"
);
},
{
closed = 1;
nodes = (
"1351 713 OFFCURVE",
"1298 762 CURVE",
"1309 790 OFFCURVE",
"1323 815 OFFCURVE",
"1338 836 CURVE",
"1382 893 OFFCURVE",
"1457 946 OFFCURVE",
"1530 957 CURVE SMOOTH",
"1590 965 OFFCURVE",
"1655 959 OFFCURVE",
"1685 928 CURVE",
"1722 894 OFFCURVE",
"1719 828 OFFCURVE",
"1691 788 CURVE",
"1643 728 OFFCURVE",
"1588 694 OFFCURVE",
"1491 692 CURVE SMOOTH",
"1423 692 OFFCURVE"
);
},
{
closed = 1;
nodes = (
"1447 1030 OFFCURVE",
"1393 1030 CURVE SMOOTH",
"1364 1030 OFFCURVE",
"1336 1028 OFFCURVE",
"1314 1024 CURVE SMOOTH",
"1197 1004 OFFCURVE",
"1093 944 OFFCURVE",
"993 857 CURVE SMOOTH",
"894 770 OFFCURVE",
"800 655 OFFCURVE",
"703 524 CURVE SMOOTH",
"695 513 OFFCURVE",
"687 502 OFFCURVE",
"680 491 CURVE",
"653 499 OFFCURVE",
"627 501 OFFCURVE",
"602 501 CURVE SMOOTH",
"563 501 OFFCURVE",
"523 496 OFFCURVE",
"495 472 CURVE SMOOTH",
"472 453 OFFCURVE",
"463 425 OFFCURVE",
"463 400 CURVE SMOOTH",
"463 384 OFFCURVE",
"467 368 OFFCURVE",
"478 353 CURVE",
"492 332 OFFCURVE",
"516 314 OFFCURVE",
"554 299 CURVE",
"525 253 OFFCURVE",
"497 209 OFFCURVE",
"469 168 CURVE SMOOTH",
"434 117 OFFCURVE",
"399 72 OFFCURVE",
"363 39 CURVE SMOOTH",
"299 -22 OFFCURVE",
"198 -54 OFFCURVE",
"125 -4 CURVE SMOOTH",
"95 18 OFFCURVE",
"80 52 OFFCURVE",
"71 81 CURVE",
"63 111 OFFCURVE",
"63 136 OFFCURVE",
"63 139 CURVE SMOOTH",
"63 140 OFFCURVE",
"63 140 OFFCURVE",
"63 140 CURVE",
"63 145 OFFCURVE",
"59 149 OFFCURVE",
"54 149 CURVE SMOOTH",
"49 149 OFFCURVE",
"45 145 OFFCURVE",
"45 140 CURVE",
"45 140 OFFCURVE",
"45 140 OFFCURVE",
"45 139 CURVE SMOOTH",
"45 133 OFFCURVE",
"46 88 OFFCURVE",
"66 43 CURVE SMOOTH",
"76 21 OFFCURVE",
"92 -1 OFFCURVE",
"115 -18 CURVE SMOOTH",
"198 -79 OFFCURVE",
"312 -34 OFFCURVE",
"375 26 CURVE SMOOTH",
"431 78 OFFCURVE",
"483 154 OFFCURVE",
"538 240 CURVE SMOOTH",
"549 258 OFFCURVE",
"560 275 OFFCURVE",
"571 293 CURVE",
"615 280 OFFCURVE",
"673 271 OFFCURVE",
"750 268 CURVE SMOOTH",
"794 266 OFFCURVE",
"833 268 OFFCURVE",
"873 271 CURVE",
"890 228 OFFCURVE",
"902 183 OFFCURVE",
"910 142 CURVE SMOOTH",
"919 93 OFFCURVE",
"925 46 OFFCURVE",
"925 0 CURVE",
"943 0 LINE",
"943 20 OFFCURVE",
"943 31 OFFCURVE",
"943 42 CURVE SMOOTH",
"943 130 OFFCURVE",
"951 211 OFFCURVE",
"964 287 CURVE",
"1084 315 OFFCURVE",
"1143 363 OFFCURVE",
"1143 364 CURVE",
"1147 367 OFFCURVE",
"1148 373 OFFCURVE",
"1145 377 CURVE SMOOTH",
"1141 382 OFFCURVE",
"1136 381 OFFCURVE",
"1132 378 CURVE",
"1132 378 OFFCURVE",
"1132 378 OFFCURVE",
"1132 378 CURVE",
"1130 376 OFFCURVE",
"1077 333 OFFCURVE",
"968 306 CURVE",
"1009 513 OFFCURVE",
"1093 671 OFFCURVE",
"1178 784 CURVE SMOOTH",
"1237 863 OFFCURVE",
"1296 920 OFFCURVE",
"1340 957 CURVE SMOOTH",
"1362 976 OFFCURVE",
"1380 990 OFFCURVE",
"1393 999 CURVE SMOOTH",
"1396 1001 OFFCURVE",
"1410 1011 OFFCURVE",
"1413 1013 CURVE",
"1459 1010 OFFCURVE",
"1510 997 OFFCURVE",
"1555 966 CURVE",
"1559 963 OFFCURVE",
"1565 963 OFFCURVE",
"1568 967 CURVE SMOOTH",
"1571 971 OFFCURVE",
"1569 977 OFFCURVE",
"1565 980 CURVE SMOOTH",
"1509 1020 OFFCURVE"
);
},
{
closed = 1;
nodes = (
"491 445 OFFCURVE",
"507 458 CURVE SMOOTH",
"533 480 OFFCURVE",
"571 484 OFFCURVE",
"602 484 CURVE SMOOTH",
"627 484 OFFCURVE",
"649 481 OFFCURVE",
"669 476 CURVE",
"631 422 OFFCURVE",
"597 367 OFFCURVE",
"564 315 CURVE",
"525 330 OFFCURVE",
"481 356 OFFCURVE",
"481 400 CURVE SMOOTH",
"481 423 OFFCURVE"
);
},
{
closed = 1;
nodes = (
"622 297 OFFCURVE",
"581 309 CURVE",
"615 362 OFFCURVE",
"649 417 OFFCURVE",
"687 470 CURVE",
"736 454 OFFCURVE",
"774 425 OFFCURVE",
"805 388 CURVE SMOOTH",
"830 359 OFFCURVE",
"850 325 OFFCURVE",
"866 289 CURVE",
"818 285 OFFCURVE",
"785 285 OFFCURVE",
"751 286 CURVE SMOOTH",
"677 288 OFFCURVE"
);
},
{
closed = 1;
nodes = (
"916 200 OFFCURVE",
"906 231 CURVE SMOOTH",
"902 245 OFFCURVE",
"897 259 OFFCURVE",
"891 273 CURVE",
"910 276 OFFCURVE",
"928 279 OFFCURVE",
"945 282 CURVE",
"937 238 OFFCURVE",
"931 191 OFFCURVE",
"928 141 CURVE",
"923 170 OFFCURVE"
);
},
{
closed = 1;
nodes = (
"989 516 OFFCURVE",
"949 301 CURVE",
"929 297 OFFCURVE",
"907 294 OFFCURVE",
"884 291 CURVE",
"868 330 OFFCURVE",
"846 367 OFFCURVE",
"819 400 CURVE SMOOTH",
"788 437 OFFCURVE",
"748 468 OFFCURVE",
"698 486 CURVE",
"704 495 OFFCURVE",
"711 504 OFFCURVE",
"718 513 CURVE SMOOTH",
"814 644 OFFCURVE",
"908 758 OFFCURVE",
"1005 843 CURVE SMOOTH",
"1103 929 OFFCURVE",
"1204 987 OFFCURVE",
"1318 1007 CURVE SMOOTH",
"1336 1010 OFFCURVE",
"1358 1012 OFFCURVE",
"1382 1013 CURVE",
"1342 985 OFFCURVE",
"1253 914 OFFCURVE",
"1164 795 CURVE SMOOTH",
"1076 678 OFFCURVE"
);
}
);
width = 1762;
},
{
layerId = "AF956123-A183-4F86-8774-5A4F8E572774";
width = 600;
}
);
unicode = 00C6;
},
{
glyphname = B;
lastChange = "2018-12-14 18:07:14 +0000";
layers = (
{
layerId = master01;
paths = (
{
closed = 1;
nodes = (
"992 1016 OFFCURVE",
"940 1018 CURVE SMOOTH",
"873 1021 OFFCURVE",
"805 1008 OFFCURVE",
"747 977 CURVE SMOOTH",
"716 960 OFFCURVE",
"687 939 OFFCURVE",
"660 914 CURVE",
"654 915 OFFCURVE",
"642 915 OFFCURVE",
"634 915 CURVE SMOOTH",
"502 915 OFFCURVE",
"403 868 OFFCURVE",
"337 822 CURVE SMOOTH",
"271 775 OFFCURVE",
"238 728 OFFCURVE",
"237 728 CURVE",
"234 724 OFFCURVE",
"235 718 OFFCURVE",
"239 715 CURVE SMOOTH",
"243 712 OFFCURVE",
"249 713 OFFCURVE",
"252 717 CURVE SMOOTH",
"276 749 OFFCURVE",
"316 785 OFFCURVE",
"350 809 CURVE SMOOTH",
"414 853 OFFCURVE",
"509 897 OFFCURVE",
"634 897 CURVE SMOOTH",
"636 897 OFFCURVE",
"639 897 OFFCURVE",
"641 897 CURVE",
"607 864 OFFCURVE",
"575 825 OFFCURVE",
"544 782 CURVE SMOOTH",
"481 696 OFFCURVE",
"420 593 OFFCURVE",
"354 481 CURVE SMOOTH",
"276 351 OFFCURVE",
"215 227 OFFCURVE",
"154 134 CURVE SMOOTH",
"123 87 OFFCURVE",
"92 49 OFFCURVE",
"58 20 CURVE SMOOTH",
"25 -8 OFFCURVE",
"-10 -26 OFFCURVE",
"-49 -30 CURVE",
"-81 -35 OFFCURVE",
"-114 -30 OFFCURVE",
"-139 -8 CURVE SMOOTH",
"-156 6 OFFCURVE",
"-166 24 OFFCURVE",
"-170 43 CURVE SMOOTH",
"-171 48 OFFCURVE",
"-176 51 OFFCURVE",
"-181 50 CURVE SMOOTH",
"-186 49 OFFCURVE",
"-189 44 OFFCURVE",
"-188 39 CURVE",
"-182 17 OFFCURVE",
"-171 -5 OFFCURVE",
"-151 -22 CURVE SMOOTH",
"-122 -48 OFFCURVE",
"-82 -53 OFFCURVE",
"-47 -48 CURVE SMOOTH",
"-3 -43 OFFCURVE",
"35 -23 OFFCURVE",
"70 7 CURVE SMOOTH",
"123 51 OFFCURVE",
"168 119 OFFCURVE",
"216 200 CURVE SMOOTH",
"263 281 OFFCURVE",
"312 375 OFFCURVE",
"369 472 CURVE SMOOTH",
"458 621 OFFCURVE",
"536 754 OFFCURVE",
"621 849 CURVE SMOOTH",
"636 866 OFFCURVE",
"651 882 OFFCURVE",
"666 896 CURVE",
"683 895 OFFCURVE",
"700 893 OFFCURVE",
"718 890 CURVE SMOOTH",
"820 875 OFFCURVE",
"877 840 OFFCURVE",
"909 801 CURVE SMOOTH",
"941 762 OFFCURVE",
"949 718 OFFCURVE",
"949 685 CURVE SMOOTH",
"949 664 OFFCURVE",
"947 651 OFFCURVE",
"943 635 CURVE",
"942 633 OFFCURVE",
"934 597 OFFCURVE",
"902 562 CURVE SMOOTH",
"879 537 OFFCURVE",
"843 512 OFFCURVE",
"787 500 CURVE",
"746 532 OFFCURVE",
"707 553 OFFCURVE",
"676 564 CURVE SMOOTH",
"661 569 OFFCURVE",
"641 573 OFFCURVE",
"623 573 CURVE SMOOTH",
"598 573 OFFCURVE",
"569 558 OFFCURVE",
"569 530 CURVE SMOOTH",
"569 497 OFFCURVE",
"619 485 OFFCURVE",
"644 481 CURVE SMOOTH",
"691 473 OFFCURVE",
"739 474 OFFCURVE",
"783 481 CURVE",
"786 477 OFFCURVE",
"790 474 OFFCURVE",
"794 471 CURVE",
"817 450 OFFCURVE",
"842 425 OFFCURVE",
"857 393 CURVE SMOOTH",
"890 324 OFFCURVE",
"892 240 OFFCURVE",
"851 158 CURVE SMOOTH",
"795 48 OFFCURVE",
"695 -10 OFFCURVE",
"584 -10 CURVE SMOOTH",
"514 -10 OFFCURVE",
"429 7 OFFCURVE",
"381 55 CURVE",
"334 107 OFFCURVE",
"325 161 OFFCURVE",
"325 197 CURVE SMOOTH",
"325 210 OFFCURVE",
"326 220 OFFCURVE",
"328 230 CURVE",
"329 234 OFFCURVE",
"329 240 OFFCURVE",
"322 242 CURVE",
"316 244 OFFCURVE",
"312 240 OFFCURVE",
"311 235 CURVE",
"311 234 OFFCURVE",
"307 220 OFFCURVE",
"307 197 CURVE SMOOTH",
"307 34 OFFCURVE",
"442 -28 OFFCURVE",
"584 -28 CURVE SMOOTH",
"710 -28 OFFCURVE",
"813 43 OFFCURVE",
"867 150 CURVE SMOOTH",
"911 238 OFFCURVE",
"910 332 OFFCURVE",
"871 405 CURVE SMOOTH",
"854 437 OFFCURVE",
"829 464 OFFCURVE",
"804 485 CURVE",
"818 489 OFFCURVE",
"831 494 OFFCURVE",
"842 499 CURVE SMOOTH",
"892 520 OFFCURVE",
"921 553 OFFCURVE",
"938 581 CURVE SMOOTH",
"954 606 OFFCURVE",
"959 627 OFFCURVE",
"960 630 CURVE SMOOTH",
"961 633 OFFCURVE",
"967 659 OFFCURVE",
"967 685 CURVE SMOOTH",
"967 721 OFFCURVE",
"959 769 OFFCURVE",
"923 812 CURVE SMOOTH",
"888 855 OFFCURVE",
"826 892 OFFCURVE",
"721 908 CURVE SMOOTH",
"709 910 OFFCURVE",
"697 911 OFFCURVE",
"685 912 CURVE",
"708 931 OFFCURVE",
"731 948 OFFCURVE",
"755 961 CURVE SMOOTH",
"813 993 OFFCURVE",
"874 1001 OFFCURVE",
"938 1000 CURVE SMOOTH",
"986 999 OFFCURVE",
"1044 974 OFFCURVE",
"1062 936 CURVE SMOOTH",
"1064 932 OFFCURVE",
"1070 930 OFFCURVE",
"1074 932 CURVE",
"1079 934 OFFCURVE",
"1080 940 OFFCURVE",
"1078 944 CURVE SMOOTH",
"1056 992 OFFCURVE"
);
},
{
closed = 1;
nodes = (
"645 498 OFFCURVE",
"623 504 CURVE SMOOTH",
"610 508 OFFCURVE",
"587 515 OFFCURVE",
"587 530 CURVE SMOOTH",
"587 546 OFFCURVE",
"607 557 OFFCURVE",
"624 557 CURVE SMOOTH",
"639 557 OFFCURVE",
"657 553 OFFCURVE",
"672 548 CURVE SMOOTH",
"701 538 OFFCURVE",
"723 523 OFFCURVE",
"763 496 CURVE",
"749 494 OFFCURVE",
"733 493 OFFCURVE",
"716 493 CURVE SMOOTH",
"662 494 OFFCURVE"
);
}
);
width = 995;
},
{
layerId = "AF956123-A183-4F86-8774-5A4F8E572774";
width = 600;
}
);
unicode = 0042;
},
{
glyphname = C;
lastChange = "2018-12-14 18:07:14 +0000";
layers = (
{
layerId = master01;
paths = (
{
closed = 1;
nodes = (
"230 -31 OFFCURVE",
"258 -31 CURVE SMOOTH",
"315 -31 OFFCURVE",
"367 -16 OFFCURVE",
"421 14 CURVE SMOOTH",
"479 48 OFFCURVE",
"556 111 OFFCURVE",
"631 227 CURVE",
"634 231 OFFCURVE",
"633 237 OFFCURVE",
"629 240 CURVE",
"625 242 OFFCURVE",
"619 241 OFFCURVE",
"616 237 CURVE",
"542 123 OFFCURVE",
"468 62 OFFCURVE",
"412 30 CURVE",
"362 -1 OFFCURVE",
"317 -11 OFFCURVE",
"258 -13 CURVE SMOOTH",
"222 -13 OFFCURVE",
"178 -7 OFFCURVE",
"141 17 CURVE SMOOTH",
"84 54 OFFCURVE",
"61 121 OFFCURVE",
"59 190 CURVE",
"59 258 OFFCURVE",
"84 333 OFFCURVE",
"126 409 CURVE SMOOTH",
"190 522 OFFCURVE",
"291 636 OFFCURVE",
"402 728 CURVE SMOOTH",
"420 742 OFFCURVE",
"437 756 OFFCURVE",
"455 770 CURVE",
"468 752 OFFCURVE",
"485 735 OFFCURVE",
"506 720 CURVE SMOOTH",
"537 698 OFFCURVE",
"576 679 OFFCURVE",
"627 670 CURVE SMOOTH",
"648 666 OFFCURVE",
"668 665 OFFCURVE",
"687 665 CURVE SMOOTH",
"759 666 OFFCURVE",
"812 690 OFFCURVE",
"847 715 CURVE SMOOTH",
"880 739 OFFCURVE",
"894 760 OFFCURVE",
"898 766 CURVE",
"914 787 OFFCURVE",
"926 819 OFFCURVE",
"926 850 CURVE SMOOTH",
"926 862 OFFCURVE",
"924 874 OFFCURVE",
"920 885 CURVE SMOOTH",
"914 902 OFFCURVE",
"903 917 OFFCURVE",
"886 928 CURVE",
"868 938 OFFCURVE",
"845 944 OFFCURVE",
"814 944 CURVE SMOOTH",
"790 944 OFFCURVE",
"762 940 OFFCURVE",
"728 932 CURVE SMOOTH",
"659 914 OFFCURVE",
"582 877 OFFCURVE",
"505 827 CURVE SMOOTH",
"490 817 OFFCURVE",
"474 806 OFFCURVE",
"459 795 CURVE",
"438 823 OFFCURVE",
"424 859 OFFCURVE",
"417 895 CURVE SMOOTH",
"416 900 OFFCURVE",
"415 905 OFFCURVE",
"407 904 CURVE",
"401 903 OFFCURVE",
"399 899 OFFCURVE",
"400 894 CURVE",
"406 852 OFFCURVE",
"423 814 OFFCURVE",
"444 784 CURVE",
"350 714 OFFCURVE",
"259 626 OFFCURVE",
"187 532 CURVE SMOOTH",
"100 419 OFFCURVE",
"41 298 OFFCURVE",
"41 190 CURVE SMOOTH",
"41 105 OFFCURVE",
"79 19 OFFCURVE",
"163 -14 CURVE SMOOTH",
"196 -27 OFFCURVE"
);
},
{
closed = 1;
nodes = (
"482 764 OFFCURVE",
"469 780 CURVE",
"560 846 OFFCURVE",
"653 894 OFFCURVE",
"732 914 CURVE SMOOTH",
"765 923 OFFCURVE",
"792 926 OFFCURVE",
"814 926 CURVE SMOOTH",
"833 926 OFFCURVE",
"848 924 OFFCURVE",
"860 920 CURVE",
"878 913 OFFCURVE",
"890 903 OFFCURVE",
"897 892 CURVE SMOOTH",
"905 880 OFFCURVE",
"908 866 OFFCURVE",
"908 850 CURVE SMOOTH",
"908 823 OFFCURVE",
"897 794 OFFCURVE",
"884 776 CURVE",
"883 775 OFFCURVE",
"867 752 OFFCURVE",
"835 728 CURVE SMOOTH",
"802 705 OFFCURVE",
"754 683 OFFCURVE",
"687 683 CURVE SMOOTH",
"669 683 OFFCURVE",
"650 684 OFFCURVE",
"630 688 CURVE SMOOTH",
"582 696 OFFCURVE",
"545 714 OFFCURVE",
"516 735 CURVE SMOOTH",
"497 749 OFFCURVE"
);
}
);
width = 738;
},
{
layerId = "AF956123-A183-4F86-8774-5A4F8E572774";
width = 600;
}
);
unicode = 0043;
},
{
glyphname = Ccedilla;
lastChange = "2018-12-14 18:07:14 +0000";
layers = (
{
layerId = master01;
paths = (
{
closed = 1;
nodes = (
"230 -31 OFFCURVE",
"258 -31 CURVE SMOOTH",
"315 -31 OFFCURVE",
"367 -16 OFFCURVE",
"421 14 CURVE SMOOTH",
"479 48 OFFCURVE",
"556 111 OFFCURVE",
"631 227 CURVE",
"634 231 OFFCURVE",
"633 237 OFFCURVE",
"629 240 CURVE",
"625 242 OFFCURVE",
"619 241 OFFCURVE",
"616 237 CURVE",
"542 123 OFFCURVE",
"468 62 OFFCURVE",
"412 30 CURVE",
"362 -1 OFFCURVE",
"317 -11 OFFCURVE",
"258 -13 CURVE SMOOTH",
"222 -13 OFFCURVE",
"178 -7 OFFCURVE",
"141 17 CURVE SMOOTH",
"84 54 OFFCURVE",
"61 121 OFFCURVE",
"59 190 CURVE",
"59 258 OFFCURVE",
"84 333 OFFCURVE",
"126 409 CURVE SMOOTH",
"190 522 OFFCURVE",
"291 636 OFFCURVE",
"402 728 CURVE SMOOTH",
"420 742 OFFCURVE",
"437 756 OFFCURVE",
"455 770 CURVE",
"468 752 OFFCURVE",
"485 735 OFFCURVE",
"506 720 CURVE SMOOTH",
"537 698 OFFCURVE",
"576 679 OFFCURVE",
"627 670 CURVE SMOOTH",
"648 666 OFFCURVE",
"668 665 OFFCURVE",
"687 665 CURVE SMOOTH",
"759 666 OFFCURVE",
"812 690 OFFCURVE",
"847 715 CURVE SMOOTH",
"880 739 OFFCURVE",
"894 760 OFFCURVE",
"898 766 CURVE",
"914 787 OFFCURVE",
"926 819 OFFCURVE",
"926 850 CURVE SMOOTH",
"926 862 OFFCURVE",
"924 874 OFFCURVE",
"920 885 CURVE SMOOTH",
"914 902 OFFCURVE",
"903 917 OFFCURVE",
"886 928 CURVE",
"868 938 OFFCURVE",
"845 944 OFFCURVE",
"814 944 CURVE SMOOTH",
"790 944 OFFCURVE",
"762 940 OFFCURVE",
"728 932 CURVE SMOOTH",
"659 914 OFFCURVE",
"582 877 OFFCURVE",
"505 827 CURVE SMOOTH",
"490 817 OFFCURVE",
"474 806 OFFCURVE",
"459 795 CURVE",
"438 823 OFFCURVE",
"424 859 OFFCURVE",
"417 895 CURVE SMOOTH",
"416 900 OFFCURVE",
"415 905 OFFCURVE",
"407 904 CURVE",
"401 903 OFFCURVE",
"399 899 OFFCURVE",
"400 894 CURVE",
"406 852 OFFCURVE",
"423 814 OFFCURVE",
"444 784 CURVE",
"350 714 OFFCURVE",
"259 626 OFFCURVE",
"187 532 CURVE SMOOTH",
"100 419 OFFCURVE",
"41 298 OFFCURVE",
"41 190 CURVE SMOOTH",
"41 105 OFFCURVE",
"79 19 OFFCURVE",
"163 -14 CURVE SMOOTH",
"196 -27 OFFCURVE"
);
},
{
closed = 1;
nodes = (
"482 764 OFFCURVE",
"469 780 CURVE",
"560 846 OFFCURVE",
"653 894 OFFCURVE",
"732 914 CURVE SMOOTH",
"765 923 OFFCURVE",
"792 926 OFFCURVE",
"814 926 CURVE SMOOTH",
"833 926 OFFCURVE",
"848 924 OFFCURVE",
"860 920 CURVE",
"878 913 OFFCURVE",
"890 903 OFFCURVE",
"897 892 CURVE SMOOTH",
"905 880 OFFCURVE",
"908 866 OFFCURVE",
"908 850 CURVE SMOOTH",
"908 823 OFFCURVE",
"897 794 OFFCURVE",
"884 776 CURVE",
"883 775 OFFCURVE",
"867 752 OFFCURVE",
"835 728 CURVE SMOOTH",
"802 705 OFFCURVE",
"754 683 OFFCURVE",
"687 683 CURVE SMOOTH",
"669 683 OFFCURVE",
"650 684 OFFCURVE",
"630 688 CURVE SMOOTH",
"582 696 OFFCURVE",
"545 714 OFFCURVE",
"516 735 CURVE SMOOTH",
"497 749 OFFCURVE"
);
},
{
closed = 1;
nodes = (
"195 -227 OFFCURVE",
"219 -191 CURVE SMOOTH",
"235 -168 OFFCURVE",
"238 -148 OFFCURVE",
"230 -130 CURVE SMOOTH",
"217 -101 OFFCURVE",
"175 -89 OFFCURVE",
"152 -85 CURVE",
"199 -26 LINE SMOOTH",
"202 -22 OFFCURVE",
"202 -17 OFFCURVE",
"198 -14 CURVE",
"194 -10 OFFCURVE",
"188 -11 OFFCURVE",
"185 -15 CURVE",
"128 -85 LINE",
"125 -89 OFFCURVE",
"125 -99 OFFCURVE",
"134 -100 CURVE SMOOTH",
"152 -102 OFFCURVE",
"202 -112 OFFCURVE",
"214 -137 CURVE",
"219 -149 OFFCURVE",
"216 -163 OFFCURVE",
"204 -180 CURVE SMOOTH",
"171 -229 OFFCURVE",
"113 -237 OFFCURVE",
"27 -206 CURVE",
"23 -204 OFFCURVE",
"17 -206 OFFCURVE",
"16 -211 CURVE",
"14 -216 OFFCURVE",
"16 -220 OFFCURVE",
"21 -222 CURVE",
"143 -265 OFFCURVE"
);
}
);
width = 738;
},
{
layerId = "AF956123-A183-4F86-8774-5A4F8E572774";
width = 600;
}
);
unicode = 00C7;
},
{
glyphname = D;
lastChange = "2018-12-14 18:07:14 +0000";
layers = (
{
layerId = master01;
paths = (
{
closed = 1;
nodes = (
"1047 968 OFFCURVE",
"975 968 CURVE SMOOTH",
"907 968 OFFCURVE",
"847 952 OFFCURVE",
"791 925 CURVE SMOOTH",
"764 912 OFFCURVE",
"737 895 OFFCURVE",
"712 877 CURVE",
"587 926 OFFCURVE",
"424 939 OFFCURVE",
"342 817 CURVE SMOOTH",
"269 710 OFFCURVE",
"354 614 OFFCURVE",
"467 596 CURVE",
"440 554 OFFCURVE",
"412 511 OFFCURVE",
"385 468 CURVE SMOOTH",
"304 340 OFFCURVE",
"244 216 OFFCURVE",
"185 122 CURVE SMOOTH",
"155 75 OFFCURVE",
"125 36 OFFCURVE",
"93 7 CURVE SMOOTH",
"60 -22 OFFCURVE",
"26 -39 OFFCURVE",
"-13 -44 CURVE SMOOTH",
"-46 -49 OFFCURVE",
"-78 -43 OFFCURVE",
"-104 -22 CURVE",
"-120 -8 OFFCURVE",
"-130 11 OFFCURVE",
"-134 30 CURVE",
"-135 34 OFFCURVE",
"-140 37 OFFCURVE",
"-145 36 CURVE SMOOTH",
"-150 35 OFFCURVE",
"-153 30 OFFCURVE",
"-152 25 CURVE",
"-146 3 OFFCURVE",
"-135 -19 OFFCURVE",
"-115 -36 CURVE SMOOTH",
"-86 -62 OFFCURVE",
"-46 -67 OFFCURVE",
"-11 -62 CURVE SMOOTH",
"33 -57 OFFCURVE",
"71 -37 OFFCURVE",
"105 -6 CURVE SMOOTH",
"156 39 OFFCURVE",
"199 108 OFFCURVE",
"245 189 CURVE SMOOTH",
"292 270 OFFCURVE",
"340 363 OFFCURVE",
"400 459 CURVE SMOOTH",
"429 504 OFFCURVE",
"458 550 OFFCURVE",
"487 593 CURVE",
"562 587 OFFCURVE",
"633 611 OFFCURVE",
"693 654 CURVE SMOOTH",
"736 685 OFFCURVE",
"762 715 OFFCURVE",
"762 716 CURVE",
"765 719 OFFCURVE",
"764 725 OFFCURVE",
"761 728 CURVE",
"757 731 OFFCURVE",
"751 731 OFFCURVE",
"748 727 CURVE",
"727 704 OFFCURVE",
"704 683 OFFCURVE",
"679 666 CURVE SMOOTH",
"623 626 OFFCURVE",
"563 610 OFFCURVE",
"499 610 CURVE",
"547 681 OFFCURVE",
"597 746 OFFCURVE",
"651 800 CURVE SMOOTH",
"672 820 OFFCURVE",
"693 839 OFFCURVE",
"715 856 CURVE",
"787 825 OFFCURVE",
"837 782 OFFCURVE",
"871 731 CURVE SMOOTH",
"913 667 OFFCURVE",
"930 590 OFFCURVE",
"930 513 CURVE SMOOTH",
"930 443 OFFCURVE",
"916 372 OFFCURVE",
"897 311 CURVE SMOOTH",
"861 194 OFFCURVE",
"792 84 OFFCURVE",
"685 28 CURVE SMOOTH",
"635 2 OFFCURVE",
"586 -8 OFFCURVE",
"543 -8 CURVE SMOOTH",
"468 -8 OFFCURVE",
"399 23 OFFCURVE",
"366 90 CURVE SMOOTH",
"345 134 OFFCURVE",
"349 208 OFFCURVE",
"401 238 CURVE SMOOTH",
"417 247 OFFCURVE",
"436 253 OFFCURVE",
"463 253 CURVE SMOOTH",
"493 253 OFFCURVE",
"531 246 OFFCURVE",
"580 226 CURVE SMOOTH",
"585 224 OFFCURVE",
"590 227 OFFCURVE",
"592 231 CURVE",
"594 236 OFFCURVE",
"591 241 OFFCURVE",
"587 243 CURVE",
"536 263 OFFCURVE",
"496 271 OFFCURVE",
"463 271 CURVE SMOOTH",
"433 271 OFFCURVE",
"408 263 OFFCURVE",
"389 252 CURVE SMOOTH",
"318 210 OFFCURVE",
"333 115 OFFCURVE",
"350 82 CURVE SMOOTH",
"386 6 OFFCURVE",
"465 -26 OFFCURVE",
"543 -26 CURVE SMOOTH",
"588 -26 OFFCURVE",
"640 -16 OFFCURVE",
"693 12 CURVE SMOOTH",
"809 73 OFFCURVE",
"876 188 OFFCURVE",
"914 305 CURVE SMOOTH",
"934 368 OFFCURVE",
"948 440 OFFCURVE",
"948 513 CURVE SMOOTH",
"948 593 OFFCURVE",
"931 673 OFFCURVE",
"886 741 CURVE SMOOTH",
"852 792 OFFCURVE",
"802 837 OFFCURVE",
"732 868 CURVE",
"753 884 OFFCURVE",
"776 897 OFFCURVE",
"799 909 CURVE SMOOTH",
"852 935 OFFCURVE",
"910 950 OFFCURVE",
"975 950 CURVE SMOOTH",
"1047 950 OFFCURVE",
"1119 930 OFFCURVE",
"1148 866 CURVE",
"1150 861 OFFCURVE",
"1155 859 OFFCURVE",
"1160 861 CURVE",
"1164 863 OFFCURVE",
"1166 868 OFFCURVE",
"1164 873 CURVE SMOOTH",
"1132 948 OFFCURVE"
);
},
{
closed = 1;
nodes = (
"508 657 OFFCURVE",
"479 613 CURVE",
"349 636 OFFCURVE",
"286 736 OFFCURVE",
"378 833 CURVE SMOOTH",
"458 918 OFFCURVE",
"594 901 OFFCURVE",
"696 864 CURVE",
"651 828 OFFCURVE",
"610 785 OFFCURVE",
"571 737 CURVE SMOOTH",
"539 699 OFFCURVE"
);
}
);
width = 1008;
},
{
layerId = "AF956123-A183-4F86-8774-5A4F8E572774";
width = 600;
}
);
unicode = 0044;
},
{
glyphname = Eth;
lastChange = "2018-12-14 18:07:14 +0000";
layers = (
{
layerId = master01;
paths = (
{
closed = 1;
nodes = (
"1047 968 OFFCURVE",
"975 968 CURVE SMOOTH",
"907 968 OFFCURVE",
"847 952 OFFCURVE",
"791 925 CURVE SMOOTH",
"764 912 OFFCURVE",
"737 895 OFFCURVE",
"712 877 CURVE",
"587 926 OFFCURVE",
"424 939 OFFCURVE",
"342 817 CURVE SMOOTH",
"269 710 OFFCURVE",
"354 614 OFFCURVE",
"467 596 CURVE",
"440 554 OFFCURVE",
"412 511 OFFCURVE",
"385 468 CURVE SMOOTH",
"304 340 OFFCURVE",
"244 216 OFFCURVE",
"185 122 CURVE SMOOTH",
"155 75 OFFCURVE",
"125 36 OFFCURVE",
"93 7 CURVE SMOOTH",
"60 -22 OFFCURVE",
"26 -39 OFFCURVE",
"-13 -44 CURVE SMOOTH",
"-46 -49 OFFCURVE",
"-78 -43 OFFCURVE",
"-104 -22 CURVE",
"-120 -8 OFFCURVE",
"-130 11 OFFCURVE",
"-134 30 CURVE",
"-135 34 OFFCURVE",
"-140 37 OFFCURVE",
"-145 36 CURVE SMOOTH",
"-150 35 OFFCURVE",
"-153 30 OFFCURVE",
"-152 25 CURVE",
"-146 3 OFFCURVE",
"-135 -19 OFFCURVE",
"-115 -36 CURVE SMOOTH",
"-86 -62 OFFCURVE",
"-46 -67 OFFCURVE",
"-11 -62 CURVE SMOOTH",
"33 -57 OFFCURVE",
"71 -37 OFFCURVE",
"105 -6 CURVE SMOOTH",
"156 39 OFFCURVE",
"199 108 OFFCURVE",
"245 189 CURVE SMOOTH",
"292 270 OFFCURVE",
"340 363 OFFCURVE",
"400 459 CURVE SMOOTH",
"429 504 OFFCURVE",
"458 550 OFFCURVE",
"487 593 CURVE",
"562 587 OFFCURVE",
"633 611 OFFCURVE",
"693 654 CURVE SMOOTH",
"736 685 OFFCURVE",
"762 715 OFFCURVE",
"762 716 CURVE",
"765 719 OFFCURVE",
"764 725 OFFCURVE",
"761 728 CURVE",
"757 731 OFFCURVE",
"751 731 OFFCURVE",
"748 727 CURVE",
"727 704 OFFCURVE",
"704 683 OFFCURVE",
"679 666 CURVE SMOOTH",
"623 626 OFFCURVE",
"563 610 OFFCURVE",
"499 610 CURVE",
"547 681 OFFCURVE",
"597 746 OFFCURVE",
"651 800 CURVE SMOOTH",
"672 820 OFFCURVE",
"693 839 OFFCURVE",
"715 856 CURVE",
"787 825 OFFCURVE",
"837 782 OFFCURVE",
"871 731 CURVE SMOOTH",
"913 667 OFFCURVE",
"930 590 OFFCURVE",
"930 513 CURVE SMOOTH",
"930 443 OFFCURVE",
"916 372 OFFCURVE",
"897 311 CURVE SMOOTH",
"861 194 OFFCURVE",
"792 84 OFFCURVE",
"685 28 CURVE SMOOTH",
"635 2 OFFCURVE",
"586 -8 OFFCURVE",
"543 -8 CURVE SMOOTH",
"468 -8 OFFCURVE",
"399 23 OFFCURVE",
"366 90 CURVE SMOOTH",
"345 134 OFFCURVE",
"349 208 OFFCURVE",
"401 238 CURVE SMOOTH",
"417 247 OFFCURVE",
"436 253 OFFCURVE",
"463 253 CURVE SMOOTH",
"493 253 OFFCURVE",
"531 246 OFFCURVE",
"580 226 CURVE SMOOTH",
"585 224 OFFCURVE",
"590 227 OFFCURVE",
"592 231 CURVE",
"594 236 OFFCURVE",
"591 241 OFFCURVE",
"587 243 CURVE",
"536 263 OFFCURVE",
"496 271 OFFCURVE",
"463 271 CURVE SMOOTH",
"433 271 OFFCURVE",
"408 263 OFFCURVE",
"389 252 CURVE SMOOTH",
"318 210 OFFCURVE",
"333 115 OFFCURVE",
"350 82 CURVE SMOOTH",
"386 6 OFFCURVE",
"465 -26 OFFCURVE",
"543 -26 CURVE SMOOTH",
"588 -26 OFFCURVE",
"640 -16 OFFCURVE",
"693 12 CURVE SMOOTH",
"809 73 OFFCURVE",
"876 188 OFFCURVE",
"914 305 CURVE SMOOTH",
"934 368 OFFCURVE",
"948 440 OFFCURVE",
"948 513 CURVE SMOOTH",
"948 593 OFFCURVE",
"931 673 OFFCURVE",
"886 741 CURVE SMOOTH",
"852 792 OFFCURVE",
"802 837 OFFCURVE",
"732 868 CURVE",
"753 884 OFFCURVE",
"776 897 OFFCURVE",
"799 909 CURVE SMOOTH",
"852 935 OFFCURVE",
"910 950 OFFCURVE",
"975 950 CURVE SMOOTH",
"1047 950 OFFCURVE",
"1119 930 OFFCURVE",
"1148 866 CURVE",
"1150 861 OFFCURVE",
"1155 859 OFFCURVE",
"1160 861 CURVE",
"1164 863 OFFCURVE",
"1166 868 OFFCURVE",
"1164 873 CURVE SMOOTH",
"1132 948 OFFCURVE"
);
},
{
closed = 1;
nodes = (
"508 657 OFFCURVE",
"479 613 CURVE",
"349 636 OFFCURVE",
"286 736 OFFCURVE",
"378 833 CURVE SMOOTH",
"458 918 OFFCURVE",
"594 901 OFFCURVE",
"696 864 CURVE",
"651 828 OFFCURVE",
"610 785 OFFCURVE",
"571 737 CURVE SMOOTH",
"539 699 OFFCURVE"
);
},
{
closed = 1;
nodes = (
"649 529 OFFCURVE",
"650 533 OFFCURVE",
"648 538 CURVE SMOOTH",
"646 543 OFFCURVE",
"640 545 OFFCURVE",
"636 542 CURVE",
"88 286 LINE SMOOTH",
"84 284 OFFCURVE",
"81 278 OFFCURVE",
"84 274 CURVE",
"86 270 OFFCURVE",
"91 267 OFFCURVE",
"96 270 CURVE",
"644 526 LINE"
);
}
);
width = 1008;
},
{
layerId = "AF956123-A183-4F86-8774-5A4F8E572774";
width = 600;
}
);
unicode = 00D0;
},
{
glyphname = E;
lastChange = "2018-12-14 18:07:14 +0000";
layers = (
{
layerId = master01;
paths = (
{
closed = 1;
nodes = (
"672 69 OFFCURVE",
"749 218 CURVE SMOOTH",
"751 222 OFFCURVE",
"749 228 OFFCURVE",
"744 230 CURVE",
"740 232 OFFCURVE",
"734 230 OFFCURVE",
"732 225 CURVE",
"664 85 OFFCURVE",
"523 4 OFFCURVE",
"368 4 CURVE SMOOTH",
"293 4 OFFCURVE",
"207 38 OFFCURVE",
"158 103 CURVE SMOOTH",
"124 151 OFFCURVE",
"118 209 OFFCURVE",
"126 278 CURVE",
"138 350 OFFCURVE",
"172 415 OFFCURVE",
"230 464 CURVE SMOOTH",
"274 503 OFFCURVE",
"329 531 OFFCURVE",
"390 543 CURVE",
"398 528 OFFCURVE",
"412 512 OFFCURVE",
"426 501 CURVE SMOOTH",
"459 474 OFFCURVE",
"551 448 OFFCURVE",
"569 497 CURVE",
"581 543 OFFCURVE",
"533 563 OFFCURVE",
"492 567 CURVE SMOOTH",
"461 569 OFFCURVE",
"431 569 OFFCURVE",
"400 563 CURVE",
"379 612 OFFCURVE",
"379 671 OFFCURVE",
"395 729 CURVE",
"452 682 OFFCURVE",
"517 663 OFFCURVE",
"594 660 CURVE",
"677 660 OFFCURVE",
"761 697 OFFCURVE",
"809 763 CURVE SMOOTH",
"842 811 OFFCURVE",
"844 883 OFFCURVE",
"800 927 CURVE",
"757 967 OFFCURVE",
"693 969 OFFCURVE",
"635 962 CURVE",
"634 962 OFFCURVE",
"579 954 OFFCURVE",
"517 916 CURVE SMOOTH",
"487 897 OFFCURVE",
"454 870 OFFCURVE",
"427 833 CURVE SMOOTH",
"412 812 OFFCURVE",
"398 789 OFFCURVE",
"387 761 CURVE",
"354 798 OFFCURVE",
"331 838 OFFCURVE",
"321 896 CURVE SMOOTH",
"320 901 OFFCURVE",
"317 904 OFFCURVE",
"311 904 CURVE",
"305 903 OFFCURVE",
"302 899 OFFCURVE",
"303 893 CURVE SMOOTH",
"312 831 OFFCURVE",
"345 779 OFFCURVE",
"380 743 CURVE",
"360 686 OFFCURVE",
"359 621 OFFCURVE",
"381 560 CURVE",
"322 548 OFFCURVE",
"269 520 OFFCURVE",
"219 478 CURVE SMOOTH",
"180 445 OFFCURVE",
"124 383 OFFCURVE",
"108 281 CURVE SMOOTH",
"99 216 OFFCURVE",
"104 147 OFFCURVE",
"145 90 CURVE SMOOTH",
"196 23 OFFCURVE",
"276 -10 OFFCURVE",
"368 -14 CURVE",
"533 -14 OFFCURVE"
);
},
{
closed = 1;
nodes = (
"476 486 OFFCURVE",
"437 515 CURVE SMOOTH",
"425 524 OFFCURVE",
"416 535 OFFCURVE",
"409 546 CURVE",
"428 549 OFFCURVE",
"453 553 OFFCURVE",
"490 550 CURVE",
"515 549 OFFCURVE",
"562 535 OFFCURVE",
"552 502 CURVE",
"537 475 OFFCURVE"
);
},
{
closed = 1;
nodes = (
"454 699 OFFCURVE",
"401 748 CURVE",
"412 776 OFFCURVE",
"426 801 OFFCURVE",
"441 822 CURVE",
"485 879 OFFCURVE",
"560 932 OFFCURVE",
"633 943 CURVE SMOOTH",
"693 951 OFFCURVE",
"758 945 OFFCURVE",
"788 914 CURVE",
"825 880 OFFCURVE",
"822 814 OFFCURVE",
"794 774 CURVE",
"746 714 OFFCURVE",
"691 680 OFFCURVE",
"594 678 CURVE SMOOTH",
"526 678 OFFCURVE"
);
}
);
width = 847;
},
{
layerId = "AF956123-A183-4F86-8774-5A4F8E572774";
width = 600;
}
);
unicode = 0045;
},
{
glyphname = Eacute;
lastChange = "2018-12-14 18:07:14 +0000";
layers = (
{
layerId = master01;
paths = (
{
closed = 1;
nodes = (
"672 69 OFFCURVE",
"749 218 CURVE SMOOTH",
"751 222 OFFCURVE",
"749 228 OFFCURVE",
"744 230 CURVE",
"740 232 OFFCURVE",
"734 230 OFFCURVE",
"732 225 CURVE",
"664 85 OFFCURVE",
"523 4 OFFCURVE",
"368 4 CURVE SMOOTH",
"293 4 OFFCURVE",
"207 38 OFFCURVE",
"158 103 CURVE SMOOTH",
"124 151 OFFCURVE",
"118 209 OFFCURVE",
"126 278 CURVE",
"138 350 OFFCURVE",
"172 415 OFFCURVE",
"230 464 CURVE SMOOTH",
"274 503 OFFCURVE",
"329 531 OFFCURVE",
"390 543 CURVE",
"398 528 OFFCURVE",
"412 512 OFFCURVE",
"426 501 CURVE SMOOTH",
"459 474 OFFCURVE",
"551 448 OFFCURVE",
"569 497 CURVE",
"581 543 OFFCURVE",
"533 563 OFFCURVE",
"492 567 CURVE SMOOTH",
"461 569 OFFCURVE",
"431 569 OFFCURVE",
"400 563 CURVE",
"379 612 OFFCURVE",
"379 671 OFFCURVE",
"395 729 CURVE",
"452 682 OFFCURVE",
"517 663 OFFCURVE",
"594 660 CURVE",
"677 660 OFFCURVE",
"761 697 OFFCURVE",
"809 763 CURVE SMOOTH",
"842 811 OFFCURVE",
"844 883 OFFCURVE",
"800 927 CURVE",
"757 967 OFFCURVE",
"693 969 OFFCURVE",
"635 962 CURVE",
"634 962 OFFCURVE",
"579 954 OFFCURVE",
"517 916 CURVE SMOOTH",
"487 897 OFFCURVE",
"454 870 OFFCURVE",
"427 833 CURVE SMOOTH",
"412 812 OFFCURVE",
"398 789 OFFCURVE",
"387 761 CURVE",
"354 798 OFFCURVE",
"331 838 OFFCURVE",
"321 896 CURVE SMOOTH",
"320 901 OFFCURVE",
"317 904 OFFCURVE",
"311 904 CURVE",
"305 903 OFFCURVE",
"302 899 OFFCURVE",
"303 893 CURVE SMOOTH",
"312 831 OFFCURVE",
"345 779 OFFCURVE",
"380 743 CURVE",
"360 686 OFFCURVE",
"359 621 OFFCURVE",
"381 560 CURVE",
"322 548 OFFCURVE",
"269 520 OFFCURVE",
"219 478 CURVE SMOOTH",
"180 445 OFFCURVE",
"124 383 OFFCURVE",
"108 281 CURVE SMOOTH",
"99 216 OFFCURVE",
"104 147 OFFCURVE",
"145 90 CURVE SMOOTH",
"196 23 OFFCURVE",
"276 -10 OFFCURVE",
"368 -14 CURVE",
"533 -14 OFFCURVE"
);
},
{
closed = 1;
nodes = (
"476 486 OFFCURVE",
"437 515 CURVE SMOOTH",
"425 524 OFFCURVE",
"416 535 OFFCURVE",
"409 546 CURVE",
"428 549 OFFCURVE",
"453 553 OFFCURVE",
"490 550 CURVE",
"515 549 OFFCURVE",
"562 535 OFFCURVE",
"552 502 CURVE",
"537 475 OFFCURVE"
);
},
{
closed = 1;
nodes = (
"454 699 OFFCURVE",
"401 748 CURVE",
"412 776 OFFCURVE",
"426 801 OFFCURVE",
"441 822 CURVE",
"485 879 OFFCURVE",
"560 932 OFFCURVE",
"633 943 CURVE SMOOTH",
"693 951 OFFCURVE",
"758 945 OFFCURVE",
"788 914 CURVE",
"825 880 OFFCURVE",
"822 814 OFFCURVE",
"794 774 CURVE",
"746 714 OFFCURVE",
"691 680 OFFCURVE",
"594 678 CURVE SMOOTH",
"526 678 OFFCURVE"
);
},
{
closed = 1;
nodes = (
"861 1058 OFFCURVE",
"1006 1150 CURVE",
"1010 1153 OFFCURVE",
"1012 1158 OFFCURVE",
"1009 1163 CURVE",
"1006 1167 OFFCURVE",
"1001 1168 OFFCURVE",
"996 1165 CURVE SMOOTH",
"869 1083 OFFCURVE",
"695 1027 OFFCURVE",
"541 1047 CURVE",
"536 1048 OFFCURVE",
"532 1044 OFFCURVE",
"531 1040 CURVE",
"530 1035 OFFCURVE",
"533 1030 OFFCURVE",
"538 1029 CURVE",
"700 1012 OFFCURVE"
);
}
);
width = 847;
},
{
layerId = "AF956123-A183-4F86-8774-5A4F8E572774";
width = 600;
}
);
unicode = 00C9;
},
{
glyphname = Ecircumflex;
lastChange = "2018-12-14 18:07:14 +0000";
layers = (
{
layerId = master01;
paths = (
{
closed = 1;
nodes = (
"672 69 OFFCURVE",
"749 218 CURVE SMOOTH",
"751 222 OFFCURVE",
"749 228 OFFCURVE",
"744 230 CURVE",
"740 232 OFFCURVE",
"734 230 OFFCURVE",
"732 225 CURVE",
"664 85 OFFCURVE",
"523 4 OFFCURVE",
"368 4 CURVE SMOOTH",
"293 4 OFFCURVE",
"207 38 OFFCURVE",
"158 103 CURVE SMOOTH",
"124 151 OFFCURVE",
"118 209 OFFCURVE",
"126 278 CURVE",
"138 350 OFFCURVE",
"172 415 OFFCURVE",
"230 464 CURVE SMOOTH",
"274 503 OFFCURVE",
"329 531 OFFCURVE",
"390 543 CURVE",
"398 528 OFFCURVE",
"412 512 OFFCURVE",
"426 501 CURVE SMOOTH",
"459 474 OFFCURVE",
"551 448 OFFCURVE",
"569 497 CURVE",
"581 543 OFFCURVE",
"533 563 OFFCURVE",
"492 567 CURVE SMOOTH",
"461 569 OFFCURVE",
"431 569 OFFCURVE",
"400 563 CURVE",
"379 612 OFFCURVE",
"379 671 OFFCURVE",
"395 729 CURVE",
"452 682 OFFCURVE",
"517 663 OFFCURVE",
"594 660 CURVE",
"677 660 OFFCURVE",
"761 697 OFFCURVE",
"809 763 CURVE SMOOTH",
"842 811 OFFCURVE",
"844 883 OFFCURVE",
"800 927 CURVE",
"757 967 OFFCURVE",
"693 969 OFFCURVE",
"635 962 CURVE",
"634 962 OFFCURVE",
"579 954 OFFCURVE",
"517 916 CURVE SMOOTH",
"487 897 OFFCURVE",
"454 870 OFFCURVE",
"427 833 CURVE SMOOTH",
"412 812 OFFCURVE",
"398 789 OFFCURVE",
"387 761 CURVE",
"354 798 OFFCURVE",
"331 838 OFFCURVE",
"321 896 CURVE SMOOTH",
"320 901 OFFCURVE",
"317 904 OFFCURVE",
"311 904 CURVE",
"305 903 OFFCURVE",
"302 899 OFFCURVE",
"303 893 CURVE SMOOTH",
"312 831 OFFCURVE",
"345 779 OFFCURVE",
"380 743 CURVE",
"360 686 OFFCURVE",
"359 621 OFFCURVE",
"381 560 CURVE",
"322 548 OFFCURVE",
"269 520 OFFCURVE",
"219 478 CURVE SMOOTH",
"180 445 OFFCURVE",
"124 383 OFFCURVE",
"108 281 CURVE SMOOTH",
"99 216 OFFCURVE",
"104 147 OFFCURVE",
"145 90 CURVE SMOOTH",
"196 23 OFFCURVE",
"276 -10 OFFCURVE",
"368 -14 CURVE",
"533 -14 OFFCURVE"
);
},
{
closed = 1;
nodes = (
"476 486 OFFCURVE",
"437 515 CURVE SMOOTH",
"425 524 OFFCURVE",
"416 535 OFFCURVE",
"409 546 CURVE",
"428 549 OFFCURVE",
"453 553 OFFCURVE",
"490 550 CURVE",
"515 549 OFFCURVE",
"562 535 OFFCURVE",
"552 502 CURVE",
"537 475 OFFCURVE"
);
},
{
closed = 1;
nodes = (
"454 699 OFFCURVE",
"401 748 CURVE",
"412 776 OFFCURVE",
"426 801 OFFCURVE",
"441 822 CURVE",
"485 879 OFFCURVE",
"560 932 OFFCURVE",
"633 943 CURVE SMOOTH",
"693 951 OFFCURVE",
"758 945 OFFCURVE",
"788 914 CURVE",
"825 880 OFFCURVE",
"822 814 OFFCURVE",
"794 774 CURVE",
"746 714 OFFCURVE",
"691 680 OFFCURVE",
"594 678 CURVE SMOOTH",
"526 678 OFFCURVE"
);
},
{
closed = 1;
nodes = (
"986 978 OFFCURVE",
"986 983 CURVE SMOOTH",
"986 988 OFFCURVE",
"982 992 OFFCURVE",
"977 992 CURVE SMOOTH",
"931 992 OFFCURVE",
"899 1013 OFFCURVE",
"880 1055 CURVE SMOOTH",
"866 1087 OFFCURVE",
"866 1120 OFFCURVE",
"866 1121 CURVE SMOOTH",
"866 1128 OFFCURVE",
"857 1132 OFFCURVE",
"852 1129 CURVE SMOOTH",
"729 1053 OFFCURVE",
"619 1032 OFFCURVE",
"548 1025 CURVE SMOOTH",
"471 1017 OFFCURVE",
"421 1028 OFFCURVE",
"421 1028 CURVE",
"416 1029 OFFCURVE",
"411 1026 OFFCURVE",
"410 1021 CURVE SMOOTH",
"409 1016 OFFCURVE",
"412 1011 OFFCURVE",
"417 1010 CURVE",
"419 1010 OFFCURVE",
"469 999 OFFCURVE",
"549 1007 CURVE SMOOTH",
"596 1011 OFFCURVE",
"643 1021 OFFCURVE",
"690 1036 CURVE SMOOTH",
"744 1052 OFFCURVE",
"797 1076 OFFCURVE",
"849 1106 CURVE",
"850 1092 OFFCURVE",
"854 1070 OFFCURVE",
"864 1048 CURVE SMOOTH",
"885 1000 OFFCURVE",
"924 974 OFFCURVE",
"977 974 CURVE SMOOTH",
"982 974 OFFCURVE"
);
}
);
width = 847;
},
{
layerId = "AF956123-A183-4F86-8774-5A4F8E572774";
width = 600;
}
);
unicode = 00CA;
},
{
glyphname = Edieresis;
lastChange = "2018-12-14 18:07:14 +0000";
layers = (
{
layerId = master01;
paths = (
{
closed = 1;
nodes = (
"672 69 OFFCURVE",
"749 218 CURVE SMOOTH",
"751 222 OFFCURVE",
"749 228 OFFCURVE",
"744 230 CURVE",
"740 232 OFFCURVE",
"734 230 OFFCURVE",
"732 225 CURVE",
"664 85 OFFCURVE",
"523 4 OFFCURVE",
"368 4 CURVE SMOOTH",
"293 4 OFFCURVE",
"207 38 OFFCURVE",
"158 103 CURVE SMOOTH",
"124 151 OFFCURVE",
"118 209 OFFCURVE",
"126 278 CURVE",
"138 350 OFFCURVE",
"172 415 OFFCURVE",
"230 464 CURVE SMOOTH",
"274 503 OFFCURVE",
"329 531 OFFCURVE",
"390 543 CURVE",
"398 528 OFFCURVE",
"412 512 OFFCURVE",
"426 501 CURVE SMOOTH",
"459 474 OFFCURVE",
"551 448 OFFCURVE",
"569 497 CURVE",
"581 543 OFFCURVE",
"533 563 OFFCURVE",
"492 567 CURVE SMOOTH",
"461 569 OFFCURVE",
"431 569 OFFCURVE",
"400 563 CURVE",
"379 612 OFFCURVE",
"379 671 OFFCURVE",
"395 729 CURVE",
"452 682 OFFCURVE",
"517 663 OFFCURVE",
"594 660 CURVE",
"677 660 OFFCURVE",
"761 697 OFFCURVE",
"809 763 CURVE SMOOTH",
"842 811 OFFCURVE",
"844 883 OFFCURVE",
"800 927 CURVE",
"757 967 OFFCURVE",
"693 969 OFFCURVE",
"635 962 CURVE",
"634 962 OFFCURVE",
"579 954 OFFCURVE",
"517 916 CURVE SMOOTH",
"487 897 OFFCURVE",
"454 870 OFFCURVE",
"427 833 CURVE SMOOTH",
"412 812 OFFCURVE",
"398 789 OFFCURVE",
"387 761 CURVE",
"354 798 OFFCURVE",
"331 838 OFFCURVE",
"321 896 CURVE SMOOTH",
"320 901 OFFCURVE",
"317 904 OFFCURVE",
"311 904 CURVE",
"305 903 OFFCURVE",
"302 899 OFFCURVE",
"303 893 CURVE SMOOTH",
"312 831 OFFCURVE",
"345 779 OFFCURVE",
"380 743 CURVE",
"360 686 OFFCURVE",
"359 621 OFFCURVE",
"381 560 CURVE",
"322 548 OFFCURVE",
"269 520 OFFCURVE",
"219 478 CURVE SMOOTH",
"180 445 OFFCURVE",
"124 383 OFFCURVE",
"108 281 CURVE SMOOTH",
"99 216 OFFCURVE",
"104 147 OFFCURVE",
"145 90 CURVE SMOOTH",
"196 23 OFFCURVE",
"276 -10 OFFCURVE",
"368 -14 CURVE",
"533 -14 OFFCURVE"
);
},
{
closed = 1;
nodes = (
"476 486 OFFCURVE",
"437 515 CURVE SMOOTH",
"425 524 OFFCURVE",
"416 535 OFFCURVE",
"409 546 CURVE",
"428 549 OFFCURVE",
"453 553 OFFCURVE",
"490 550 CURVE",
"515 549 OFFCURVE",
"562 535 OFFCURVE",
"552 502 CURVE",
"537 475 OFFCURVE"
);
},
{
closed = 1;
nodes = (
"454 699 OFFCURVE",
"401 748 CURVE",
"412 776 OFFCURVE",
"426 801 OFFCURVE",
"441 822 CURVE",
"485 879 OFFCURVE",
"560 932 OFFCURVE",
"633 943 CURVE SMOOTH",
"693 951 OFFCURVE",
"758 945 OFFCURVE",
"788 914 CURVE",
"825 880 OFFCURVE",
"822 814 OFFCURVE",
"794 774 CURVE",
"746 714 OFFCURVE",
"691 680 OFFCURVE",
"594 678 CURVE SMOOTH",
"526 678 OFFCURVE"
);
},
{
closed = 1;
nodes = (
"651 1096 OFFCURVE",
"621 1096 CURVE SMOOTH",
"591 1096 OFFCURVE",
"567 1072 OFFCURVE",
"567 1042 CURVE SMOOTH",
"567 1012 OFFCURVE",
"591 988 OFFCURVE",
"621 988 CURVE SMOOTH",
"651 988 OFFCURVE",
"675 1012 OFFCURVE",
"675 1042 CURVE SMOOTH",
"675 1072 OFFCURVE"
);
},
{
closed = 1;
nodes = (
"813 1096 OFFCURVE",
"783 1096 CURVE SMOOTH",
"753 1096 OFFCURVE",
"729 1072 OFFCURVE",
"729 1042 CURVE SMOOTH",
"729 1012 OFFCURVE",
"753 988 OFFCURVE",
"783 988 CURVE SMOOTH",
"813 988 OFFCURVE",
"837 1012 OFFCURVE",
"837 1042 CURVE SMOOTH",
"837 1072 OFFCURVE"
);
}
);
width = 847;
},
{
layerId = "AF956123-A183-4F86-8774-5A4F8E572774";
width = 600;
}
);
unicode = 00CB;
},
{
glyphname = Egrave;
lastChange = "2018-12-14 18:07:14 +0000";
layers = (
{
layerId = master01;
paths = (
{
closed = 1;
nodes = (
"672 69 OFFCURVE",
"749 218 CURVE SMOOTH",
"751 222 OFFCURVE",
"749 228 OFFCURVE",
"744 230 CURVE",
"740 232 OFFCURVE",
"734 230 OFFCURVE",
"732 225 CURVE",
"664 85 OFFCURVE",
"523 4 OFFCURVE",
"368 4 CURVE SMOOTH",
"293 4 OFFCURVE",
"207 38 OFFCURVE",
"158 103 CURVE SMOOTH",
"124 151 OFFCURVE",
"118 209 OFFCURVE",
"126 278 CURVE",
"138 350 OFFCURVE",
"172 415 OFFCURVE",
"230 464 CURVE SMOOTH",
"274 503 OFFCURVE",
"329 531 OFFCURVE",
"390 543 CURVE",
"398 528 OFFCURVE",
"412 512 OFFCURVE",
"426 501 CURVE SMOOTH",
"459 474 OFFCURVE",
"551 448 OFFCURVE",
"569 497 CURVE",
"581 543 OFFCURVE",
"533 563 OFFCURVE",
"492 567 CURVE SMOOTH",
"461 569 OFFCURVE",
"431 569 OFFCURVE",
"400 563 CURVE",
"379 612 OFFCURVE",
"379 671 OFFCURVE",
"395 729 CURVE",
"452 682 OFFCURVE",
"517 663 OFFCURVE",
"594 660 CURVE",
"677 660 OFFCURVE",
"761 697 OFFCURVE",
"809 763 CURVE SMOOTH",
"842 811 OFFCURVE",
"844 883 OFFCURVE",
"800 927 CURVE",
"757 967 OFFCURVE",
"693 969 OFFCURVE",
"635 962 CURVE",
"634 962 OFFCURVE",
"579 954 OFFCURVE",
"517 916 CURVE SMOOTH",
"487 897 OFFCURVE",
"454 870 OFFCURVE",
"427 833 CURVE SMOOTH",
"412 812 OFFCURVE",
"398 789 OFFCURVE",
"387 761 CURVE",
"354 798 OFFCURVE",
"331 838 OFFCURVE",
"321 896 CURVE SMOOTH",
"320 901 OFFCURVE",
"317 904 OFFCURVE",
"311 904 CURVE",
"305 903 OFFCURVE",
"302 899 OFFCURVE",
"303 893 CURVE SMOOTH",
"312 831 OFFCURVE",
"345 779 OFFCURVE",
"380 743 CURVE",
"360 686 OFFCURVE",
"359 621 OFFCURVE",
"381 560 CURVE",
"322 548 OFFCURVE",
"269 520 OFFCURVE",
"219 478 CURVE SMOOTH",
"180 445 OFFCURVE",
"124 383 OFFCURVE",
"108 281 CURVE SMOOTH",
"99 216 OFFCURVE",
"104 147 OFFCURVE",
"145 90 CURVE SMOOTH",
"196 23 OFFCURVE",
"276 -10 OFFCURVE",
"368 -14 CURVE",
"533 -14 OFFCURVE"
);
},
{
closed = 1;
nodes = (
"476 486 OFFCURVE",
"437 515 CURVE SMOOTH",
"425 524 OFFCURVE",
"416 535 OFFCURVE",
"409 546 CURVE",
"428 549 OFFCURVE",
"453 553 OFFCURVE",
"490 550 CURVE",
"515 549 OFFCURVE",
"562 535 OFFCURVE",
"552 502 CURVE",
"537 475 OFFCURVE"
);
},
{
closed = 1;
nodes = (
"454 699 OFFCURVE",
"401 748 CURVE",
"412 776 OFFCURVE",
"426 801 OFFCURVE",
"441 822 CURVE",
"485 879 OFFCURVE",
"560 932 OFFCURVE",
"633 943 CURVE SMOOTH",
"693 951 OFFCURVE",
"758 945 OFFCURVE",
"788 914 CURVE",
"825 880 OFFCURVE",
"822 814 OFFCURVE",
"794 774 CURVE",
"746 714 OFFCURVE",
"691 680 OFFCURVE",
"594 678 CURVE SMOOTH",
"526 678 OFFCURVE"
);
},
{
closed = 1;
nodes = (
"851 1030 OFFCURVE",
"871 1032 CURVE",
"876 1032 OFFCURVE",
"880 1037 OFFCURVE",
"880 1042 CURVE",
"879 1047 OFFCURVE",
"875 1050 OFFCURVE",
"870 1050 CURVE",
"737 1039 OFFCURVE",
"571 1063 OFFCURVE",
"522 1210 CURVE SMOOTH",
"514 1237 OFFCURVE",
"514 1257 OFFCURVE",
"514 1257 CURVE",
"514 1262 OFFCURVE",
"510 1266 OFFCURVE",
"505 1266 CURVE SMOOTH",
"500 1266 OFFCURVE",
"496 1262 OFFCURVE",
"496 1257 CURVE SMOOTH",
"496 1256 OFFCURVE",
"496 1235 OFFCURVE",
"505 1206 CURVE SMOOTH",
"543 1077 OFFCURVE",
"681 1029 OFFCURVE",
"811 1029 CURVE SMOOTH",
"831 1029 OFFCURVE"
);
}
);
width = 847;
},
{
layerId = "AF956123-A183-4F86-8774-5A4F8E572774";
width = 600;
}
);
unicode = 00C8;
},
{
glyphname = F;
lastChange = "2018-12-14 18:07:14 +0000";
layers = (
{
layerId = master01;
paths = (
{
closed = 1;
nodes = (
"1270 948 OFFCURVE",
"1226 948 CURVE SMOOTH",
"1155 948 OFFCURVE",
"1087 929 OFFCURVE",
"1023 897 CURVE SMOOTH",
"974 872 OFFCURVE",
"927 839 OFFCURVE",
"882 800 CURVE",
"815 817 OFFCURVE",
"737 841 OFFCURVE",
"645 875 CURVE SMOOTH",
"592 894 OFFCURVE",
"542 902 OFFCURVE",
"498 902 CURVE SMOOTH",
"400 902 OFFCURVE",
"303 863 OFFCURVE",
"238 798 CURVE SMOOTH",
"235 795 OFFCURVE",
"235 789 OFFCURVE",
"239 786 CURVE",
"242 782 OFFCURVE",
"248 783 OFFCURVE",
"252 786 CURVE",
"314 848 OFFCURVE",
"413 884 OFFCURVE",
"498 884 CURVE SMOOTH",
"540 884 OFFCURVE",
"587 877 OFFCURVE",
"639 858 CURVE SMOOTH",
"726 826 OFFCURVE",
"801 803 OFFCURVE",
"865 786 CURVE",
"828 753 OFFCURVE",
"792 716 OFFCURVE",
"757 678 CURVE SMOOTH",
"698 612 OFFCURVE",
"642 541 OFFCURVE",
"588 470 CURVE",
"576 472 OFFCURVE",
"565 475 OFFCURVE",
"553 479 CURVE",
"526 486 OFFCURVE",
"500 496 OFFCURVE",
"474 501 CURVE SMOOTH",
"455 505 OFFCURVE",
"428 510 OFFCURVE",
"400 510 CURVE SMOOTH",
"355 510 OFFCURVE",
"307 497 OFFCURVE",
"301 450 CURVE SMOOTH",
"293 389 OFFCURVE",
"388 380 OFFCURVE",
"427 380 CURVE SMOOTH",
"462 380 OFFCURVE",
"506 388 OFFCURVE",
"533 397 CURVE",
"525 386 LINE SMOOTH",
"473 319 OFFCURVE",
"359 157 OFFCURVE",
"292 87 CURVE SMOOTH",
"259 51 OFFCURVE",
"225 23 OFFCURVE",
"196 6 CURVE SMOOTH",
"155 -18 OFFCURVE",
"117 -25 OFFCURVE",
"80 -20 CURVE",
"25 -15 OFFCURVE",
"-11 18 OFFCURVE",
"-11 75 CURVE SMOOTH",
"-11 87 OFFCURVE",
"-9 100 OFFCURVE",
"-6 114 CURVE SMOOTH",
"-5 119 OFFCURVE",
"-8 124 OFFCURVE",
"-13 125 CURVE SMOOTH",
"-18 126 OFFCURVE",
"-22 123 OFFCURVE",
"-24 118 CURVE",
"-27 103 OFFCURVE",
"-29 88 OFFCURVE",
"-29 75 CURVE SMOOTH",
"-29 44 OFFCURVE",
"-20 18 OFFCURVE",
"-2 -2 CURVE SMOOTH",
"17 -22 OFFCURVE",
"44 -34 OFFCURVE",
"78 -38 CURVE SMOOTH",
"123 -44 OFFCURVE",
"166 -32 OFFCURVE",
"205 -10 CURVE SMOOTH",
"255 20 OFFCURVE",
"303 69 OFFCURVE",
"357 134 CURVE SMOOTH",
"411 199 OFFCURVE",
"470 281 OFFCURVE",
"540 375 CURVE SMOOTH",
"547 385 OFFCURVE",
"555 395 OFFCURVE",
"562 406 CURVE",
"575 422 OFFCURVE",
"587 439 OFFCURVE",
"596 450 CURVE",
"610 448 OFFCURVE",
"625 447 OFFCURVE",
"640 447 CURVE SMOOTH",
"676 447 OFFCURVE",
"716 455 OFFCURVE",
"758 478 CURVE",
"763 480 OFFCURVE",
"764 485 OFFCURVE",
"762 490 CURVE",
"760 494 OFFCURVE",
"754 496 OFFCURVE",
"750 493 CURVE",
"710 472 OFFCURVE",
"674 465 OFFCURVE",
"640 465 CURVE SMOOTH",
"629 465 OFFCURVE",
"619 465 OFFCURVE",
"608 467 CURVE",
"685 568 OFFCURVE",
"766 669 OFFCURVE",
"853 751 CURVE SMOOTH",
"864 761 OFFCURVE",
"875 771 OFFCURVE",
"887 781 CURVE",
"1036 743 OFFCURVE",
"1105 743 OFFCURVE",
"1184 743 CURVE",
"1263 747 OFFCURVE",
"1309 769 OFFCURVE",
"1336 791 CURVE",
"1388 837 OFFCURVE",
"1383 889 OFFCURVE",
"1357 913 CURVE",
"1327 944 OFFCURVE"
);
},
{
closed = 1;
nodes = (
"467 398 OFFCURVE",
"427 398 CURVE",
"399 397 OFFCURVE",
"315 404 OFFCURVE",
"319 446 CURVE SMOOTH",
"323 485 OFFCURVE",
"371 492 OFFCURVE",
"400 492 CURVE SMOOTH",
"426 492 OFFCURVE",
"452 487 OFFCURVE",
"470 483 CURVE SMOOTH",
"494 478 OFFCURVE",
"520 469 OFFCURVE",
"548 461 CURVE",
"557 459 OFFCURVE",
"567 456 OFFCURVE",
"576 454 CURVE",
"568 443 OFFCURVE",
"560 432 OFFCURVE",
"551 421 CURVE",
"534 413 OFFCURVE"
);
},
{
closed = 1;
nodes = (
"1249 764 OFFCURVE",
"1183 761 CURVE",
"1108 761 OFFCURVE",
"1045 761 OFFCURVE",
"904 795 CURVE",
"945 829 OFFCURVE",
"988 858 OFFCURVE",
"1032 881 CURVE SMOOTH",
"1094 912 OFFCURVE",
"1158 930 OFFCURVE",
"1226 930 CURVE SMOOTH",
"1265 929 OFFCURVE",
"1317 927 OFFCURVE",
"1344 899 CURVE SMOOTH",
"1377 866 OFFCURVE",
"1342 813 OFFCURVE",
"1313 797 CURVE",
"1289 780 OFFCURVE"
);
}
);
width = 833;
},
{
layerId = "AF956123-A183-4F86-8774-5A4F8E572774";
width = 600;
}
);
unicode = 0046;
},
{
glyphname = G;
lastChange = "2018-12-14 18:07:14 +0000";
layers = (
{
layerId = master01;
paths = (
{
closed = 1;
nodes = (
"554 -414 OFFCURVE",
"613 -350 CURVE SMOOTH",
"667 -290 OFFCURVE",
"708 -216 OFFCURVE",
"742 -151 CURVE SMOOTH",
"755 -127 OFFCURVE",
"766 -103 OFFCURVE",
"777 -80 CURVE",
"841 -74 OFFCURVE",
"914 -71 OFFCURVE",
"997 -74 CURVE",
"1003 -74 OFFCURVE",
"1008 -70 OFFCURVE",
"1008 -64 CURVE SMOOTH",
"1008 -59 OFFCURVE",
"1004 -54 OFFCURVE",
"998 -54 CURVE",
"925 -51 OFFCURVE",
"854 -53 OFFCURVE",
"787 -59 CURVE",
"824 24 OFFCURVE",
"850 102 OFFCURVE",
"873 173 CURVE SMOOTH",
"883 202 OFFCURVE",
"893 231 OFFCURVE",
"902 258 CURVE",
"884 265 LINE",
"828 132 OFFCURVE",
"743 60 OFFCURVE",
"682 24 CURVE SMOOTH",
"627 -8 OFFCURVE",
"564 -30 OFFCURVE",
"495 -30 CURVE SMOOTH",
"494 -30 OFFCURVE",
"494 -30 OFFCURVE",
"493 -30 CURVE SMOOTH",
"458 -30 OFFCURVE",
"408 -24 OFFCURVE",
"367 4 CURVE SMOOTH",
"324 34 OFFCURVE",
"297 81 OFFCURVE",
"288 146 CURVE SMOOTH",
"279 215 OFFCURVE",
"296 294 OFFCURVE",
"340 382 CURVE SMOOTH",
"379 462 OFFCURVE",
"440 546 OFFCURVE",
"516 627 CURVE SMOOTH",
"574 689 OFFCURVE",
"638 746 OFFCURVE",
"703 794 CURVE",
"793 686 OFFCURVE",
"975 643 OFFCURVE",
"1101 727 CURVE",
"1163 765 OFFCURVE",
"1231 857 OFFCURVE",
"1185 936 CURVE SMOOTH",
"1149 998 OFFCURVE",
"1053 983 OFFCURVE",
"991 967 CURVE SMOOTH",
"917 948 OFFCURVE",
"832 907 OFFCURVE",
"745 849 CURVE SMOOTH",
"732 840 OFFCURVE",
"720 831 OFFCURVE",
"707 822 CURVE",
"689 846 OFFCURVE",
"664 888 OFFCURVE",
"664 929 CURVE",
"663 935 OFFCURVE",
"658 939 OFFCURVE",
"653 938 CURVE SMOOTH",
"647 937 OFFCURVE",
"643 932 OFFCURVE",
"644 927 CURVE",
"644 891 OFFCURVE",
"668 840 OFFCURVE",
"691 811 CURVE",
"624 761 OFFCURVE",
"560 703 OFFCURVE",
"502 641 CURVE SMOOTH",
"424 559 OFFCURVE",
"362 472 OFFCURVE",
"322 391 CURVE SMOOTH",
"276 299 OFFCURVE",
"258 216 OFFCURVE",
"268 144 CURVE SMOOTH",
"278 73 OFFCURVE",
"308 20 OFFCURVE",
"356 -12 CURVE SMOOTH",
"392 -37 OFFCURVE",
"440 -50 OFFCURVE",
"494 -50 CURVE",
"494 -50 OFFCURVE",
"494 -50 OFFCURVE",
"495 -50 CURVE SMOOTH",
"562 -50 OFFCURVE",
"628 -30 OFFCURVE",
"691 6 CURVE SMOOTH",
"751 41 OFFCURVE",
"802 90 OFFCURVE",
"845 151 CURVE",
"823 86 OFFCURVE",
"798 15 OFFCURVE",
"764 -61 CURVE",
"750 -63 OFFCURVE",
"737 -64 OFFCURVE",
"725 -66 CURVE SMOOTH",
"657 -75 OFFCURVE",
"593 -90 OFFCURVE",
"535 -109 CURVE SMOOTH",
"398 -154 OFFCURVE",
"272 -237 OFFCURVE",
"276 -361 CURVE SMOOTH",
"278 -428 OFFCURVE",
"331 -458 OFFCURVE",
"394 -460 CURVE SMOOTH",
"480 -460 OFFCURVE"
);
},
{
closed = 1;
nodes = (
"735 -122 OFFCURVE",
"724 -142 CURVE SMOOTH",
"669 -246 OFFCURVE",
"567 -440 OFFCURVE",
"394 -440 CURVE SMOOTH",
"311 -440 OFFCURVE",
"282 -388 OFFCURVE",
"303 -310 CURVE",
"325 -242 OFFCURVE",
"400 -193 OFFCURVE",
"401 -193 CURVE",
"402 -192 OFFCURVE",
"446 -159 OFFCURVE",
"542 -128 CURVE SMOOTH",
"592 -111 OFFCURVE",
"663 -93 OFFCURVE",
"754 -83 CURVE",
"745 -102 OFFCURVE"
);
},
{
closed = 1;
nodes = (
"913 927 OFFCURVE",
"995 947 CURVE SMOOTH",
"1084 970 OFFCURVE",
"1146 963 OFFCURVE",
"1168 925 CURVE SMOOTH",
"1206 860 OFFCURVE",
"1146 778 OFFCURVE",
"1090 743 CURVE SMOOTH",
"974 671 OFFCURVE",
"810 700 OFFCURVE",
"719 806 CURVE",
"815 876 OFFCURVE"
);
}
);
width = 1008;
},
{
layerId = "AF956123-A183-4F86-8774-5A4F8E572774";
width = 600;
}
);
unicode = 0047;
},
{
glyphname = H;
lastChange = "2018-12-14 18:07:14 +0000";
layers = (
{
layerId = master01;
paths = (
{
closed = 1;
nodes = (
"108 -256 OFFCURVE",
"158 -225 CURVE SMOOTH",
"186 -207 OFFCURVE",
"211 -178 OFFCURVE",
"235 -143 CURVE SMOOTH",
"270 -91 OFFCURVE",
"299 -28 OFFCURVE",
"320 22 CURVE SMOOTH",
"341 73 OFFCURVE",
"354 110 OFFCURVE",
"354 110 CURVE",
"383 199 OFFCURVE",
"410 286 OFFCURVE",
"437 371 CURVE",
"500 400 OFFCURVE",
"565 427 OFFCURVE",
"630 450 CURVE SMOOTH",
"694 473 OFFCURVE",
"753 497 OFFCURVE",
"806 523 CURVE",
"772 460 OFFCURVE",
"739 392 OFFCURVE",
"713 325 CURVE SMOOTH",
"681 243 OFFCURVE",
"659 161 OFFCURVE",
"659 90 CURVE SMOOTH",
"659 49 OFFCURVE",
"666 12 OFFCURVE",
"682 -21 CURVE SMOOTH",
"700 -57 OFFCURVE",
"722 -85 OFFCURVE",
"749 -105 CURVE SMOOTH",
"776 -126 OFFCURVE",
"808 -139 OFFCURVE",
"849 -151 CURVE",
"854 -152 OFFCURVE",
"859 -149 OFFCURVE",
"860 -144 CURVE",
"861 -140 OFFCURVE",
"859 -135 OFFCURVE",
"854 -133 CURVE",
"814 -122 OFFCURVE",
"784 -109 OFFCURVE",
"759 -91 CURVE",
"735 -72 OFFCURVE",
"716 -48 OFFCURVE",
"698 -13 CURVE",
"684 17 OFFCURVE",
"677 51 OFFCURVE",
"677 90 CURVE SMOOTH",
"677 158 OFFCURVE",
"698 238 OFFCURVE",
"729 319 CURVE SMOOTH",
"758 393 OFFCURVE",
"796 468 OFFCURVE",
"835 536 CURVE",
"1080 657 OFFCURVE",
"1207 787 OFFCURVE",
"1212 792 CURVE SMOOTH",
"1239 819 OFFCURVE",
"1262 854 OFFCURVE",
"1264 895 CURVE",
"1264 936 OFFCURVE",
"1232 970 OFFCURVE",
"1188 970 CURVE SMOOTH",
"1165 970 OFFCURVE",
"1143 961 OFFCURVE",
"1121 947 CURVE SMOOTH",
"1089 926 OFFCURVE",
"1059 896 OFFCURVE",
"1037 871 CURVE SMOOTH",
"1016 847 OFFCURVE",
"1002 828 OFFCURVE",
"1000 826 CURVE",
"1002 829 OFFCURVE",
"900 690 OFFCURVE",
"822 550 CURVE",
"763 521 OFFCURVE",
"697 493 OFFCURVE",
"624 467 CURVE SMOOTH",
"564 445 OFFCURVE",
"503 421 OFFCURVE",
"444 394 CURVE",
"484 519 OFFCURVE",
"522 637 OFFCURVE",
"562 739 CURVE SMOOTH",
"597 827 OFFCURVE",
"633 903 OFFCURVE",
"674 962 CURVE SMOOTH",
"678 968 OFFCURVE",
"682 973 OFFCURVE",
"686 979 CURVE",
"703 975 OFFCURVE",
"720 973 OFFCURVE",
"735 973 CURVE SMOOTH",
"791 973 OFFCURVE",
"829 996 OFFCURVE",
"834 999 CURVE SMOOTH",
"851 1010 OFFCURVE",
"866 1020 OFFCURVE",
"877 1036 CURVE SMOOTH",
"890 1056 OFFCURVE",
"889 1084 OFFCURVE",
"866 1099 CURVE SMOOTH",
"849 1110 OFFCURVE",
"820 1104 OFFCURVE",
"801 1097 CURVE SMOOTH",
"755 1080 OFFCURVE",
"715 1046 OFFCURVE",
"679 999 CURVE",
"669 1002 OFFCURVE",
"660 1006 OFFCURVE",
"649 1011 CURVE SMOOTH",
"618 1025 OFFCURVE",
"584 1050 OFFCURVE",
"549 1090 CURVE",
"546 1094 OFFCURVE",
"540 1094 OFFCURVE",
"537 1091 CURVE",
"533 1088 OFFCURVE",
"532 1082 OFFCURVE",
"536 1078 CURVE",
"572 1037 OFFCURVE",
"608 1010 OFFCURVE",
"642 994 CURVE SMOOTH",
"650 990 OFFCURVE",
"659 987 OFFCURVE",
"667 984 CURVE",
"664 980 OFFCURVE",
"662 976 OFFCURVE",
"659 972 CURVE",
"596 881 OFFCURVE",
"544 753 OFFCURVE",
"494 604 CURVE SMOOTH",
"470 535 OFFCURVE",
"446 460 OFFCURVE",
"422 384 CURVE",
"281 316 OFFCURVE",
"153 230 OFFCURVE",
"67 116 CURVE SMOOTH",
"8 37 OFFCURVE",
"-17 -35 OFFCURVE",
"-17 -94 CURVE SMOOTH",
"-17 -134 OFFCURVE",
"-5 -169 OFFCURVE",
"15 -194 CURVE SMOOTH",
"48 -236 OFFCURVE"
);
},
{
closed = 1;
nodes = (
"281 294 OFFCURVE",
"415 360 CURVE",
"390 281 OFFCURVE",
"364 199 OFFCURVE",
"337 116 CURVE SMOOTH",
"323 75 OFFCURVE",
"279 -29 OFFCURVE",
"256 -72 CURVE SMOOTH",
"235 -111 OFFCURVE",
"210 -150 OFFCURVE",
"185 -178 CURVE SMOOTH",
"172 -192 OFFCURVE",
"159 -204 OFFCURVE",
"146 -211 CURVE",
"107 -234 OFFCURVE",
"60 -219 OFFCURVE",
"29 -183 CURVE SMOOTH",
"11 -161 OFFCURVE",
"1 -131 OFFCURVE",
"1 -94 CURVE SMOOTH",
"1 -40 OFFCURVE",
"24 29 OFFCURVE",
"82 105 CURVE SMOOTH",
"161 211 OFFCURVE"
);
},
{
closed = 1;
nodes = (
"1145 950 OFFCURVE",
"1188 952 CURVE",
"1218 952 OFFCURVE",
"1245 926 OFFCURVE",
"1246 895 CURVE SMOOTH",
"1246 860 OFFCURVE",
"1222 829 OFFCURVE",
"1198 804 CURVE",
"1190 795 OFFCURVE",
"1073 678 OFFCURVE",
"851 564 CURVE",
"870 598 OFFCURVE",
"890 629 OFFCURVE",
"908 658 CURVE SMOOTH",
"938 705 OFFCURVE",
"964 744 OFFCURVE",
"984 772 CURVE",
"1008 811 OFFCURVE",
"1044 855 OFFCURVE",
"1081 891 CURVE SMOOTH",
"1109 918 OFFCURVE"
);
},
{
closed = 1;
nodes = (
"711 992 OFFCURVE",
"698 994 CURVE",
"728 1030 OFFCURVE",
"762 1061 OFFCURVE",
"808 1081 CURVE SMOOTH",
"823 1087 OFFCURVE",
"842 1091 OFFCURVE",
"857 1083 CURVE SMOOTH",
"865 1079 OFFCURVE",
"873 1062 OFFCURVE",
"862 1046 CURVE SMOOTH",
"851 1030 OFFCURVE",
"839 1023 OFFCURVE",
"824 1014 CURVE",
"824 1014 OFFCURVE",
"788 991 OFFCURVE",
"735 991 CURVE SMOOTH",
"723 991 OFFCURVE"
);
}
);
width = 924;
},
{
layerId = "AF956123-A183-4F86-8774-5A4F8E572774";
width = 600;
}
);
unicode = 0048;
},
{
glyphname = I;
lastChange = "2018-12-14 18:07:14 +0000";
layers = (
{
layerId = master01;
paths = (
{
closed = 1;
nodes = (
"339 30 OFFCURVE",
"514 267 CURVE SMOOTH",
"555 321 OFFCURVE",
"595 376 OFFCURVE",
"636 434 CURVE SMOOTH",
"739 578 OFFCURVE",
"834 710 OFFCURVE",
"942 797 CURVE",
"1051 765 OFFCURVE",
"1118 752 OFFCURVE",
"1185 751 CURVE SMOOTH",
"1186 751 OFFCURVE",
"1187 751 OFFCURVE",
"1189 751 CURVE SMOOTH",
"1238 751 OFFCURVE",
"1268 770 OFFCURVE",
"1284 786 CURVE SMOOTH",
"1312 814 OFFCURVE",
"1324 866 OFFCURVE",
"1293 898 CURVE SMOOTH",
"1262 930 OFFCURVE",
"1188 923 OFFCURVE",
"1187 923 CURVE",
"1129 919 OFFCURVE",
"1076 903 OFFCURVE",
"1022 875 CURVE SMOOTH",
"994 860 OFFCURVE",
"966 841 OFFCURVE",
"938 820 CURVE",
"855 848 OFFCURVE",
"772 875 OFFCURVE",
"680 845 CURVE",
"675 843 OFFCURVE",
"672 838 OFFCURVE",
"674 832 CURVE",
"675 827 OFFCURVE",
"681 824 OFFCURVE",
"686 826 CURVE",
"767 853 OFFCURVE",
"862 825 OFFCURVE",
"920 804 CURVE",
"906 793 OFFCURVE",
"893 781 OFFCURVE",
"879 768 CURVE SMOOTH",
"789 681 OFFCURVE",
"707 567 OFFCURVE",
"619 445 CURVE SMOOTH",
"580 389 OFFCURVE",
"540 334 OFFCURVE",
"498 279 CURVE SMOOTH",
"327 46 OFFCURVE",
"219 -99 OFFCURVE",
"89 -99 CURVE SMOOTH",
"54 -99 OFFCURVE",
"11 -89 OFFCURVE",
"-11 -57 CURVE SMOOTH",
"-28 -33 OFFCURVE",
"-33 2 OFFCURVE",
"-23 44 CURVE",
"-22 49 OFFCURVE",
"-25 55 OFFCURVE",
"-31 56 CURVE SMOOTH",
"-36 57 OFFCURVE",
"-42 54 OFFCURVE",
"-43 48 CURVE",
"-53 1 OFFCURVE",
"-48 -40 OFFCURVE",
"-28 -69 CURVE SMOOTH",
"-3 -105 OFFCURVE",
"45 -119 OFFCURVE",
"90 -119 CURVE SMOOTH",
"229 -119 OFFCURVE"
);
},
{
closed = 1;
nodes = (
"1104 897 OFFCURVE",
"1189 903 CURVE",
"1189 903 OFFCURVE",
"1254 910 OFFCURVE",
"1278 884 CURVE SMOOTH",
"1299 861 OFFCURVE",
"1293 822 OFFCURVE",
"1269 800 CURVE",
"1249 780 OFFCURVE",
"1221 770 OFFCURVE",
"1185 771 CURVE SMOOTH",
"1123 772 OFFCURVE",
"1060 783 OFFCURVE",
"962 812 CURVE",
"1030 864 OFFCURVE"
);
}
);
width = 833;
},
{
layerId = "AF956123-A183-4F86-8774-5A4F8E572774";
width = 600;
}
);
unicode = 0049;
},
{
glyphname = Iacute;
lastChange = "2018-12-14 18:07:14 +0000";
layers = (
{
layerId = master01;
paths = (
{
closed = 1;
nodes = (
"339 30 OFFCURVE",
"514 267 CURVE SMOOTH",
"555 321 OFFCURVE",
"595 376 OFFCURVE",
"636 434 CURVE SMOOTH",
"739 578 OFFCURVE",
"834 710 OFFCURVE",
"942 797 CURVE",
"1051 765 OFFCURVE",
"1118 752 OFFCURVE",
"1185 751 CURVE SMOOTH",
"1186 751 OFFCURVE",
"1187 751 OFFCURVE",
"1189 751 CURVE SMOOTH",
"1238 751 OFFCURVE",
"1268 770 OFFCURVE",
"1284 786 CURVE SMOOTH",
"1312 814 OFFCURVE",
"1324 866 OFFCURVE",
"1293 898 CURVE SMOOTH",
"1262 930 OFFCURVE",
"1188 923 OFFCURVE",
"1187 923 CURVE",
"1129 919 OFFCURVE",
"1076 903 OFFCURVE",
"1022 875 CURVE SMOOTH",
"994 860 OFFCURVE",
"966 841 OFFCURVE",
"938 820 CURVE",
"855 848 OFFCURVE",
"772 875 OFFCURVE",
"680 845 CURVE",
"675 843 OFFCURVE",
"672 838 OFFCURVE",
"674 832 CURVE",
"675 827 OFFCURVE",
"681 824 OFFCURVE",
"686 826 CURVE",
"767 853 OFFCURVE",
"862 825 OFFCURVE",
"920 804 CURVE",
"906 793 OFFCURVE",
"893 781 OFFCURVE",
"879 768 CURVE SMOOTH",
"789 681 OFFCURVE",
"707 567 OFFCURVE",
"619 445 CURVE SMOOTH",
"580 389 OFFCURVE",
"540 334 OFFCURVE",
"498 279 CURVE SMOOTH",
"327 46 OFFCURVE",
"219 -99 OFFCURVE",
"89 -99 CURVE SMOOTH",
"54 -99 OFFCURVE",
"11 -89 OFFCURVE",
"-11 -57 CURVE SMOOTH",
"-28 -33 OFFCURVE",
"-33 2 OFFCURVE",
"-23 44 CURVE",
"-22 49 OFFCURVE",
"-25 55 OFFCURVE",
"-31 56 CURVE SMOOTH",
"-36 57 OFFCURVE",
"-42 54 OFFCURVE",
"-43 48 CURVE",
"-53 1 OFFCURVE",
"-48 -40 OFFCURVE",
"-28 -69 CURVE SMOOTH",
"-3 -105 OFFCURVE",
"45 -119 OFFCURVE",
"90 -119 CURVE SMOOTH",
"229 -119 OFFCURVE"
);
},
{
closed = 1;
nodes = (
"1104 897 OFFCURVE",
"1189 903 CURVE",
"1189 903 OFFCURVE",
"1254 910 OFFCURVE",
"1278 884 CURVE SMOOTH",
"1299 861 OFFCURVE",
"1293 822 OFFCURVE",
"1269 800 CURVE",
"1249 780 OFFCURVE",
"1221 770 OFFCURVE",
"1185 771 CURVE SMOOTH",
"1123 772 OFFCURVE",
"1060 783 OFFCURVE",
"962 812 CURVE",
"1030 864 OFFCURVE"
);
},
{
closed = 1;
nodes = (
"1255 999 OFFCURVE",
"1400 1091 CURVE",
"1404 1094 OFFCURVE",
"1406 1099 OFFCURVE",
"1403 1104 CURVE",
"1400 1108 OFFCURVE",
"1395 1109 OFFCURVE",
"1390 1106 CURVE SMOOTH",
"1263 1024 OFFCURVE",
"1089 968 OFFCURVE",
"935 988 CURVE",
"930 989 OFFCURVE",
"926 985 OFFCURVE",
"925 981 CURVE",
"924 976 OFFCURVE",
"927 971 OFFCURVE",
"932 970 CURVE",
"1094 953 OFFCURVE"
);
}
);
width = 833;
},
{
layerId = "AF956123-A183-4F86-8774-5A4F8E572774";
width = 600;
}
);
unicode = 00CD;
},
{
glyphname = Icircumflex;
lastChange = "2018-12-14 18:07:14 +0000";
layers = (
{
layerId = master01;
paths = (
{
closed = 1;
nodes = (
"339 30 OFFCURVE",
"514 267 CURVE SMOOTH",
"555 321 OFFCURVE",
"595 376 OFFCURVE",
"636 434 CURVE SMOOTH",
"739 578 OFFCURVE",
"834 710 OFFCURVE",
"942 797 CURVE",
"1051 765 OFFCURVE",
"1118 752 OFFCURVE",
"1185 751 CURVE SMOOTH",
"1186 751 OFFCURVE",
"1187 751 OFFCURVE",
"1189 751 CURVE SMOOTH",
"1238 751 OFFCURVE",
"1268 770 OFFCURVE",
"1284 786 CURVE SMOOTH",
"1312 814 OFFCURVE",
"1324 866 OFFCURVE",
"1293 898 CURVE SMOOTH",
"1262 930 OFFCURVE",
"1188 923 OFFCURVE",
"1187 923 CURVE",
"1129 919 OFFCURVE",
"1076 903 OFFCURVE",
"1022 875 CURVE SMOOTH",
"994 860 OFFCURVE",
"966 841 OFFCURVE",
"938 820 CURVE",
"855 848 OFFCURVE",
"772 875 OFFCURVE",
"680 845 CURVE",
"675 843 OFFCURVE",
"672 838 OFFCURVE",
"674 832 CURVE",
"675 827 OFFCURVE",
"681 824 OFFCURVE",
"686 826 CURVE",
"767 853 OFFCURVE",
"862 825 OFFCURVE",
"920 804 CURVE",
"906 793 OFFCURVE",
"893 781 OFFCURVE",
"879 768 CURVE SMOOTH",
"789 681 OFFCURVE",
"707 567 OFFCURVE",
"619 445 CURVE SMOOTH",
"580 389 OFFCURVE",
"540 334 OFFCURVE",
"498 279 CURVE SMOOTH",
"327 46 OFFCURVE",
"219 -99 OFFCURVE",
"89 -99 CURVE SMOOTH",
"54 -99 OFFCURVE",
"11 -89 OFFCURVE",
"-11 -57 CURVE SMOOTH",
"-28 -33 OFFCURVE",
"-33 2 OFFCURVE",
"-23 44 CURVE",
"-22 49 OFFCURVE",
"-25 55 OFFCURVE",
"-31 56 CURVE SMOOTH",
"-36 57 OFFCURVE",
"-42 54 OFFCURVE",
"-43 48 CURVE",
"-53 1 OFFCURVE",
"-48 -40 OFFCURVE",
"-28 -69 CURVE SMOOTH",
"-3 -105 OFFCURVE",
"45 -119 OFFCURVE",
"90 -119 CURVE SMOOTH",
"229 -119 OFFCURVE"
);
},
{
closed = 1;
nodes = (
"1104 897 OFFCURVE",
"1189 903 CURVE",
"1189 903 OFFCURVE",
"1254 910 OFFCURVE",
"1278 884 CURVE SMOOTH",
"1299 861 OFFCURVE",
"1293 822 OFFCURVE",
"1269 800 CURVE",
"1249 780 OFFCURVE",
"1221 770 OFFCURVE",
"1185 771 CURVE SMOOTH",
"1123 772 OFFCURVE",
"1060 783 OFFCURVE",
"962 812 CURVE",
"1030 864 OFFCURVE"
);
},
{
closed = 1;
nodes = (
"1458 909 OFFCURVE",
"1458 914 CURVE SMOOTH",
"1458 919 OFFCURVE",
"1454 923 OFFCURVE",
"1449 923 CURVE SMOOTH",
"1403 923 OFFCURVE",
"1371 944 OFFCURVE",
"1352 986 CURVE SMOOTH",
"1338 1018 OFFCURVE",
"1338 1051 OFFCURVE",
"1338 1052 CURVE SMOOTH",
"1338 1059 OFFCURVE",
"1329 1063 OFFCURVE",
"1324 1060 CURVE SMOOTH",
"1201 984 OFFCURVE",
"1091 963 OFFCURVE",
"1020 956 CURVE SMOOTH",
"943 948 OFFCURVE",
"893 959 OFFCURVE",
"893 959 CURVE",
"888 960 OFFCURVE",
"883 957 OFFCURVE",
"882 952 CURVE SMOOTH",
"881 947 OFFCURVE",
"884 942 OFFCURVE",
"889 941 CURVE",
"891 941 OFFCURVE",
"941 930 OFFCURVE",
"1021 938 CURVE SMOOTH",
"1068 942 OFFCURVE",
"1115 952 OFFCURVE",
"1162 967 CURVE SMOOTH",
"1216 983 OFFCURVE",
"1269 1007 OFFCURVE",
"1321 1037 CURVE",
"1322 1023 OFFCURVE",
"1326 1001 OFFCURVE",
"1336 979 CURVE SMOOTH",
"1357 931 OFFCURVE",
"1396 905 OFFCURVE",
"1449 905 CURVE SMOOTH",
"1454 905 OFFCURVE"
);
}
);
width = 833;
},
{
layerId = "AF956123-A183-4F86-8774-5A4F8E572774";
width = 600;
}
);
unicode = 00CE;
},
{
glyphname = Idieresis;
lastChange = "2018-12-14 18:07:14 +0000";
layers = (
{
layerId = master01;
paths = (
{
closed = 1;
nodes = (
"339 30 OFFCURVE",
"514 267 CURVE SMOOTH",
"555 321 OFFCURVE",
"595 376 OFFCURVE",
"636 434 CURVE SMOOTH",
"739 578 OFFCURVE",
"834 710 OFFCURVE",
"942 797 CURVE",
"1051 765 OFFCURVE",
"1118 752 OFFCURVE",
"1185 751 CURVE SMOOTH",
"1186 751 OFFCURVE",
"1187 751 OFFCURVE",
"1189 751 CURVE SMOOTH",
"1238 751 OFFCURVE",
"1268 770 OFFCURVE",
"1284 786 CURVE SMOOTH",
"1312 814 OFFCURVE",
"1324 866 OFFCURVE",
"1293 898 CURVE SMOOTH",
"1262 930 OFFCURVE",
"1188 923 OFFCURVE",
"1187 923 CURVE",
"1129 919 OFFCURVE",
"1076 903 OFFCURVE",
"1022 875 CURVE SMOOTH",
"994 860 OFFCURVE",
"966 841 OFFCURVE",
"938 820 CURVE",
"855 848 OFFCURVE",
"772 875 OFFCURVE",
"680 845 CURVE",
"675 843 OFFCURVE",
"672 838 OFFCURVE",
"674 832 CURVE",
"675 827 OFFCURVE",
"681 824 OFFCURVE",
"686 826 CURVE",
"767 853 OFFCURVE",
"862 825 OFFCURVE",
"920 804 CURVE",
"906 793 OFFCURVE",
"893 781 OFFCURVE",
"879 768 CURVE SMOOTH",
"789 681 OFFCURVE",
"707 567 OFFCURVE",
"619 445 CURVE SMOOTH",
"580 389 OFFCURVE",
"540 334 OFFCURVE",
"498 279 CURVE SMOOTH",
"327 46 OFFCURVE",
"219 -99 OFFCURVE",
"89 -99 CURVE SMOOTH",
"54 -99 OFFCURVE",
"11 -89 OFFCURVE",
"-11 -57 CURVE SMOOTH",
"-28 -33 OFFCURVE",
"-33 2 OFFCURVE",
"-23 44 CURVE",
"-22 49 OFFCURVE",
"-25 55 OFFCURVE",
"-31 56 CURVE SMOOTH",
"-36 57 OFFCURVE",
"-42 54 OFFCURVE",
"-43 48 CURVE",
"-53 1 OFFCURVE",
"-48 -40 OFFCURVE",
"-28 -69 CURVE SMOOTH",
"-3 -105 OFFCURVE",
"45 -119 OFFCURVE",
"90 -119 CURVE SMOOTH",
"229 -119 OFFCURVE"
);
},
{
closed = 1;
nodes = (
"1104 897 OFFCURVE",
"1189 903 CURVE",
"1189 903 OFFCURVE",
"1254 910 OFFCURVE",
"1278 884 CURVE SMOOTH",
"1299 861 OFFCURVE",
"1293 822 OFFCURVE",
"1269 800 CURVE",
"1249 780 OFFCURVE",
"1221 770 OFFCURVE",
"1185 771 CURVE SMOOTH",
"1123 772 OFFCURVE",
"1060 783 OFFCURVE",
"962 812 CURVE",
"1030 864 OFFCURVE"
);
},
{
closed = 1;
nodes = (
"1138 1042 OFFCURVE",
"1108 1042 CURVE SMOOTH",
"1078 1042 OFFCURVE",
"1054 1018 OFFCURVE",
"1054 988 CURVE SMOOTH",
"1054 958 OFFCURVE",
"1078 934 OFFCURVE",
"1108 934 CURVE SMOOTH",
"1138 934 OFFCURVE",
"1162 958 OFFCURVE",
"1162 988 CURVE SMOOTH",
"1162 1018 OFFCURVE"
);
},
{
closed = 1;
nodes = (
"1300 1042 OFFCURVE",
"1270 1042 CURVE SMOOTH",
"1240 1042 OFFCURVE",
"1216 1018 OFFCURVE",
"1216 988 CURVE SMOOTH",
"1216 958 OFFCURVE",
"1240 934 OFFCURVE",
"1270 934 CURVE SMOOTH",
"1300 934 OFFCURVE",
"1324 958 OFFCURVE",
"1324 988 CURVE SMOOTH",
"1324 1018 OFFCURVE"
);
}
);
width = 833;
},
{
layerId = "AF956123-A183-4F86-8774-5A4F8E572774";
width = 600;
}
);
unicode = 00CF;
},
{
glyphname = Igrave;
lastChange = "2018-12-14 18:07:14 +0000";
layers = (
{
layerId = master01;
paths = (
{
closed = 1;
nodes = (
"339 30 OFFCURVE",
"514 267 CURVE SMOOTH",
"555 321 OFFCURVE",
"595 376 OFFCURVE",
"636 434 CURVE SMOOTH",
"739 578 OFFCURVE",
"834 710 OFFCURVE",
"942 797 CURVE",
"1051 765 OFFCURVE",
"1118 752 OFFCURVE",
"1185 751 CURVE SMOOTH",
"1186 751 OFFCURVE",
"1187 751 OFFCURVE",
"1189 751 CURVE SMOOTH",
"1238 751 OFFCURVE",
"1268 770 OFFCURVE",
"1284 786 CURVE SMOOTH",
"1312 814 OFFCURVE",
"1324 866 OFFCURVE",
"1293 898 CURVE SMOOTH",
"1262 930 OFFCURVE",
"1188 923 OFFCURVE",
"1187 923 CURVE",
"1129 919 OFFCURVE",
"1076 903 OFFCURVE",
"1022 875 CURVE SMOOTH",
"994 860 OFFCURVE",
"966 841 OFFCURVE",
"938 820 CURVE",
"855 848 OFFCURVE",
"772 875 OFFCURVE",
"680 845 CURVE",
"675 843 OFFCURVE",
"672 838 OFFCURVE",
"674 832 CURVE",
"675 827 OFFCURVE",
"681 824 OFFCURVE",
"686 826 CURVE",
"767 853 OFFCURVE",
"862 825 OFFCURVE",
"920 804 CURVE",
"906 793 OFFCURVE",
"893 781 OFFCURVE",
"879 768 CURVE SMOOTH",
"789 681 OFFCURVE",
"707 567 OFFCURVE",
"619 445 CURVE SMOOTH",
"580 389 OFFCURVE",
"540 334 OFFCURVE",
"498 279 CURVE SMOOTH",
"327 46 OFFCURVE",
"219 -99 OFFCURVE",
"89 -99 CURVE SMOOTH",
"54 -99 OFFCURVE",
"11 -89 OFFCURVE",
"-11 -57 CURVE SMOOTH",
"-28 -33 OFFCURVE",
"-33 2 OFFCURVE",
"-23 44 CURVE",
"-22 49 OFFCURVE",
"-25 55 OFFCURVE",
"-31 56 CURVE SMOOTH",
"-36 57 OFFCURVE",
"-42 54 OFFCURVE",
"-43 48 CURVE",
"-53 1 OFFCURVE",
"-48 -40 OFFCURVE",
"-28 -69 CURVE SMOOTH",
"-3 -105 OFFCURVE",
"45 -119 OFFCURVE",
"90 -119 CURVE SMOOTH",
"229 -119 OFFCURVE"
);
},
{
closed = 1;
nodes = (
"1104 897 OFFCURVE",
"1189 903 CURVE",
"1189 903 OFFCURVE",
"1254 910 OFFCURVE",
"1278 884 CURVE SMOOTH",
"1299 861 OFFCURVE",
"1293 822 OFFCURVE",
"1269 800 CURVE",
"1249 780 OFFCURVE",
"1221 770 OFFCURVE",
"1185 771 CURVE SMOOTH",
"1123 772 OFFCURVE",
"1060 783 OFFCURVE",
"962 812 CURVE",
"1030 864 OFFCURVE"
);
},
{
closed = 1;
nodes = (
"1258 957 OFFCURVE",
"1278 959 CURVE",
"1283 959 OFFCURVE",
"1287 964 OFFCURVE",
"1287 969 CURVE",
"1286 974 OFFCURVE",
"1282 977 OFFCURVE",
"1277 977 CURVE",
"1144 966 OFFCURVE",
"978 990 OFFCURVE",
"929 1137 CURVE SMOOTH",
"921 1164 OFFCURVE",
"921 1184 OFFCURVE",
"921 1184 CURVE",
"921 1189 OFFCURVE",
"917 1193 OFFCURVE",
"912 1193 CURVE SMOOTH",
"907 1193 OFFCURVE",
"903 1189 OFFCURVE",
"903 1184 CURVE SMOOTH",
"903 1183 OFFCURVE",
"903 1162 OFFCURVE",
"912 1133 CURVE SMOOTH",
"950 1004 OFFCURVE",
"1088 956 OFFCURVE",
"1218 956 CURVE SMOOTH",
"1238 956 OFFCURVE"
);
}
);
width = 833;
},
{
layerId = "AF956123-A183-4F86-8774-5A4F8E572774";
width = 600;
}
);
unicode = 00CC;
},
{
glyphname = J;
lastChange = "2018-12-14 18:07:14 +0000";
layers = (
{
layerId = master01;
paths = (
{
closed = 1;
nodes = (
"-24 -167 OFFCURVE",
"132 2 CURVE",
"242 17 OFFCURVE",
"347 26 OFFCURVE",
"413 130 CURVE",
"445 176 OFFCURVE",
"454 219 OFFCURVE",
"455 221 CURVE",
"456 226 OFFCURVE",
"453 231 OFFCURVE",
"447 233 CURVE",
"442 234 OFFCURVE",
"437 230 OFFCURVE",
"435 225 CURVE",
"435 225 OFFCURVE",
"426 184 OFFCURVE",
"396 140 CURVE SMOOTH",
"338 55 OFFCURVE",
"248 36 OFFCURVE",
"150 24 CURVE",
"266 155 OFFCURVE",
"376 296 OFFCURVE",
"456 405 CURVE SMOOTH",
"577 568 OFFCURVE",
"705 729 OFFCURVE",
"849 835 CURVE",
"1023 787 OFFCURVE",
"1082 778 OFFCURVE",
"1146 780 CURVE SMOOTH",
"1301 786 OFFCURVE",
"1315 850 OFFCURVE",
"1322 869 CURVE",
"1328 898 OFFCURVE",
"1326 920 OFFCURVE",
"1311 939 CURVE SMOOTH",
"1283 974 OFFCURVE",
"1215 978 OFFCURVE",
"1210 978 CURVE",
"1086 984 OFFCURVE",
"966 944 OFFCURVE",
"845 857 CURVE",
"826 862 OFFCURVE",
"805 868 OFFCURVE",
"783 874 CURVE SMOOTH",
"681 903 OFFCURVE",
"597 904 OFFCURVE",
"544 900 CURVE SMOOTH",
"486 895 OFFCURVE",
"452 884 OFFCURVE",
"451 883 CURVE",
"446 882 OFFCURVE",
"443 876 OFFCURVE",
"445 871 CURVE",
"447 865 OFFCURVE",
"452 863 OFFCURVE",
"458 864 CURVE",
"458 864 OFFCURVE",
"491 875 OFFCURVE",
"546 880 CURVE SMOOTH",
"597 884 OFFCURVE",
"679 882 OFFCURVE",
"778 855 CURVE",
"794 850 OFFCURVE",
"810 846 OFFCURVE",
"825 842 CURVE",
"811 832 OFFCURVE",
"798 821 OFFCURVE",
"785 810 CURVE SMOOTH",
"659 704 OFFCURVE",
"545 558 OFFCURVE",
"440 417 CURVE SMOOTH",
"360 308 OFFCURVE",
"245 160 OFFCURVE",
"121 21 CURVE",
"-24 0 OFFCURVE",
"-178 -6 OFFCURVE",
"-328 -69 CURVE SMOOTH",
"-422 -109 OFFCURVE",
"-565 -211 OFFCURVE",
"-547 -335 CURVE SMOOTH",
"-539 -383 OFFCURVE",
"-497 -401 OFFCURVE",
"-450 -402 CURVE SMOOTH",
"-240 -402 OFFCURVE"
);
},
{
closed = 1;
nodes = (
"60 -46 OFFCURVE",
"40 -67 CURVE SMOOTH",
"-135 -250 OFFCURVE",
"-271 -352 OFFCURVE",
"-379 -375 CURVE SMOOTH",
"-410 -381 OFFCURVE",
"-512 -407 OFFCURVE",
"-527 -332 CURVE SMOOTH",
"-547 -225 OFFCURVE",
"-408 -125 OFFCURVE",
"-320 -88 CURVE SMOOTH",
"-189 -30 OFFCURVE",
"-46 -21 OFFCURVE",
"101 -2 CURVE",
"81 -24 OFFCURVE"
);
},
{
closed = 1;
nodes = (
"1085 964 OFFCURVE",
"1209 958 CURVE",
"1209 958 LINE SMOOTH",
"1209 958 OFFCURVE",
"1209 958 OFFCURVE",
"1209 958 CURVE",
"1211 958 OFFCURVE",
"1272 957 OFFCURVE",
"1296 926 CURVE SMOOTH",
"1306 913 OFFCURVE",
"1308 895 OFFCURVE",
"1303 873 CURVE",
"1288 828 OFFCURVE",
"1250 805 OFFCURVE",
"1145 800 CURVE SMOOTH",
"1085 797 OFFCURVE",
"1029 807 OFFCURVE",
"870 850 CURVE",
"973 922 OFFCURVE"
);
}
);
width = 609;
},
{
layerId = "AF956123-A183-4F86-8774-5A4F8E572774";
width = 600;
}
);
unicode = 004A;
},
{
glyphname = K;
lastChange = "2018-12-14 18:07:14 +0000";
layers = (
{
layerId = master01;
paths = (
{
closed = 1;
nodes = (
"1154 853 OFFCURVE",
"1128 841 CURVE SMOOTH",
"1103 829 OFFCURVE",
"1078 809 OFFCURVE",
"1053 788 CURVE SMOOTH",
"1028 767 OFFCURVE",
"1003 743 OFFCURVE",
"979 722 CURVE SMOOTH",
"902 657 OFFCURVE",
"812 590 OFFCURVE",
"719 541 CURVE SMOOTH",
"653 506 OFFCURVE",
"586 479 OFFCURVE",
"519 467 CURVE",
"495 497 OFFCURVE",
"464 525 OFFCURVE",
"432 547 CURVE SMOOTH",
"421 555 OFFCURVE",
"408 562 OFFCURVE",
"396 568 CURVE",
"454 646 OFFCURVE",
"511 719 OFFCURVE",
"569 780 CURVE SMOOTH",
"595 807 OFFCURVE",
"620 832 OFFCURVE",
"647 854 CURVE",
"722 839 OFFCURVE",
"785 828 OFFCURVE",
"819 826 CURVE SMOOTH",
"867 823 OFFCURVE",
"921 831 OFFCURVE",
"944 871 CURVE SMOOTH",
"956 892 OFFCURVE",
"955 923 OFFCURVE",
"943 942 CURVE SMOOTH",
"927 968 OFFCURVE",
"896 973 OFFCURVE",
"871 973 CURVE",
"814 971 OFFCURVE",
"760 952 OFFCURVE",
"708 921 CURVE SMOOTH",
"686 907 OFFCURVE",
"663 891 OFFCURVE",
"642 873 CURVE",
"637 874 OFFCURVE",
"632 875 OFFCURVE",
"628 876 CURVE",
"543 893 OFFCURVE",
"445 915 OFFCURVE",
"355 935 CURVE SMOOTH",
"304 946 OFFCURVE",
"264 951 OFFCURVE",
"231 951 CURVE SMOOTH",
"203 951 OFFCURVE",
"180 947 OFFCURVE",
"163 941 CURVE",
"137 933 OFFCURVE",
"121 918 OFFCURVE",
"113 904 CURVE SMOOTH",
"104 888 OFFCURVE",
"103 877 OFFCURVE",
"104 867 CURVE",
"105 862 OFFCURVE",
"109 858 OFFCURVE",
"114 859 CURVE",
"119 859 OFFCURVE",
"123 864 OFFCURVE",
"122 869 CURVE",
"121 893 OFFCURVE",
"135 907 OFFCURVE",
"150 916 CURVE SMOOTH",
"165 925 OFFCURVE",
"191 933 OFFCURVE",
"231 933 CURVE SMOOTH",
"262 933 OFFCURVE",
"301 928 OFFCURVE",
"351 917 CURVE SMOOTH",
"441 897 OFFCURVE",
"539 876 OFFCURVE",
"624 859 CURVE",
"576 816 OFFCURVE",
"529 765 OFFCURVE",
"482 708 CURVE SMOOTH",
"447 666 OFFCURVE",
"413 622 OFFCURVE",
"379 576 CURVE",
"359 585 OFFCURVE",
"335 591 OFFCURVE",
"313 591 CURVE SMOOTH",
"277 591 OFFCURVE",
"244 568 OFFCURVE",
"244 532 CURVE SMOOTH",
"244 494 OFFCURVE",
"278 480 OFFCURVE",
"298 466 CURVE",
"285 449 OFFCURVE",
"272 431 OFFCURVE",
"260 414 CURVE SMOOTH",
"167 288 OFFCURVE",
"93 186 OFFCURVE",
"26 115 CURVE SMOOTH",
"-7 80 OFFCURVE",
"-39 53 OFFCURVE",
"-70 34 CURVE SMOOTH",
"-101 16 OFFCURVE",
"-132 7 OFFCURVE",
"-164 7 CURVE SMOOTH",
"-171 7 OFFCURVE",
"-178 7 OFFCURVE",
"-185 8 CURVE SMOOTH",
"-217 12 OFFCURVE",
"-239 23 OFFCURVE",
"-254 39 CURVE SMOOTH",
"-268 55 OFFCURVE",
"-276 76 OFFCURVE",
"-276 103 CURVE SMOOTH",
"-276 115 OFFCURVE",
"-275 129 OFFCURVE",
"-271 143 CURVE",
"-270 148 OFFCURVE",
"-273 152 OFFCURVE",
"-278 153 CURVE SMOOTH",
"-283 154 OFFCURVE",
"-288 151 OFFCURVE",
"-289 147 CURVE",
"-292 131 OFFCURVE",
"-294 117 OFFCURVE",
"-294 103 CURVE SMOOTH",
"-294 73 OFFCURVE",
"-285 46 OFFCURVE",
"-267 26 CURVE SMOOTH",
"-249 7 OFFCURVE",
"-222 -6 OFFCURVE",
"-187 -10 CURVE SMOOTH",
"-179 -11 OFFCURVE",
"-172 -11 OFFCURVE",
"-164 -11 CURVE",
"-164 -11 OFFCURVE",
"-164 -11 OFFCURVE",
"-164 -11 CURVE",
"-128 -11 OFFCURVE",
"-94 -1 OFFCURVE",
"-61 19 CURVE SMOOTH",
"-11 48 OFFCURVE",
"38 97 OFFCURVE",
"92 162 CURVE SMOOTH",
"146 228 OFFCURVE",
"204 309 OFFCURVE",
"274 403 CURVE SMOOTH",
"288 422 OFFCURVE",
"302 440 OFFCURVE",
"315 459 CURVE",
"354 446 OFFCURVE",
"394 440 OFFCURVE",
"434 440 CURVE SMOOTH",
"460 440 OFFCURVE",
"486 442 OFFCURVE",
"512 447 CURVE",
"539 412 OFFCURVE",
"564 369 OFFCURVE",
"573 320 CURVE SMOOTH",
"577 299 OFFCURVE",
"578 279 OFFCURVE",
"578 260 CURVE SMOOTH",
"578 223 OFFCURVE",
"573 189 OFFCURVE",
"567 157 CURVE SMOOTH",
"562 125 OFFCURVE",
"557 95 OFFCURVE",
"557 67 CURVE SMOOTH",
"557 32 OFFCURVE",
"566 5 OFFCURVE",
"589 -16 CURVE SMOOTH",
"647 -71 OFFCURVE",
"739 -22 OFFCURVE",
"783 22 CURVE SMOOTH",
"786 25 OFFCURVE",
"786 31 OFFCURVE",
"783 34 CURVE SMOOTH",
"779 38 OFFCURVE",
"774 38 OFFCURVE",
"770 35 CURVE",
"729 -7 OFFCURVE",
"650 -50 OFFCURVE",
"601 -3 CURVE SMOOTH",
"580 16 OFFCURVE",
"575 42 OFFCURVE",
"575 67 CURVE SMOOTH",
"575 92 OFFCURVE",
"580 122 OFFCURVE",
"585 154 CURVE SMOOTH",
"591 186 OFFCURVE",
"596 222 OFFCURVE",
"596 260 CURVE SMOOTH",
"596 280 OFFCURVE",
"594 301 OFFCURVE",
"590 323 CURVE SMOOTH",
"581 373 OFFCURVE",
"558 416 OFFCURVE",
"532 451 CURVE",
"598 465 OFFCURVE",
"664 491 OFFCURVE",
"727 525 CURVE SMOOTH",
"822 575 OFFCURVE",
"913 642 OFFCURVE",
"990 709 CURVE SMOOTH",
"1023 737 OFFCURVE",
"1057 769 OFFCURVE",
"1089 794 CURVE SMOOTH",
"1105 807 OFFCURVE",
"1121 817 OFFCURVE",
"1136 825 CURVE",
"1160 836 OFFCURVE",
"1182 839 OFFCURVE",
"1205 831 CURVE",
"1228 820 OFFCURVE",
"1240 800 OFFCURVE",
"1240 776 CURVE SMOOTH",
"1240 764 OFFCURVE",
"1237 753 OFFCURVE",
"1234 744 CURVE",
"1233 740 OFFCURVE",
"1233 734 OFFCURVE",
"1239 732 CURVE",
"1243 731 OFFCURVE",
"1248 732 OFFCURVE",
"1250 737 CURVE SMOOTH",
"1252 742 OFFCURVE",
"1258 756 OFFCURVE",
"1258 776 CURVE SMOOTH",
"1258 808 OFFCURVE",
"1240 836 OFFCURVE",
"1212 847 CURVE SMOOTH",
"1183 859 OFFCURVE"
);
},
{
closed = 1;
nodes = (
"819 954 OFFCURVE",
"871 955 CURVE",
"895 954 OFFCURVE",
"916 951 OFFCURVE",
"928 933 CURVE",
"940 913 OFFCURVE",
"935 885 OFFCURVE",
"921 869 CURVE",
"895 843 OFFCURVE",
"853 842 OFFCURVE",
"821 844 CURVE SMOOTH",
"790 846 OFFCURVE",
"733 856 OFFCURVE",
"665 869 CURVE",
"682 882 OFFCURVE",
"700 895 OFFCURVE",
"717 905 CURVE SMOOTH",
"768 936 OFFCURVE"
);
},
{
closed = 1;
nodes = (
"290 574 OFFCURVE",
"313 574 CURVE SMOOTH",
"333 574 OFFCURVE",
"351 568 OFFCURVE",
"368 561 CURVE",
"348 535 OFFCURVE",
"328 508 OFFCURVE",
"309 481 CURVE",
"289 490 OFFCURVE",
"262 509 OFFCURVE",
"262 532 CURVE SMOOTH",
"262 560 OFFCURVE"
);
},
{
closed = 1;
nodes = (
"361 463 OFFCURVE",
"326 474 CURVE",
"346 501 OFFCURVE",
"365 528 OFFCURVE",
"385 554 CURVE",
"398 548 OFFCURVE",
"410 540 OFFCURVE",
"422 532 CURVE SMOOTH",
"438 521 OFFCURVE",
"469 497 OFFCURVE",
"499 463 CURVE",
"477 460 OFFCURVE",
"455 458 OFFCURVE",
"434 458 CURVE SMOOTH",
"397 458 OFFCURVE"
);
}
);
width = 898;
},
{
layerId = "AF956123-A183-4F86-8774-5A4F8E572774";
width = 600;
}
);
unicode = 004B;
},
{
glyphname = L;
lastChange = "2018-12-14 18:07:14 +0000";
layers = (
{
layerId = master01;
paths = (
{
closed = 1;
nodes = (
"673 -243 OFFCURVE",
"727 -243 CURVE SMOOTH",
"773 -243 OFFCURVE",
"826 -230 OFFCURVE",
"856 -184 CURVE",
"880 -142 OFFCURVE",
"874 -98 OFFCURVE",
"845 -57 CURVE SMOOTH",
"832 -39 OFFCURVE",
"819 -30 OFFCURVE",
"818 -29 CURVE",
"814 -26 OFFCURVE",
"809 -27 OFFCURVE",
"806 -31 CURVE SMOOTH",
"803 -35 OFFCURVE",
"803 -40 OFFCURVE",
"807 -44 CURVE",
"809 -45 OFFCURVE",
"820 -54 OFFCURVE",
"832 -69 CURVE",
"855 -101 OFFCURVE",
"861 -138 OFFCURVE",
"841 -175 CURVE",
"817 -212 OFFCURVE",
"773 -224 OFFCURVE",
"727 -225 CURVE SMOOTH",
"676 -225 OFFCURVE",
"615 -209 OFFCURVE",
"549 -172 CURVE SMOOTH",
"452 -118 OFFCURVE",
"398 -58 OFFCURVE",
"351 -6 CURVE",
"345 0 OFFCURVE",
"340 7 OFFCURVE",
"334 13 CURVE",
"373 41 OFFCURVE",
"414 77 OFFCURVE",
"456 120 CURVE SMOOTH",
"519 185 OFFCURVE",
"585 267 OFFCURVE",
"655 361 CURVE SMOOTH",
"756 497 OFFCURVE",
"842 634 OFFCURVE",
"934 738 CURVE SMOOTH",
"965 773 OFFCURVE",
"996 804 OFFCURVE",
"1029 830 CURVE",
"1053 821 OFFCURVE",
"1074 813 OFFCURVE",
"1093 806 CURVE SMOOTH",
"1130 793 OFFCURVE",
"1162 784 OFFCURVE",
"1204 781 CURVE SMOOTH",
"1229 780 OFFCURVE",
"1255 781 OFFCURVE",
"1281 793 CURVE SMOOTH",
"1304 804 OFFCURVE",
"1317 821 OFFCURVE",
"1323 835 CURVE",
"1328 848 OFFCURVE",
"1334 874 OFFCURVE",
"1317 901 CURVE",
"1300 925 OFFCURVE",
"1272 934 OFFCURVE",
"1241 933 CURVE SMOOTH",
"1177 930 OFFCURVE",
"1120 911 OFFCURVE",
"1068 879 CURVE SMOOTH",
"1054 870 OFFCURVE",
"1040 861 OFFCURVE",
"1026 850 CURVE",
"1006 858 OFFCURVE",
"983 866 OFFCURVE",
"957 874 CURVE SMOOTH",
"923 885 OFFCURVE",
"891 889 OFFCURVE",
"862 889 CURVE SMOOTH",
"777 889 OFFCURVE",
"719 855 OFFCURVE",
"718 854 CURVE",
"714 852 OFFCURVE",
"712 846 OFFCURVE",
"715 842 CURVE",
"717 838 OFFCURVE",
"722 836 OFFCURVE",
"727 839 CURVE",
"730 840 OFFCURVE",
"785 871 OFFCURVE",
"862 871 CURVE SMOOTH",
"889 871 OFFCURVE",
"919 867 OFFCURVE",
"951 857 CURVE SMOOTH",
"973 850 OFFCURVE",
"992 843 OFFCURVE",
"1009 837 CURVE",
"954 791 OFFCURVE",
"903 732 OFFCURVE",
"852 665 CURVE SMOOTH",
"783 576 OFFCURVE",
"716 473 OFFCURVE",
"641 372 CURVE SMOOTH",
"548 246 OFFCURVE",
"462 144 OFFCURVE",
"381 73 CURVE SMOOTH",
"361 56 OFFCURVE",
"341 40 OFFCURVE",
"322 26 CURVE",
"308 40 OFFCURVE",
"295 53 OFFCURVE",
"281 66 CURVE",
"235 103 OFFCURVE",
"179 127 OFFCURVE",
"116 129 CURVE SMOOTH",
"76 129 OFFCURVE",
"33 112 OFFCURVE",
"18 71 CURVE SMOOTH",
"-12 -15 OFFCURVE",
"85 -54 OFFCURVE",
"159 -54 CURVE SMOOTH",
"196 -54 OFFCURVE",
"234 -43 OFFCURVE",
"273 -24 CURVE",
"288 -16 OFFCURVE",
"304 -8 OFFCURVE",
"319 3 CURVE",
"336 -16 OFFCURVE",
"355 -37 OFFCURVE",
"375 -59 CURVE SMOOTH",
"415 -101 OFFCURVE",
"465 -146 OFFCURVE",
"540 -188 CURVE SMOOTH",
"608 -226 OFFCURVE"
);
},
{
closed = 1;
nodes = (
"69 110 OFFCURVE",
"116 111 CURVE SMOOTH",
"171 111 OFFCURVE",
"225 87 OFFCURVE",
"269 52 CURVE SMOOTH",
"282 41 OFFCURVE",
"294 29 OFFCURVE",
"307 16 CURVE",
"293 7 OFFCURVE",
"279 -1 OFFCURVE",
"265 -8 CURVE SMOOTH",
"228 -26 OFFCURVE",
"193 -36 OFFCURVE",
"159 -36 CURVE SMOOTH",
"111 -36 OFFCURVE",
"37 -20 OFFCURVE",
"30 39 CURVE",
"30 86 OFFCURVE"
);
},
{
closed = 1;
nodes = (
"1066 835 OFFCURVE",
"1046 843 CURVE",
"1056 850 OFFCURVE",
"1067 857 OFFCURVE",
"1077 864 CURVE",
"1128 894 OFFCURVE",
"1181 913 OFFCURVE",
"1242 915 CURVE SMOOTH",
"1263 915 OFFCURVE",
"1287 910 OFFCURVE",
"1302 891 CURVE",
"1316 868 OFFCURVE",
"1312 843 OFFCURVE",
"1295 825 CURVE SMOOTH",
"1275 804 OFFCURVE",
"1244 798 OFFCURVE",
"1205 799 CURVE",
"1165 802 OFFCURVE",
"1135 810 OFFCURVE",
"1099 823 CURVE SMOOTH",
"1083 829 OFFCURVE"
);
}
);
width = 833;
},
{
layerId = "AF956123-A183-4F86-8774-5A4F8E572774";
width = 600;
}
);
unicode = 004C;
},
{
glyphname = Lslash;
lastChange = "2018-12-14 18:07:14 +0000";
layers = (
{
layerId = master01;
paths = (
{
closed = 1;
nodes = (
"931 491 OFFCURVE",
"932 495 OFFCURVE",
"930 500 CURVE SMOOTH",
"928 505 OFFCURVE",
"922 507 OFFCURVE",
"918 504 CURVE",
"370 248 LINE SMOOTH",
"366 246 OFFCURVE",
"363 240 OFFCURVE",
"366 236 CURVE",
"368 232 OFFCURVE",
"373 229 OFFCURVE",
"378 232 CURVE",
"926 488 LINE"
);
},
{
closed = 1;
nodes = (
"673 -243 OFFCURVE",
"727 -243 CURVE SMOOTH",
"773 -243 OFFCURVE",
"826 -230 OFFCURVE",
"856 -184 CURVE",
"880 -142 OFFCURVE",
"874 -98 OFFCURVE",
"845 -57 CURVE SMOOTH",
"832 -39 OFFCURVE",
"819 -30 OFFCURVE",
"818 -29 CURVE",
"814 -26 OFFCURVE",
"809 -27 OFFCURVE",
"806 -31 CURVE SMOOTH",
"803 -35 OFFCURVE",
"803 -40 OFFCURVE",
"807 -44 CURVE",
"809 -45 OFFCURVE",
"820 -54 OFFCURVE",
"832 -69 CURVE",
"855 -101 OFFCURVE",
"861 -138 OFFCURVE",
"841 -175 CURVE",
"817 -212 OFFCURVE",
"773 -224 OFFCURVE",
"727 -225 CURVE SMOOTH",
"676 -225 OFFCURVE",
"615 -209 OFFCURVE",
"549 -172 CURVE SMOOTH",
"452 -118 OFFCURVE",
"398 -58 OFFCURVE",
"351 -6 CURVE",
"345 0 OFFCURVE",
"340 7 OFFCURVE",
"334 13 CURVE",
"373 41 OFFCURVE",
"414 77 OFFCURVE",
"456 120 CURVE SMOOTH",
"519 185 OFFCURVE",
"585 267 OFFCURVE",
"655 361 CURVE SMOOTH",
"756 497 OFFCURVE",
"842 634 OFFCURVE",
"934 738 CURVE SMOOTH",
"965 773 OFFCURVE",
"996 804 OFFCURVE",
"1029 830 CURVE",
"1053 821 OFFCURVE",
"1074 813 OFFCURVE",
"1093 806 CURVE SMOOTH",
"1130 793 OFFCURVE",
"1162 784 OFFCURVE",
"1204 781 CURVE SMOOTH",
"1229 780 OFFCURVE",
"1255 781 OFFCURVE",
"1281 793 CURVE SMOOTH",
"1304 804 OFFCURVE",
"1317 821 OFFCURVE",
"1323 835 CURVE",
"1328 848 OFFCURVE",
"1334 874 OFFCURVE",
"1317 901 CURVE",
"1300 925 OFFCURVE",
"1272 934 OFFCURVE",
"1241 933 CURVE SMOOTH",
"1177 930 OFFCURVE",
"1120 911 OFFCURVE",
"1068 879 CURVE SMOOTH",
"1054 870 OFFCURVE",
"1040 861 OFFCURVE",
"1026 850 CURVE",
"1006 858 OFFCURVE",
"983 866 OFFCURVE",
"957 874 CURVE SMOOTH",
"923 885 OFFCURVE",
"891 889 OFFCURVE",
"862 889 CURVE SMOOTH",
"777 889 OFFCURVE",
"719 855 OFFCURVE",
"718 854 CURVE",
"714 852 OFFCURVE",
"712 846 OFFCURVE",
"715 842 CURVE",
"717 838 OFFCURVE",
"722 836 OFFCURVE",
"727 839 CURVE",
"730 840 OFFCURVE",
"785 871 OFFCURVE",
"862 871 CURVE SMOOTH",
"889 871 OFFCURVE",
"919 867 OFFCURVE",
"951 857 CURVE SMOOTH",
"973 850 OFFCURVE",
"992 843 OFFCURVE",
"1009 837 CURVE",
"954 791 OFFCURVE",
"903 732 OFFCURVE",
"852 665 CURVE SMOOTH",
"783 576 OFFCURVE",
"716 473 OFFCURVE",
"641 372 CURVE SMOOTH",
"548 246 OFFCURVE",
"462 144 OFFCURVE",
"381 73 CURVE SMOOTH",
"361 56 OFFCURVE",
"341 40 OFFCURVE",
"322 26 CURVE",
"308 40 OFFCURVE",
"295 53 OFFCURVE",
"281 66 CURVE",
"235 103 OFFCURVE",
"179 127 OFFCURVE",
"116 129 CURVE SMOOTH",
"76 129 OFFCURVE",
"33 112 OFFCURVE",
"18 71 CURVE SMOOTH",
"-12 -15 OFFCURVE",
"85 -54 OFFCURVE",
"159 -54 CURVE SMOOTH",
"196 -54 OFFCURVE",
"234 -43 OFFCURVE",
"273 -24 CURVE",
"288 -16 OFFCURVE",
"304 -8 OFFCURVE",
"319 3 CURVE",
"336 -16 OFFCURVE",
"355 -37 OFFCURVE",
"375 -59 CURVE SMOOTH",
"415 -101 OFFCURVE",
"465 -146 OFFCURVE",
"540 -188 CURVE SMOOTH",
"608 -226 OFFCURVE"
);
},
{
closed = 1;
nodes = (
"69 110 OFFCURVE",
"116 111 CURVE SMOOTH",
"171 111 OFFCURVE",
"225 87 OFFCURVE",
"269 52 CURVE SMOOTH",
"282 41 OFFCURVE",
"294 29 OFFCURVE",
"307 16 CURVE",
"293 7 OFFCURVE",
"279 -1 OFFCURVE",
"265 -8 CURVE SMOOTH",
"228 -26 OFFCURVE",
"193 -36 OFFCURVE",
"159 -36 CURVE SMOOTH",
"111 -36 OFFCURVE",
"37 -20 OFFCURVE",
"30 39 CURVE",
"30 86 OFFCURVE"
);
},
{
closed = 1;
nodes = (
"1066 835 OFFCURVE",
"1046 843 CURVE",
"1056 850 OFFCURVE",
"1067 857 OFFCURVE",
"1077 864 CURVE",
"1128 894 OFFCURVE",
"1181 913 OFFCURVE",
"1242 915 CURVE SMOOTH",
"1263 915 OFFCURVE",
"1287 910 OFFCURVE",
"1302 891 CURVE",
"1316 868 OFFCURVE",
"1312 843 OFFCURVE",
"1295 825 CURVE SMOOTH",
"1275 804 OFFCURVE",
"1244 798 OFFCURVE",
"1205 799 CURVE",
"1165 802 OFFCURVE",
"1135 810 OFFCURVE",
"1099 823 CURVE SMOOTH",
"1083 829 OFFCURVE"
);
}
);
width = 833;
},
{
layerId = "AF956123-A183-4F86-8774-5A4F8E572774";
width = 600;
}
);
unicode = 0141;
},
{
glyphname = M;
lastChange = "2018-12-14 18:07:14 +0000";
layers = (
{
layerId = master01;
paths = (
{
closed = 1;
nodes = (
"1096 -199 OFFCURVE",
"1149 -199 CURVE SMOOTH",
"1205 -199 OFFCURVE",
"1248 -174 OFFCURVE",
"1276 -149 CURVE SMOOTH",
"1304 -125 OFFCURVE",
"1317 -101 OFFCURVE",
"1318 -100 CURVE",
"1321 -96 OFFCURVE",
"1320 -90 OFFCURVE",
"1314 -87 CURVE SMOOTH",
"1310 -85 OFFCURVE",
"1305 -85 OFFCURVE",
"1302 -91 CURVE SMOOTH",
"1301 -93 OFFCURVE",
"1287 -116 OFFCURVE",
"1261 -138 CURVE SMOOTH",
"1236 -160 OFFCURVE",
"1198 -181 OFFCURVE",
"1149 -181 CURVE SMOOTH",
"1107 -181 OFFCURVE",
"1064 -168 OFFCURVE",
"1030 -137 CURVE",
"1009 -116 OFFCURVE",
"996 -90 OFFCURVE",
"990 -66 CURVE",
"983 -42 OFFCURVE",
"981 -18 OFFCURVE",
"982 9 CURVE",
"982 10 LINE",
"989 162 OFFCURVE",
"1046 332 OFFCURVE",
"1112 479 CURVE SMOOTH",
"1177 627 OFFCURVE",
"1251 751 OFFCURVE",
"1292 811 CURVE SMOOTH",
"1306 832 OFFCURVE",
"1327 873 OFFCURVE",
"1310 899 CURVE SMOOTH",
"1302 911 OFFCURVE",
"1286 916 OFFCURVE",
"1267 917 CURVE",
"1244 917 OFFCURVE",
"1218 911 OFFCURVE",
"1189 900 CURVE SMOOTH",
"1140 881 OFFCURVE",
"1082 846 OFFCURVE",
"1020 800 CURVE SMOOTH",
"876 693 OFFCURVE",
"710 523 OFFCURVE",
"575 336 CURVE",
"603 514 OFFCURVE",
"665 666 OFFCURVE",
"728 812 CURVE SMOOTH",
"741 842 OFFCURVE",
"746 863 OFFCURVE",
"746 879 CURVE SMOOTH",
"746 905 OFFCURVE",
"733 922 OFFCURVE",
"702 923 CURVE SMOOTH",
"658 923 OFFCURVE",
"611 903 OFFCURVE",
"563 870 CURVE SMOOTH",
"490 821 OFFCURVE",
"414 742 OFFCURVE",
"337 650 CURVE SMOOTH",
"260 558 OFFCURVE",
"182 454 OFFCURVE",
"108 354 CURVE SMOOTH",
"13 225 OFFCURVE",
"-73 122 OFFCURVE",
"-154 53 CURVE SMOOTH",
"-194 18 OFFCURVE",
"-234 -8 OFFCURVE",
"-272 -26 CURVE SMOOTH",
"-311 -44 OFFCURVE",
"-349 -53 OFFCURVE",
"-388 -53 CURVE SMOOTH",
"-391 -53 OFFCURVE",
"-395 -53 OFFCURVE",
"-399 -53 CURVE",
"-451 -50 OFFCURVE",
"-484 -32 OFFCURVE",
"-505 -7 CURVE SMOOTH",
"-527 18 OFFCURVE",
"-536 51 OFFCURVE",
"-536 84 CURVE SMOOTH",
"-536 120 OFFCURVE",
"-525 157 OFFCURVE",
"-508 182 CURVE",
"-506 186 OFFCURVE",
"-507 192 OFFCURVE",
"-511 194 CURVE",
"-515 197 OFFCURVE",
"-521 196 OFFCURVE",
"-524 192 CURVE",
"-542 163 OFFCURVE",
"-554 124 OFFCURVE",
"-554 84 CURVE SMOOTH",
"-554 48 OFFCURVE",
"-544 10 OFFCURVE",
"-519 -19 CURVE SMOOTH",
"-495 -48 OFFCURVE",
"-455 -68 OFFCURVE",
"-400 -71 CURVE",
"-396 -71 OFFCURVE",
"-392 -71 OFFCURVE",
"-388 -71 CURVE SMOOTH",
"-346 -71 OFFCURVE",
"-305 -61 OFFCURVE",
"-265 -42 CURVE SMOOTH",
"-204 -14 OFFCURVE",
"-143 34 OFFCURVE",
"-79 99 CURVE SMOOTH",
"-16 164 OFFCURVE",
"51 246 OFFCURVE",
"123 343 CURVE SMOOTH",
"222 476 OFFCURVE",
"326 617 OFFCURVE",
"427 725 CURVE SMOOTH",
"477 779 OFFCURVE",
"526 824 OFFCURVE",
"573 855 CURVE SMOOTH",
"619 887 OFFCURVE",
"663 905 OFFCURVE",
"702 905 CURVE SMOOTH",
"719 905 OFFCURVE",
"727 899 OFFCURVE",
"728 879 CURVE",
"728 867 OFFCURVE",
"724 848 OFFCURVE",
"712 820 CURVE SMOOTH",
"644 664 OFFCURVE",
"577 500 OFFCURVE",
"552 304 CURVE",
"523 260 OFFCURVE",
"494 217 OFFCURVE",
"469 172 CURVE",
"451 144 OFFCURVE",
"418 92 OFFCURVE",
"412 48 CURVE",
"407 19 OFFCURVE",
"410 -15 OFFCURVE",
"433 -38 CURVE",
"448 -51 OFFCURVE",
"459 -53 OFFCURVE",
"473 -53 CURVE SMOOTH",
"493 -53 OFFCURVE",
"509 -46 OFFCURVE",
"521 -36 CURVE SMOOTH",
"540 -20 OFFCURVE",
"550 4 OFFCURVE",
"555 28 CURVE",
"561 52 OFFCURVE",
"562 77 OFFCURVE",
"562 95 CURVE",
"559 164 OFFCURVE",
"562 233 OFFCURVE",
"570 297 CURVE",
"667 436 OFFCURVE",
"783 568 OFFCURVE",
"896 672 CURVE SMOOTH",
"970 741 OFFCURVE",
"1042 798 OFFCURVE",
"1107 838 CURVE SMOOTH",
"1139 857 OFFCURVE",
"1169 873 OFFCURVE",
"1196 883 CURVE SMOOTH",
"1223 894 OFFCURVE",
"1247 899 OFFCURVE",
"1267 899 CURVE SMOOTH",
"1316 899 OFFCURVE",
"1294 848 OFFCURVE",
"1277 821 CURVE",
"1235 760 OFFCURVE",
"1161 635 OFFCURVE",
"1095 487 CURVE SMOOTH",
"1029 338 OFFCURVE",
"971 166 OFFCURVE",
"964 11 CURVE",
"964 -26 OFFCURVE",
"967 -60 OFFCURVE",
"982 -98 CURVE",
"990 -116 OFFCURVE",
"1001 -134 OFFCURVE",
"1018 -150 CURVE SMOOTH",
"1053 -183 OFFCURVE"
);
},
{
closed = 1;
nodes = (
"454 -33 OFFCURVE",
"444 -24 CURVE",
"426 -6 OFFCURVE",
"426 22 OFFCURVE",
"429 46 CURVE",
"433 69 OFFCURVE",
"444 101 OFFCURVE",
"484 163 CURVE",
"504 198 OFFCURVE",
"526 232 OFFCURVE",
"548 265 CURVE",
"544 204 OFFCURVE",
"542 162 OFFCURVE",
"544 95 CURVE SMOOTH",
"544 72 OFFCURVE",
"542 38 OFFCURVE",
"531 11 CURVE",
"526 -3 OFFCURVE",
"519 -14 OFFCURVE",
"510 -22 CURVE",
"500 -30 OFFCURVE",
"489 -35 OFFCURVE",
"473 -35 CURVE SMOOTH",
"463 -35 OFFCURVE"
);
}
);
width = 1191;
},
{
layerId = "AF956123-A183-4F86-8774-5A4F8E572774";
width = 600;
}
);
unicode = 004D;
},
{
glyphname = N;
lastChange = "2018-12-14 18:07:14 +0000";
layers = (
{
layerId = master01;
paths = (
{
closed = 1;
nodes = (
"-252 -63 OFFCURVE",
"-204 -64 CURVE SMOOTH",
"-121 -64 OFFCURVE",
"-39 -26 OFFCURVE",
"46 44 CURVE SMOOTH",
"131 114 OFFCURVE",
"220 217 OFFCURVE",
"318 350 CURVE SMOOTH",
"418 485 OFFCURVE",
"524 625 OFFCURVE",
"621 730 CURVE SMOOTH",
"670 783 OFFCURVE",
"716 827 OFFCURVE",
"758 858 CURVE SMOOTH",
"800 888 OFFCURVE",
"838 905 OFFCURVE",
"868 905 CURVE SMOOTH",
"899 905 OFFCURVE",
"895 882 OFFCURVE",
"882 858 CURVE SMOOTH",
"849 793 OFFCURVE",
"774 662 OFFCURVE",
"708 514 CURVE SMOOTH",
"641 366 OFFCURVE",
"581 201 OFFCURVE",
"576 65 CURVE",
"576 39 OFFCURVE",
"577 6 OFFCURVE",
"596 -15 CURVE",
"617 -36 OFFCURVE",
"646 -26 OFFCURVE",
"665 -8 CURVE SMOOTH",
"682 8 OFFCURVE",
"698 32 OFFCURVE",
"717 63 CURVE SMOOTH",
"772 155 OFFCURVE",
"845 311 OFFCURVE",
"964 478 CURVE SMOOTH",
"1066 622 OFFCURVE",
"1159 714 OFFCURVE",
"1227 770 CURVE SMOOTH",
"1261 799 OFFCURVE",
"1288 818 OFFCURVE",
"1307 830 CURVE SMOOTH",
"1330 844 OFFCURVE",
"1352 857 OFFCURVE",
"1378 872 CURVE",
"1426 820 OFFCURVE",
"1495 795 OFFCURVE",
"1569 793 CURVE SMOOTH",
"1607 793 OFFCURVE",
"1649 805 OFFCURVE",
"1668 843 CURVE",
"1684 880 OFFCURVE",
"1670 923 OFFCURVE",
"1630 941 CURVE SMOOTH",
"1612 949 OFFCURVE",
"1591 952 OFFCURVE",
"1568 952 CURVE SMOOTH",
"1510 951 OFFCURVE",
"1451 928 OFFCURVE",
"1405 906 CURVE SMOOTH",
"1397 902 OFFCURVE",
"1391 899 OFFCURVE",
"1382 895 CURVE",
"1378 899 OFFCURVE",
"1375 903 OFFCURVE",
"1372 907 CURVE",
"1353 935 OFFCURVE",
"1347 949 OFFCURVE",
"1337 975 CURVE SMOOTH",
"1335 980 OFFCURVE",
"1331 982 OFFCURVE",
"1325 980 CURVE",
"1320 978 OFFCURVE",
"1318 975 OFFCURVE",
"1319 970 CURVE",
"1320 967 OFFCURVE",
"1330 935 OFFCURVE",
"1357 897 CURVE SMOOTH",
"1360 893 OFFCURVE",
"1363 890 OFFCURVE",
"1366 886 CURVE",
"1345 874 OFFCURVE",
"1330 865 OFFCURVE",
"1327 863 CURVE",
"1316 857 OFFCURVE",
"1148 769 OFFCURVE",
"949 489 CURVE SMOOTH",
"858 360 OFFCURVE",
"793 239 OFFCURVE",
"744 148 CURVE SMOOTH",
"719 102 OFFCURVE",
"698 64 OFFCURVE",
"679 37 CURVE SMOOTH",
"670 24 OFFCURVE",
"661 13 OFFCURVE",
"653 5 CURVE",
"641 -5 OFFCURVE",
"625 -16 OFFCURVE",
"609 -3 CURVE",
"594 12 OFFCURVE",
"593 44 OFFCURVE",
"594 65 CURVE SMOOTH",
"599 196 OFFCURVE",
"657 360 OFFCURVE",
"724 507 CURVE SMOOTH",
"791 654 OFFCURVE",
"864 784 OFFCURVE",
"898 850 CURVE SMOOTH",
"906 866 OFFCURVE",
"910 878 OFFCURVE",
"910 889 CURVE SMOOTH",
"910 911 OFFCURVE",
"893 923 OFFCURVE",
"868 923 CURVE SMOOTH",
"831 923 OFFCURVE",
"791 904 OFFCURVE",
"748 872 CURVE SMOOTH",
"682 824 OFFCURVE",
"609 747 OFFCURVE",
"533 657 CURVE SMOOTH",
"457 566 OFFCURVE",
"379 462 OFFCURVE",
"303 360 CURVE SMOOTH",
"206 228 OFFCURVE",
"117 126 OFFCURVE",
"34 58 CURVE SMOOTH",
"-49 -11 OFFCURVE",
"-127 -46 OFFCURVE",
"-204 -46 CURVE SMOOTH",
"-253 -46 OFFCURVE",
"-298 -28 OFFCURVE",
"-324 16 CURVE",
"-335 38 OFFCURVE",
"-340 63 OFFCURVE",
"-340 89 CURVE",
"-341 126 OFFCURVE",
"-330 164 OFFCURVE",
"-313 189 CURVE",
"-311 193 OFFCURVE",
"-312 199 OFFCURVE",
"-316 201 CURVE",
"-320 204 OFFCURVE",
"-326 203 OFFCURVE",
"-328 199 CURVE",
"-347 170 OFFCURVE",
"-358 130 OFFCURVE",
"-358 89 CURVE SMOOTH",
"-358 52 OFFCURVE",
"-349 14 OFFCURVE",
"-324 -16 CURVE SMOOTH",
"-295 -50 OFFCURVE"
);
},
{
closed = 1;
nodes = (
"1447 830 OFFCURVE",
"1394 881 CURVE",
"1404 886 OFFCURVE",
"1412 890 OFFCURVE",
"1421 894 CURVE SMOOTH",
"1465 914 OFFCURVE",
"1519 933 OFFCURVE",
"1568 934 CURVE SMOOTH",
"1586 934 OFFCURVE",
"1604 931 OFFCURVE",
"1622 924 CURVE",
"1658 907 OFFCURVE",
"1662 869 OFFCURVE",
"1646 842 CURVE",
"1631 819 OFFCURVE",
"1598 811 OFFCURVE",
"1569 811 CURVE SMOOTH",
"1507 811 OFFCURVE"
);
}
);
width = 921;
},
{
layerId = "AF956123-A183-4F86-8774-5A4F8E572774";
width = 600;
}
);
unicode = 004E;
},
{
glyphname = Ntilde;
lastChange = "2018-12-14 18:07:14 +0000";
layers = (
{
layerId = master01;
paths = (
{
closed = 1;
nodes = (
"-252 -63 OFFCURVE",
"-204 -64 CURVE SMOOTH",
"-121 -64 OFFCURVE",
"-39 -26 OFFCURVE",
"46 44 CURVE SMOOTH",
"131 114 OFFCURVE",
"220 217 OFFCURVE",
"318 350 CURVE SMOOTH",
"418 485 OFFCURVE",
"524 625 OFFCURVE",
"621 730 CURVE SMOOTH",
"670 783 OFFCURVE",
"716 827 OFFCURVE",
"758 858 CURVE SMOOTH",
"800 888 OFFCURVE",
"838 905 OFFCURVE",
"868 905 CURVE SMOOTH",
"899 905 OFFCURVE",
"895 882 OFFCURVE",
"882 858 CURVE SMOOTH",
"849 793 OFFCURVE",
"774 662 OFFCURVE",
"708 514 CURVE SMOOTH",
"641 366 OFFCURVE",
"581 201 OFFCURVE",
"576 65 CURVE",
"576 39 OFFCURVE",
"577 6 OFFCURVE",
"596 -15 CURVE",
"617 -36 OFFCURVE",
"646 -26 OFFCURVE",
"665 -8 CURVE SMOOTH",
"682 8 OFFCURVE",
"698 32 OFFCURVE",
"717 63 CURVE SMOOTH",
"772 155 OFFCURVE",
"845 311 OFFCURVE",
"964 478 CURVE SMOOTH",
"1066 622 OFFCURVE",
"1159 714 OFFCURVE",
"1227 770 CURVE SMOOTH",
"1261 799 OFFCURVE",
"1288 818 OFFCURVE",
"1307 830 CURVE SMOOTH",
"1330 844 OFFCURVE",
"1352 857 OFFCURVE",
"1378 872 CURVE",
"1426 820 OFFCURVE",
"1495 795 OFFCURVE",
"1569 793 CURVE SMOOTH",
"1607 793 OFFCURVE",
"1649 805 OFFCURVE",
"1668 843 CURVE",
"1684 880 OFFCURVE",
"1670 923 OFFCURVE",
"1630 941 CURVE SMOOTH",
"1612 949 OFFCURVE",
"1591 952 OFFCURVE",
"1568 952 CURVE SMOOTH",
"1510 951 OFFCURVE",
"1451 928 OFFCURVE",
"1405 906 CURVE SMOOTH",
"1397 902 OFFCURVE",
"1391 899 OFFCURVE",
"1382 895 CURVE",
"1378 899 OFFCURVE",
"1375 903 OFFCURVE",
"1372 907 CURVE",
"1353 935 OFFCURVE",
"1347 949 OFFCURVE",
"1337 975 CURVE SMOOTH",
"1335 980 OFFCURVE",
"1331 982 OFFCURVE",
"1325 980 CURVE",
"1320 978 OFFCURVE",
"1318 975 OFFCURVE",
"1319 970 CURVE",
"1320 967 OFFCURVE",
"1330 935 OFFCURVE",
"1357 897 CURVE SMOOTH",
"1360 893 OFFCURVE",
"1363 890 OFFCURVE",
"1366 886 CURVE",
"1345 874 OFFCURVE",
"1330 865 OFFCURVE",
"1327 863 CURVE",
"1316 857 OFFCURVE",
"1148 769 OFFCURVE",
"949 489 CURVE SMOOTH",
"858 360 OFFCURVE",
"793 239 OFFCURVE",
"744 148 CURVE SMOOTH",
"719 102 OFFCURVE",
"698 64 OFFCURVE",
"679 37 CURVE SMOOTH",
"670 24 OFFCURVE",
"661 13 OFFCURVE",
"653 5 CURVE",
"641 -5 OFFCURVE",
"625 -16 OFFCURVE",
"609 -3 CURVE",
"594 12 OFFCURVE",
"593 44 OFFCURVE",
"594 65 CURVE SMOOTH",
"599 196 OFFCURVE",
"657 360 OFFCURVE",
"724 507 CURVE SMOOTH",
"791 654 OFFCURVE",
"864 784 OFFCURVE",
"898 850 CURVE SMOOTH",
"906 866 OFFCURVE",
"910 878 OFFCURVE",
"910 889 CURVE SMOOTH",
"910 911 OFFCURVE",
"893 923 OFFCURVE",
"868 923 CURVE SMOOTH",
"831 923 OFFCURVE",
"791 904 OFFCURVE",
"748 872 CURVE SMOOTH",
"682 824 OFFCURVE",
"609 747 OFFCURVE",
"533 657 CURVE SMOOTH",
"457 566 OFFCURVE",
"379 462 OFFCURVE",
"303 360 CURVE SMOOTH",
"206 228 OFFCURVE",
"117 126 OFFCURVE",
"34 58 CURVE SMOOTH",
"-49 -11 OFFCURVE",
"-127 -46 OFFCURVE",
"-204 -46 CURVE SMOOTH",
"-253 -46 OFFCURVE",
"-298 -28 OFFCURVE",
"-324 16 CURVE",
"-335 38 OFFCURVE",
"-340 63 OFFCURVE",
"-340 89 CURVE",
"-341 126 OFFCURVE",
"-330 164 OFFCURVE",
"-313 189 CURVE",
"-311 193 OFFCURVE",
"-312 199 OFFCURVE",
"-316 201 CURVE",
"-320 204 OFFCURVE",
"-326 203 OFFCURVE",
"-328 199 CURVE",
"-347 170 OFFCURVE",
"-358 130 OFFCURVE",
"-358 89 CURVE SMOOTH",
"-358 52 OFFCURVE",
"-349 14 OFFCURVE",
"-324 -16 CURVE SMOOTH",
"-295 -50 OFFCURVE"
);
},
{
closed = 1;
nodes = (
"1447 830 OFFCURVE",
"1394 881 CURVE",
"1404 886 OFFCURVE",
"1412 890 OFFCURVE",
"1421 894 CURVE SMOOTH",
"1465 914 OFFCURVE",
"1519 933 OFFCURVE",
"1568 934 CURVE SMOOTH",
"1586 934 OFFCURVE",
"1604 931 OFFCURVE",
"1622 924 CURVE",
"1658 907 OFFCURVE",
"1662 869 OFFCURVE",
"1646 842 CURVE",
"1631 819 OFFCURVE",
"1598 811 OFFCURVE",
"1569 811 CURVE SMOOTH",
"1507 811 OFFCURVE"
);
},
{
closed = 1;
nodes = (
"1423 999 OFFCURVE",
"1424 1003 CURVE",
"1424 1004 OFFCURVE",
"1428 1024 OFFCURVE",
"1421 1046 CURVE SMOOTH",
"1414 1067 OFFCURVE",
"1397 1094 OFFCURVE",
"1349 1106 CURVE SMOOTH",
"1260 1126 OFFCURVE",
"1213 1014 OFFCURVE",
"1127 1014 CURVE SMOOTH",
"1108 1014 OFFCURVE",
"1095 1019 OFFCURVE",
"1087 1030 CURVE SMOOTH",
"1069 1054 OFFCURVE",
"1083 1097 OFFCURVE",
"1084 1098 CURVE",
"1085 1103 OFFCURVE",
"1083 1108 OFFCURVE",
"1078 1110 CURVE",
"1073 1111 OFFCURVE",
"1068 1109 OFFCURVE",
"1066 1104 CURVE",
"1066 1102 OFFCURVE",
"1049 1051 OFFCURVE",
"1072 1020 CURVE",
"1083 1004 OFFCURVE",
"1102 996 OFFCURVE",
"1127 996 CURVE SMOOTH",
"1219 996 OFFCURVE",
"1271 1104 OFFCURVE",
"1345 1088 CURVE SMOOTH",
"1419 1072 OFFCURVE",
"1407 1010 OFFCURVE",
"1406 1007 CURVE",
"1405 1002 OFFCURVE",
"1408 997 OFFCURVE",
"1413 996 CURVE SMOOTH",
"1419 995 OFFCURVE"
);
}
);
width = 921;
},
{
layerId = "AF956123-A183-4F86-8774-5A4F8E572774";
width = 600;
}
);
unicode = 00D1;
},
{
glyphname = O;
lastChange = "2018-12-14 18:07:14 +0000";
layers = (
{
layerId = master01;
paths = (
{
closed = 1;
nodes = (
"644 53 OFFCURVE",
"794 190 CURVE SMOOTH",
"881 271 OFFCURVE",
"952 366 OFFCURVE",
"996 463 CURVE",
"1069 470 OFFCURVE",
"1121 496 OFFCURVE",
"1148 532 CURVE SMOOTH",
"1172 563 OFFCURVE",
"1177 598 OFFCURVE",
"1177 621 CURVE SMOOTH",
"1177 649 OFFCURVE",
"1168 676 OFFCURVE",
"1149 700 CURVE SMOOTH",
"1122 732 OFFCURVE",
"1083 744 OFFCURVE",
"1033 750 CURVE",
"1033 754 OFFCURVE",
"1032 757 OFFCURVE",
"1031 761 CURVE SMOOTH",
"1025 782 OFFCURVE",
"1016 805 OFFCURVE",
"1003 826 CURVE",
"971 883 OFFCURVE",
"906 915 OFFCURVE",
"836 916 CURVE SMOOTH",
"811 916 OFFCURVE",
"784 911 OFFCURVE",
"755 899 CURVE",
"753 901 OFFCURVE",
"751 903 OFFCURVE",
"749 903 CURVE",
"736 906 OFFCURVE",
"724 906 OFFCURVE",
"711 906 CURVE SMOOTH",
"648 906 OFFCURVE",
"584 890 OFFCURVE",
"526 865 CURVE SMOOTH",
"433 824 OFFCURVE",
"326 754 OFFCURVE",
"232 660 CURVE SMOOTH",
"139 565 OFFCURVE",
"59 446 OFFCURVE",
"20 304 CURVE",
"-18 125 OFFCURVE",
"56 -20 OFFCURVE",
"264 -35 CURVE SMOOTH",
"453 -44 OFFCURVE"
);
},
{
closed = 1;
nodes = (
"0 120 OFFCURVE",
"38 300 CURVE",
"75 437 OFFCURVE",
"153 554 OFFCURVE",
"245 647 CURVE SMOOTH",
"328 730 OFFCURVE",
"426 799 OFFCURVE",
"534 849 CURVE SMOOTH",
"589 875 OFFCURVE",
"656 890 OFFCURVE",
"711 888 CURVE",
"717 888 OFFCURVE",
"724 888 OFFCURVE",
"730 888 CURVE",
"669 854 OFFCURVE",
"633 800 OFFCURVE",
"630 726 CURVE",
"630 687 OFFCURVE",
"641 646 OFFCURVE",
"663 609 CURVE",
"634 578 OFFCURVE",
"606 541 OFFCURVE",
"582 496 CURVE",
"580 491 OFFCURVE",
"582 486 OFFCURVE",
"586 484 CURVE",
"591 481 OFFCURVE",
"596 483 OFFCURVE",
"598 487 CURVE SMOOTH",
"620 530 OFFCURVE",
"646 564 OFFCURVE",
"674 593 CURVE",
"684 579 OFFCURVE",
"696 565 OFFCURVE",
"710 552 CURVE SMOOTH",
"738 526 OFFCURVE",
"779 503 OFFCURVE",
"824 487 CURVE SMOOTH",
"869 472 OFFCURVE",
"919 462 OFFCURVE",
"967 462 CURVE SMOOTH",
"970 462 OFFCURVE",
"973 462 OFFCURVE",
"976 462 CURVE",
"933 370 OFFCURVE",
"865 280 OFFCURVE",
"781 203 CURVE SMOOTH",
"658 89 OFFCURVE",
"478 -23 OFFCURVE",
"265 -17 CURVE SMOOTH",
"81 -7 OFFCURVE"
);
},
{
closed = 1;
nodes = (
"696 592 OFFCURVE",
"686 606 CURVE",
"727 645 OFFCURVE",
"770 671 OFFCURVE",
"808 689 CURVE SMOOTH",
"870 719 OFFCURVE",
"953 735 OFFCURVE",
"1019 733 CURVE",
"1025 701 OFFCURVE",
"1026 672 OFFCURVE",
"1026 658 CURVE SMOOTH",
"1026 599 OFFCURVE",
"1009 539 OFFCURVE",
"984 481 CURVE",
"978 480 OFFCURVE",
"973 480 OFFCURVE",
"967 480 CURVE SMOOTH",
"921 480 OFFCURVE",
"873 489 OFFCURVE",
"830 504 CURVE SMOOTH",
"786 520 OFFCURVE",
"748 541 OFFCURVE",
"722 565 CURVE SMOOTH",
"708 578 OFFCURVE"
);
},
{
closed = 1;
nodes = (
"1044 672 OFFCURVE",
"1043 700 OFFCURVE",
"1037 732 CURVE",
"1073 727 OFFCURVE",
"1108 717 OFFCURVE",
"1136 689 CURVE",
"1151 671 OFFCURVE",
"1158 648 OFFCURVE",
"1159 621 CURVE",
"1159 600 OFFCURVE",
"1154 570 OFFCURVE",
"1133 543 CURVE SMOOTH",
"1106 507 OFFCURVE",
"1049 485 OFFCURVE",
"1004 482 CURVE",
"1025 535 OFFCURVE",
"1041 590 OFFCURVE",
"1044 657 CURVE",
"1044 658 LINE SMOOTH"
);
},
{
closed = 1;
nodes = (
"738 895 OFFCURVE",
"836 898 CURVE SMOOTH",
"896 898 OFFCURVE",
"957 870 OFFCURVE",
"988 817 CURVE SMOOTH",
"1000 796 OFFCURVE",
"1009 773 OFFCURVE",
"1015 751 CURVE",
"943 751 OFFCURVE",
"873 738 OFFCURVE",
"800 706 CURVE",
"761 687 OFFCURVE",
"718 661 OFFCURVE",
"677 622 CURVE",
"657 655 OFFCURVE",
"648 691 OFFCURVE",
"648 726 CURVE SMOOTH",
"648 827 OFFCURVE"
);
}
);
width = 951;
},
{
layerId = "AF956123-A183-4F86-8774-5A4F8E572774";
width = 600;
}
);
unicode = 004F;
},
{
glyphname = Oacute;
lastChange = "2018-12-14 18:07:14 +0000";
layers = (
{
layerId = master01;
paths = (
{
closed = 1;
nodes = (
"644 53 OFFCURVE",
"794 190 CURVE SMOOTH",
"881 271 OFFCURVE",
"952 366 OFFCURVE",
"996 463 CURVE",
"1069 470 OFFCURVE",
"1121 496 OFFCURVE",
"1148 532 CURVE SMOOTH",
"1172 563 OFFCURVE",
"1177 598 OFFCURVE",
"1177 621 CURVE SMOOTH",
"1177 649 OFFCURVE",
"1168 676 OFFCURVE",
"1149 700 CURVE SMOOTH",
"1122 732 OFFCURVE",
"1083 744 OFFCURVE",
"1033 750 CURVE",
"1033 754 OFFCURVE",
"1032 757 OFFCURVE",
"1031 761 CURVE SMOOTH",
"1025 782 OFFCURVE",
"1016 805 OFFCURVE",
"1003 826 CURVE",
"971 883 OFFCURVE",
"906 915 OFFCURVE",
"836 916 CURVE SMOOTH",
"811 916 OFFCURVE",
"784 911 OFFCURVE",
"755 899 CURVE",
"753 901 OFFCURVE",
"751 903 OFFCURVE",
"749 903 CURVE",
"736 906 OFFCURVE",
"724 906 OFFCURVE",
"711 906 CURVE SMOOTH",
"648 906 OFFCURVE",
"584 890 OFFCURVE",
"526 865 CURVE SMOOTH",
"433 824 OFFCURVE",
"326 754 OFFCURVE",
"232 660 CURVE SMOOTH",
"139 565 OFFCURVE",
"59 446 OFFCURVE",
"20 304 CURVE",
"-18 125 OFFCURVE",
"56 -20 OFFCURVE",
"264 -35 CURVE SMOOTH",
"453 -44 OFFCURVE"
);
},
{
closed = 1;
nodes = (
"0 120 OFFCURVE",
"38 300 CURVE",
"75 437 OFFCURVE",
"153 554 OFFCURVE",
"245 647 CURVE SMOOTH",
"328 730 OFFCURVE",
"426 799 OFFCURVE",
"534 849 CURVE SMOOTH",
"589 875 OFFCURVE",
"656 890 OFFCURVE",
"711 888 CURVE",
"717 888 OFFCURVE",
"724 888 OFFCURVE",
"730 888 CURVE",
"669 854 OFFCURVE",
"633 800 OFFCURVE",
"630 726 CURVE",
"630 687 OFFCURVE",
"641 646 OFFCURVE",
"663 609 CURVE",
"634 578 OFFCURVE",
"606 541 OFFCURVE",
"582 496 CURVE",
"580 491 OFFCURVE",
"582 486 OFFCURVE",
"586 484 CURVE",
"591 481 OFFCURVE",
"596 483 OFFCURVE",
"598 487 CURVE SMOOTH",
"620 530 OFFCURVE",
"646 564 OFFCURVE",
"674 593 CURVE",
"684 579 OFFCURVE",
"696 565 OFFCURVE",
"710 552 CURVE SMOOTH",
"738 526 OFFCURVE",
"779 503 OFFCURVE",
"824 487 CURVE SMOOTH",
"869 472 OFFCURVE",
"919 462 OFFCURVE",
"967 462 CURVE SMOOTH",
"970 462 OFFCURVE",
"973 462 OFFCURVE",
"976 462 CURVE",
"933 370 OFFCURVE",
"865 280 OFFCURVE",
"781 203 CURVE SMOOTH",
"658 89 OFFCURVE",
"478 -23 OFFCURVE",
"265 -17 CURVE SMOOTH",
"81 -7 OFFCURVE"
);
},
{
closed = 1;
nodes = (
"696 592 OFFCURVE",
"686 606 CURVE",
"727 645 OFFCURVE",
"770 671 OFFCURVE",
"808 689 CURVE SMOOTH",
"870 719 OFFCURVE",
"953 735 OFFCURVE",
"1019 733 CURVE",
"1025 701 OFFCURVE",
"1026 672 OFFCURVE",
"1026 658 CURVE SMOOTH",
"1026 599 OFFCURVE",
"1009 539 OFFCURVE",
"984 481 CURVE",
"978 480 OFFCURVE",
"973 480 OFFCURVE",
"967 480 CURVE SMOOTH",
"921 480 OFFCURVE",
"873 489 OFFCURVE",
"830 504 CURVE SMOOTH",
"786 520 OFFCURVE",
"748 541 OFFCURVE",
"722 565 CURVE SMOOTH",
"708 578 OFFCURVE"
);
},
{
closed = 1;
nodes = (
"1044 672 OFFCURVE",
"1043 700 OFFCURVE",
"1037 732 CURVE",
"1073 727 OFFCURVE",
"1108 717 OFFCURVE",
"1136 689 CURVE",
"1151 671 OFFCURVE",
"1158 648 OFFCURVE",
"1159 621 CURVE",
"1159 600 OFFCURVE",
"1154 570 OFFCURVE",
"1133 543 CURVE SMOOTH",
"1106 507 OFFCURVE",
"1049 485 OFFCURVE",
"1004 482 CURVE",
"1025 535 OFFCURVE",
"1041 590 OFFCURVE",
"1044 657 CURVE",
"1044 658 LINE SMOOTH"
);
},
{
closed = 1;
nodes = (
"738 895 OFFCURVE",
"836 898 CURVE SMOOTH",
"896 898 OFFCURVE",
"957 870 OFFCURVE",
"988 817 CURVE SMOOTH",
"1000 796 OFFCURVE",
"1009 773 OFFCURVE",
"1015 751 CURVE",
"943 751 OFFCURVE",
"873 738 OFFCURVE",
"800 706 CURVE",
"761 687 OFFCURVE",
"718 661 OFFCURVE",
"677 622 CURVE",
"657 655 OFFCURVE",
"648 691 OFFCURVE",
"648 726 CURVE SMOOTH",
"648 827 OFFCURVE"
);
},
{
closed = 1;
nodes = (
"1061 1018 OFFCURVE",
"1206 1110 CURVE",
"1210 1113 OFFCURVE",
"1212 1118 OFFCURVE",
"1209 1123 CURVE",
"1206 1127 OFFCURVE",
"1201 1128 OFFCURVE",
"1196 1125 CURVE SMOOTH",
"1069 1043 OFFCURVE",
"895 987 OFFCURVE",
"741 1007 CURVE",
"736 1008 OFFCURVE",
"732 1004 OFFCURVE",
"731 1000 CURVE",
"730 995 OFFCURVE",
"733 990 OFFCURVE",
"738 989 CURVE",
"900 972 OFFCURVE"
);
}
);
width = 951;
},
{
layerId = "AF956123-A183-4F86-8774-5A4F8E572774";
width = 600;
}
);
unicode = 00D3;
},
{
glyphname = Ocircumflex;
lastChange = "2018-12-14 18:07:14 +0000";
layers = (
{
layerId = master01;
paths = (
{
closed = 1;
nodes = (
"644 53 OFFCURVE",
"794 190 CURVE SMOOTH",
"881 271 OFFCURVE",
"952 366 OFFCURVE",
"996 463 CURVE",
"1069 470 OFFCURVE",
"1121 496 OFFCURVE",
"1148 532 CURVE SMOOTH",
"1172 563 OFFCURVE",
"1177 598 OFFCURVE",
"1177 621 CURVE SMOOTH",
"1177 649 OFFCURVE",
"1168 676 OFFCURVE",
"1149 700 CURVE SMOOTH",
"1122 732 OFFCURVE",
"1083 744 OFFCURVE",
"1033 750 CURVE",
"1033 754 OFFCURVE",
"1032 757 OFFCURVE",
"1031 761 CURVE SMOOTH",
"1025 782 OFFCURVE",
"1016 805 OFFCURVE",
"1003 826 CURVE",
"971 883 OFFCURVE",
"906 915 OFFCURVE",
"836 916 CURVE SMOOTH",
"811 916 OFFCURVE",
"784 911 OFFCURVE",
"755 899 CURVE",
"753 901 OFFCURVE",
"751 903 OFFCURVE",
"749 903 CURVE",
"736 906 OFFCURVE",
"724 906 OFFCURVE",
"711 906 CURVE SMOOTH",
"648 906 OFFCURVE",
"584 890 OFFCURVE",
"526 865 CURVE SMOOTH",
"433 824 OFFCURVE",
"326 754 OFFCURVE",
"232 660 CURVE SMOOTH",
"139 565 OFFCURVE",
"59 446 OFFCURVE",
"20 304 CURVE",
"-18 125 OFFCURVE",
"56 -20 OFFCURVE",
"264 -35 CURVE SMOOTH",
"453 -44 OFFCURVE"
);
},
{
closed = 1;
nodes = (
"0 120 OFFCURVE",
"38 300 CURVE",
"75 437 OFFCURVE",
"153 554 OFFCURVE",
"245 647 CURVE SMOOTH",
"328 730 OFFCURVE",
"426 799 OFFCURVE",
"534 849 CURVE SMOOTH",
"589 875 OFFCURVE",
"656 890 OFFCURVE",
"711 888 CURVE",
"717 888 OFFCURVE",
"724 888 OFFCURVE",
"730 888 CURVE",
"669 854 OFFCURVE",
"633 800 OFFCURVE",
"630 726 CURVE",
"630 687 OFFCURVE",
"641 646 OFFCURVE",
"663 609 CURVE",
"634 578 OFFCURVE",
"606 541 OFFCURVE",
"582 496 CURVE",
"580 491 OFFCURVE",
"582 486 OFFCURVE",
"586 484 CURVE",
"591 481 OFFCURVE",
"596 483 OFFCURVE",
"598 487 CURVE SMOOTH",
"620 530 OFFCURVE",
"646 564 OFFCURVE",
"674 593 CURVE",
"684 579 OFFCURVE",
"696 565 OFFCURVE",
"710 552 CURVE SMOOTH",
"738 526 OFFCURVE",
"779 503 OFFCURVE",
"824 487 CURVE SMOOTH",
"869 472 OFFCURVE",
"919 462 OFFCURVE",
"967 462 CURVE SMOOTH",
"970 462 OFFCURVE",
"973 462 OFFCURVE",
"976 462 CURVE",
"933 370 OFFCURVE",
"865 280 OFFCURVE",
"781 203 CURVE SMOOTH",
"658 89 OFFCURVE",
"478 -23 OFFCURVE",
"265 -17 CURVE SMOOTH",
"81 -7 OFFCURVE"
);
},
{
closed = 1;
nodes = (
"696 592 OFFCURVE",
"686 606 CURVE",
"727 645 OFFCURVE",
"770 671 OFFCURVE",
"808 689 CURVE SMOOTH",
"870 719 OFFCURVE",
"953 735 OFFCURVE",
"1019 733 CURVE",
"1025 701 OFFCURVE",
"1026 672 OFFCURVE",
"1026 658 CURVE SMOOTH",
"1026 599 OFFCURVE",
"1009 539 OFFCURVE",
"984 481 CURVE",
"978 480 OFFCURVE",
"973 480 OFFCURVE",
"967 480 CURVE SMOOTH",
"921 480 OFFCURVE",
"873 489 OFFCURVE",
"830 504 CURVE SMOOTH",
"786 520 OFFCURVE",
"748 541 OFFCURVE",
"722 565 CURVE SMOOTH",
"708 578 OFFCURVE"
);
},
{
closed = 1;
nodes = (
"1044 672 OFFCURVE",
"1043 700 OFFCURVE",
"1037 732 CURVE",
"1073 727 OFFCURVE",
"1108 717 OFFCURVE",
"1136 689 CURVE",
"1151 671 OFFCURVE",
"1158 648 OFFCURVE",
"1159 621 CURVE",
"1159 600 OFFCURVE",
"1154 570 OFFCURVE",
"1133 543 CURVE SMOOTH",
"1106 507 OFFCURVE",
"1049 485 OFFCURVE",
"1004 482 CURVE",
"1025 535 OFFCURVE",
"1041 590 OFFCURVE",
"1044 657 CURVE",
"1044 658 LINE SMOOTH"
);
},
{
closed = 1;
nodes = (
"738 895 OFFCURVE",
"836 898 CURVE SMOOTH",
"896 898 OFFCURVE",
"957 870 OFFCURVE",
"988 817 CURVE SMOOTH",
"1000 796 OFFCURVE",
"1009 773 OFFCURVE",
"1015 751 CURVE",
"943 751 OFFCURVE",
"873 738 OFFCURVE",
"800 706 CURVE",
"761 687 OFFCURVE",
"718 661 OFFCURVE",
"677 622 CURVE",
"657 655 OFFCURVE",
"648 691 OFFCURVE",
"648 726 CURVE SMOOTH",
"648 827 OFFCURVE"
);
},
{
closed = 1;
nodes = (
"1195 914 OFFCURVE",
"1195 919 CURVE SMOOTH",
"1195 924 OFFCURVE",
"1191 928 OFFCURVE",
"1186 928 CURVE SMOOTH",
"1140 928 OFFCURVE",
"1108 949 OFFCURVE",
"1089 991 CURVE SMOOTH",
"1075 1023 OFFCURVE",
"1075 1056 OFFCURVE",
"1075 1057 CURVE SMOOTH",
"1075 1064 OFFCURVE",
"1066 1068 OFFCURVE",
"1061 1065 CURVE SMOOTH",
"938 989 OFFCURVE",
"828 968 OFFCURVE",
"757 961 CURVE SMOOTH",
"680 953 OFFCURVE",
"630 964 OFFCURVE",
"630 964 CURVE",
"625 965 OFFCURVE",
"620 962 OFFCURVE",
"619 957 CURVE SMOOTH",
"618 952 OFFCURVE",
"621 947 OFFCURVE",
"626 946 CURVE",
"628 946 OFFCURVE",
"678 935 OFFCURVE",
"758 943 CURVE SMOOTH",
"805 947 OFFCURVE",
"852 957 OFFCURVE",
"899 972 CURVE SMOOTH",
"953 988 OFFCURVE",
"1006 1012 OFFCURVE",
"1058 1042 CURVE",
"1059 1028 OFFCURVE",
"1063 1006 OFFCURVE",
"1073 984 CURVE SMOOTH",
"1094 936 OFFCURVE",
"1133 910 OFFCURVE",
"1186 910 CURVE SMOOTH",
"1191 910 OFFCURVE"
);
}
);
width = 951;
},
{
layerId = "AF956123-A183-4F86-8774-5A4F8E572774";
width = 600;
}
);
unicode = 00D4;
},
{
glyphname = Odieresis;
lastChange = "2018-12-14 18:07:14 +0000";
layers = (
{
layerId = master01;
paths = (
{
closed = 1;
nodes = (
"644 53 OFFCURVE",
"794 190 CURVE SMOOTH",
"881 271 OFFCURVE",
"952 366 OFFCURVE",
"996 463 CURVE",
"1069 470 OFFCURVE",
"1121 496 OFFCURVE",
"1148 532 CURVE SMOOTH",
"1172 563 OFFCURVE",
"1177 598 OFFCURVE",
"1177 621 CURVE SMOOTH",
"1177 649 OFFCURVE",
"1168 676 OFFCURVE",
"1149 700 CURVE SMOOTH",
"1122 732 OFFCURVE",
"1083 744 OFFCURVE",
"1033 750 CURVE",
"1033 754 OFFCURVE",
"1032 757 OFFCURVE",
"1031 761 CURVE SMOOTH",
"1025 782 OFFCURVE",
"1016 805 OFFCURVE",
"1003 826 CURVE",
"971 883 OFFCURVE",
"906 915 OFFCURVE",
"836 916 CURVE SMOOTH",
"811 916 OFFCURVE",
"784 911 OFFCURVE",
"755 899 CURVE",
"753 901 OFFCURVE",
"751 903 OFFCURVE",
"749 903 CURVE",
"736 906 OFFCURVE",
"724 906 OFFCURVE",
"711 906 CURVE SMOOTH",
"648 906 OFFCURVE",
"584 890 OFFCURVE",
"526 865 CURVE SMOOTH",
"433 824 OFFCURVE",
"326 754 OFFCURVE",
"232 660 CURVE SMOOTH",
"139 565 OFFCURVE",
"59 446 OFFCURVE",
"20 304 CURVE",
"-18 125 OFFCURVE",
"56 -20 OFFCURVE",
"264 -35 CURVE SMOOTH",
"453 -44 OFFCURVE"
);
},
{
closed = 1;
nodes = (
"0 120 OFFCURVE",
"38 300 CURVE",
"75 437 OFFCURVE",
"153 554 OFFCURVE",
"245 647 CURVE SMOOTH",
"328 730 OFFCURVE",
"426 799 OFFCURVE",
"534 849 CURVE SMOOTH",
"589 875 OFFCURVE",
"656 890 OFFCURVE",
"711 888 CURVE",
"717 888 OFFCURVE",
"724 888 OFFCURVE",
"730 888 CURVE",
"669 854 OFFCURVE",
"633 800 OFFCURVE",
"630 726 CURVE",
"630 687 OFFCURVE",
"641 646 OFFCURVE",
"663 609 CURVE",
"634 578 OFFCURVE",
"606 541 OFFCURVE",
"582 496 CURVE",
"580 491 OFFCURVE",
"582 486 OFFCURVE",
"586 484 CURVE",
"591 481 OFFCURVE",
"596 483 OFFCURVE",
"598 487 CURVE SMOOTH",
"620 530 OFFCURVE",
"646 564 OFFCURVE",
"674 593 CURVE",
"684 579 OFFCURVE",
"696 565 OFFCURVE",
"710 552 CURVE SMOOTH",
"738 526 OFFCURVE",
"779 503 OFFCURVE",
"824 487 CURVE SMOOTH",
"869 472 OFFCURVE",
"919 462 OFFCURVE",
"967 462 CURVE SMOOTH",
"970 462 OFFCURVE",
"973 462 OFFCURVE",
"976 462 CURVE",
"933 370 OFFCURVE",
"865 280 OFFCURVE",
"781 203 CURVE SMOOTH",
"658 89 OFFCURVE",
"478 -23 OFFCURVE",
"265 -17 CURVE SMOOTH",
"81 -7 OFFCURVE"
);
},
{
closed = 1;
nodes = (
"696 592 OFFCURVE",
"686 606 CURVE",
"727 645 OFFCURVE",
"770 671 OFFCURVE",
"808 689 CURVE SMOOTH",
"870 719 OFFCURVE",
"953 735 OFFCURVE",
"1019 733 CURVE",
"1025 701 OFFCURVE",
"1026 672 OFFCURVE",
"1026 658 CURVE SMOOTH",
"1026 599 OFFCURVE",
"1009 539 OFFCURVE",
"984 481 CURVE",
"978 480 OFFCURVE",
"973 480 OFFCURVE",
"967 480 CURVE SMOOTH",
"921 480 OFFCURVE",
"873 489 OFFCURVE",
"830 504 CURVE SMOOTH",
"786 520 OFFCURVE",
"748 541 OFFCURVE",
"722 565 CURVE SMOOTH",
"708 578 OFFCURVE"
);
},
{
closed = 1;
nodes = (
"1044 672 OFFCURVE",
"1043 700 OFFCURVE",
"1037 732 CURVE",
"1073 727 OFFCURVE",
"1108 717 OFFCURVE",
"1136 689 CURVE",
"1151 671 OFFCURVE",
"1158 648 OFFCURVE",
"1159 621 CURVE",
"1159 600 OFFCURVE",
"1154 570 OFFCURVE",
"1133 543 CURVE SMOOTH",
"1106 507 OFFCURVE",
"1049 485 OFFCURVE",
"1004 482 CURVE",
"1025 535 OFFCURVE",
"1041 590 OFFCURVE",
"1044 657 CURVE",
"1044 658 LINE SMOOTH"
);
},
{
closed = 1;
nodes = (
"738 895 OFFCURVE",
"836 898 CURVE SMOOTH",
"896 898 OFFCURVE",
"957 870 OFFCURVE",
"988 817 CURVE SMOOTH",
"1000 796 OFFCURVE",
"1009 773 OFFCURVE",
"1015 751 CURVE",
"943 751 OFFCURVE",
"873 738 OFFCURVE",
"800 706 CURVE",
"761 687 OFFCURVE",
"718 661 OFFCURVE",
"677 622 CURVE",
"657 655 OFFCURVE",
"648 691 OFFCURVE",
"648 726 CURVE SMOOTH",
"648 827 OFFCURVE"
);
},
{
closed = 1;
nodes = (
"870 1047 OFFCURVE",
"840 1047 CURVE SMOOTH",
"810 1047 OFFCURVE",
"786 1023 OFFCURVE",
"786 993 CURVE SMOOTH",
"786 963 OFFCURVE",
"810 939 OFFCURVE",
"840 939 CURVE SMOOTH",
"870 939 OFFCURVE",
"894 963 OFFCURVE",
"894 993 CURVE SMOOTH",
"894 1023 OFFCURVE"
);
},
{
closed = 1;
nodes = (
"1032 1047 OFFCURVE",
"1002 1047 CURVE SMOOTH",
"972 1047 OFFCURVE",
"948 1023 OFFCURVE",
"948 993 CURVE SMOOTH",
"948 963 OFFCURVE",
"972 939 OFFCURVE",
"1002 939 CURVE SMOOTH",
"1032 939 OFFCURVE",
"1056 963 OFFCURVE",
"1056 993 CURVE SMOOTH",
"1056 1023 OFFCURVE"
);
}
);
width = 951;
},
{
layerId = "AF956123-A183-4F86-8774-5A4F8E572774";
width = 600;
}
);
unicode = 00D6;
},
{
glyphname = Ograve;
lastChange = "2018-12-14 18:07:14 +0000";
layers = (
{
layerId = master01;
paths = (
{
closed = 1;
nodes = (
"644 53 OFFCURVE",
"794 190 CURVE SMOOTH",
"881 271 OFFCURVE",
"952 366 OFFCURVE",
"996 463 CURVE",
"1069 470 OFFCURVE",
"1121 496 OFFCURVE",
"1148 532 CURVE SMOOTH",
"1172 563 OFFCURVE",
"1177 598 OFFCURVE",
"1177 621 CURVE SMOOTH",
"1177 649 OFFCURVE",
"1168 676 OFFCURVE",
"1149 700 CURVE SMOOTH",
"1122 732 OFFCURVE",
"1083 744 OFFCURVE",
"1033 750 CURVE",
"1033 754 OFFCURVE",
"1032 757 OFFCURVE",
"1031 761 CURVE SMOOTH",
"1025 782 OFFCURVE",
"1016 805 OFFCURVE",
"1003 826 CURVE",
"971 883 OFFCURVE",
"906 915 OFFCURVE",
"836 916 CURVE SMOOTH",
"811 916 OFFCURVE",
"784 911 OFFCURVE",
"755 899 CURVE",
"753 901 OFFCURVE",
"751 903 OFFCURVE",
"749 903 CURVE",
"736 906 OFFCURVE",
"724 906 OFFCURVE",
"711 906 CURVE SMOOTH",
"648 906 OFFCURVE",
"584 890 OFFCURVE",
"526 865 CURVE SMOOTH",
"433 824 OFFCURVE",
"326 754 OFFCURVE",
"232 660 CURVE SMOOTH",
"139 565 OFFCURVE",
"59 446 OFFCURVE",
"20 304 CURVE",
"-18 125 OFFCURVE",
"56 -20 OFFCURVE",
"264 -35 CURVE SMOOTH",
"453 -44 OFFCURVE"
);
},
{
closed = 1;
nodes = (
"0 120 OFFCURVE",
"38 300 CURVE",
"75 437 OFFCURVE",
"153 554 OFFCURVE",
"245 647 CURVE SMOOTH",
"328 730 OFFCURVE",
"426 799 OFFCURVE",
"534 849 CURVE SMOOTH",
"589 875 OFFCURVE",
"656 890 OFFCURVE",
"711 888 CURVE",
"717 888 OFFCURVE",
"724 888 OFFCURVE",
"730 888 CURVE",
"669 854 OFFCURVE",
"633 800 OFFCURVE",
"630 726 CURVE",
"630 687 OFFCURVE",
"641 646 OFFCURVE",
"663 609 CURVE",
"634 578 OFFCURVE",
"606 541 OFFCURVE",
"582 496 CURVE",
"580 491 OFFCURVE",
"582 486 OFFCURVE",
"586 484 CURVE",
"591 481 OFFCURVE",
"596 483 OFFCURVE",
"598 487 CURVE SMOOTH",
"620 530 OFFCURVE",
"646 564 OFFCURVE",
"674 593 CURVE",
"684 579 OFFCURVE",
"696 565 OFFCURVE",
"710 552 CURVE SMOOTH",
"738 526 OFFCURVE",
"779 503 OFFCURVE",
"824 487 CURVE SMOOTH",
"869 472 OFFCURVE",
"919 462 OFFCURVE",
"967 462 CURVE SMOOTH",
"970 462 OFFCURVE",
"973 462 OFFCURVE",
"976 462 CURVE",
"933 370 OFFCURVE",
"865 280 OFFCURVE",
"781 203 CURVE SMOOTH",
"658 89 OFFCURVE",
"478 -23 OFFCURVE",
"265 -17 CURVE SMOOTH",
"81 -7 OFFCURVE"
);
},
{
closed = 1;
nodes = (
"696 592 OFFCURVE",
"686 606 CURVE",
"727 645 OFFCURVE",
"770 671 OFFCURVE",
"808 689 CURVE SMOOTH",
"870 719 OFFCURVE",
"953 735 OFFCURVE",
"1019 733 CURVE",
"1025 701 OFFCURVE",
"1026 672 OFFCURVE",
"1026 658 CURVE SMOOTH",
"1026 599 OFFCURVE",
"1009 539 OFFCURVE",
"984 481 CURVE",
"978 480 OFFCURVE",
"973 480 OFFCURVE",
"967 480 CURVE SMOOTH",
"921 480 OFFCURVE",
"873 489 OFFCURVE",
"830 504 CURVE SMOOTH",
"786 520 OFFCURVE",
"748 541 OFFCURVE",
"722 565 CURVE SMOOTH",
"708 578 OFFCURVE"
);
},
{
closed = 1;
nodes = (
"1044 672 OFFCURVE",
"1043 700 OFFCURVE",
"1037 732 CURVE",
"1073 727 OFFCURVE",
"1108 717 OFFCURVE",
"1136 689 CURVE",
"1151 671 OFFCURVE",
"1158 648 OFFCURVE",
"1159 621 CURVE",
"1159 600 OFFCURVE",
"1154 570 OFFCURVE",
"1133 543 CURVE SMOOTH",
"1106 507 OFFCURVE",
"1049 485 OFFCURVE",
"1004 482 CURVE",
"1025 535 OFFCURVE",
"1041 590 OFFCURVE",
"1044 657 CURVE",
"1044 658 LINE SMOOTH"
);
},
{
closed = 1;
nodes = (
"738 895 OFFCURVE",
"836 898 CURVE SMOOTH",
"896 898 OFFCURVE",
"957 870 OFFCURVE",
"988 817 CURVE SMOOTH",
"1000 796 OFFCURVE",
"1009 773 OFFCURVE",
"1015 751 CURVE",
"943 751 OFFCURVE",
"873 738 OFFCURVE",
"800 706 CURVE",
"761 687 OFFCURVE",
"718 661 OFFCURVE",
"677 622 CURVE",
"657 655 OFFCURVE",
"648 691 OFFCURVE",
"648 726 CURVE SMOOTH",
"648 827 OFFCURVE"
);
},
{
closed = 1;
nodes = (
"988 962 OFFCURVE",
"1008 964 CURVE",
"1013 964 OFFCURVE",
"1017 969 OFFCURVE",
"1017 974 CURVE",
"1016 979 OFFCURVE",
"1012 982 OFFCURVE",
"1007 982 CURVE",
"874 971 OFFCURVE",
"708 995 OFFCURVE",
"659 1142 CURVE SMOOTH",
"651 1169 OFFCURVE",
"651 1189 OFFCURVE",
"651 1189 CURVE",
"651 1194 OFFCURVE",
"647 1198 OFFCURVE",
"642 1198 CURVE SMOOTH",
"637 1198 OFFCURVE",
"633 1194 OFFCURVE",
"633 1189 CURVE SMOOTH",
"633 1188 OFFCURVE",
"633 1167 OFFCURVE",
"642 1138 CURVE SMOOTH",
"680 1009 OFFCURVE",
"818 961 OFFCURVE",
"948 961 CURVE SMOOTH",
"968 961 OFFCURVE"
);
}
);
width = 951;
},
{
layerId = "AF956123-A183-4F86-8774-5A4F8E572774";
width = 600;
}
);
unicode = 00D2;
},
{
glyphname = Oslash;
lastChange = "2018-12-14 18:07:14 +0000";
layers = (
{
layerId = master01;
paths = (
{
closed = 1;
nodes = (
"644 53 OFFCURVE",
"794 190 CURVE SMOOTH",
"881 271 OFFCURVE",
"952 366 OFFCURVE",
"996 463 CURVE",
"1069 470 OFFCURVE",
"1121 496 OFFCURVE",
"1148 532 CURVE SMOOTH",
"1172 563 OFFCURVE",
"1177 598 OFFCURVE",
"1177 621 CURVE SMOOTH",
"1177 649 OFFCURVE",
"1168 676 OFFCURVE",
"1149 700 CURVE SMOOTH",
"1122 732 OFFCURVE",
"1083 744 OFFCURVE",
"1033 750 CURVE",
"1033 754 OFFCURVE",
"1032 757 OFFCURVE",
"1031 761 CURVE SMOOTH",
"1025 782 OFFCURVE",
"1016 805 OFFCURVE",
"1003 826 CURVE",
"971 883 OFFCURVE",
"906 915 OFFCURVE",
"836 916 CURVE SMOOTH",
"811 916 OFFCURVE",
"784 911 OFFCURVE",
"755 899 CURVE",
"753 901 OFFCURVE",
"751 903 OFFCURVE",
"749 903 CURVE",
"736 906 OFFCURVE",
"724 906 OFFCURVE",
"711 906 CURVE SMOOTH",
"648 906 OFFCURVE",
"584 890 OFFCURVE",
"526 865 CURVE SMOOTH",
"433 824 OFFCURVE",
"326 754 OFFCURVE",
"232 660 CURVE SMOOTH",
"139 565 OFFCURVE",
"59 446 OFFCURVE",
"20 304 CURVE",
"-18 125 OFFCURVE",
"56 -20 OFFCURVE",
"264 -35 CURVE SMOOTH",
"453 -44 OFFCURVE"
);
},
{
closed = 1;
nodes = (
"0 120 OFFCURVE",
"38 300 CURVE",
"75 437 OFFCURVE",
"153 554 OFFCURVE",
"245 647 CURVE SMOOTH",
"328 730 OFFCURVE",
"426 799 OFFCURVE",
"534 849 CURVE SMOOTH",
"589 875 OFFCURVE",
"656 890 OFFCURVE",
"711 888 CURVE",
"717 888 OFFCURVE",
"724 888 OFFCURVE",
"730 888 CURVE",
"669 854 OFFCURVE",
"633 800 OFFCURVE",
"630 726 CURVE",
"630 687 OFFCURVE",
"641 646 OFFCURVE",
"663 609 CURVE",
"634 578 OFFCURVE",
"606 541 OFFCURVE",
"582 496 CURVE",
"580 491 OFFCURVE",
"582 486 OFFCURVE",
"586 484 CURVE",
"591 481 OFFCURVE",
"596 483 OFFCURVE",
"598 487 CURVE SMOOTH",
"620 530 OFFCURVE",
"646 564 OFFCURVE",
"674 593 CURVE",
"684 579 OFFCURVE",
"696 565 OFFCURVE",
"710 552 CURVE SMOOTH",
"738 526 OFFCURVE",
"779 503 OFFCURVE",
"824 487 CURVE SMOOTH",
"869 472 OFFCURVE",
"919 462 OFFCURVE",
"967 462 CURVE SMOOTH",
"970 462 OFFCURVE",
"973 462 OFFCURVE",
"976 462 CURVE",
"933 370 OFFCURVE",
"865 280 OFFCURVE",
"781 203 CURVE SMOOTH",
"658 89 OFFCURVE",
"478 -23 OFFCURVE",
"265 -17 CURVE SMOOTH",
"81 -7 OFFCURVE"
);
},
{
closed = 1;
nodes = (
"696 592 OFFCURVE",
"686 606 CURVE",
"727 645 OFFCURVE",
"770 671 OFFCURVE",
"808 689 CURVE SMOOTH",
"870 719 OFFCURVE",
"953 735 OFFCURVE",
"1019 733 CURVE",
"1025 701 OFFCURVE",
"1026 672 OFFCURVE",
"1026 658 CURVE SMOOTH",
"1026 599 OFFCURVE",
"1009 539 OFFCURVE",
"984 481 CURVE",
"978 480 OFFCURVE",
"973 480 OFFCURVE",
"967 480 CURVE SMOOTH",
"921 480 OFFCURVE",
"873 489 OFFCURVE",
"830 504 CURVE SMOOTH",
"786 520 OFFCURVE",
"748 541 OFFCURVE",
"722 565 CURVE SMOOTH",
"708 578 OFFCURVE"
);
},
{
closed = 1;
nodes = (
"1044 672 OFFCURVE",
"1043 700 OFFCURVE",
"1037 732 CURVE",
"1073 727 OFFCURVE",
"1108 717 OFFCURVE",
"1136 689 CURVE",
"1151 671 OFFCURVE",
"1158 648 OFFCURVE",
"1159 621 CURVE",
"1159 600 OFFCURVE",
"1154 570 OFFCURVE",
"1133 543 CURVE SMOOTH",
"1106 507 OFFCURVE",
"1049 485 OFFCURVE",
"1004 482 CURVE",
"1025 535 OFFCURVE",
"1041 590 OFFCURVE",
"1044 657 CURVE",
"1044 658 LINE SMOOTH"
);
},
{
closed = 1;
nodes = (
"738 895 OFFCURVE",
"836 898 CURVE SMOOTH",
"896 898 OFFCURVE",
"957 870 OFFCURVE",
"988 817 CURVE SMOOTH",
"1000 796 OFFCURVE",
"1009 773 OFFCURVE",
"1015 751 CURVE",
"943 751 OFFCURVE",
"873 738 OFFCURVE",
"800 706 CURVE",
"761 687 OFFCURVE",
"718 661 OFFCURVE",
"677 622 CURVE",
"657 655 OFFCURVE",
"648 691 OFFCURVE",
"648 726 CURVE SMOOTH",
"648 827 OFFCURVE"
);
},
{
closed = 1;
nodes = (
"74 -224 OFFCURVE",
"76 -221 CURVE SMOOTH",
"889 1049 LINE",
"892 1053 OFFCURVE",
"891 1059 OFFCURVE",
"887 1061 CURVE",
"882 1064 OFFCURVE",
"877 1063 OFFCURVE",
"874 1059 CURVE",
"61 -211 LINE",
"58 -215 OFFCURVE",
"59 -221 OFFCURVE",
"63 -224 CURVE",
"65 -225 OFFCURVE",
"66 -225 OFFCURVE",
"68 -225 CURVE SMOOTH",
"71 -225 OFFCURVE"
);
}
);
width = 951;
},
{
layerId = "AF956123-A183-4F86-8774-5A4F8E572774";
width = 600;
}
);
unicode = 00D8;
},
{
glyphname = Otilde;
lastChange = "2018-12-14 18:07:14 +0000";
layers = (
{
layerId = master01;
paths = (
{
closed = 1;
nodes = (
"644 53 OFFCURVE",
"794 190 CURVE SMOOTH",
"881 271 OFFCURVE",
"952 366 OFFCURVE",
"996 463 CURVE",
"1069 470 OFFCURVE",
"1121 496 OFFCURVE",
"1148 532 CURVE SMOOTH",
"1172 563 OFFCURVE",
"1177 598 OFFCURVE",
"1177 621 CURVE SMOOTH",
"1177 649 OFFCURVE",
"1168 676 OFFCURVE",
"1149 700 CURVE SMOOTH",
"1122 732 OFFCURVE",
"1083 744 OFFCURVE",
"1033 750 CURVE",
"1033 754 OFFCURVE",
"1032 757 OFFCURVE",
"1031 761 CURVE SMOOTH",
"1025 782 OFFCURVE",
"1016 805 OFFCURVE",
"1003 826 CURVE",
"971 883 OFFCURVE",
"906 915 OFFCURVE",
"836 916 CURVE SMOOTH",
"811 916 OFFCURVE",
"784 911 OFFCURVE",
"755 899 CURVE",
"753 901 OFFCURVE",
"751 903 OFFCURVE",
"749 903 CURVE",
"736 906 OFFCURVE",
"724 906 OFFCURVE",
"711 906 CURVE SMOOTH",
"648 906 OFFCURVE",
"584 890 OFFCURVE",
"526 865 CURVE SMOOTH",
"433 824 OFFCURVE",
"326 754 OFFCURVE",
"232 660 CURVE SMOOTH",
"139 565 OFFCURVE",
"59 446 OFFCURVE",
"20 304 CURVE",
"-18 125 OFFCURVE",
"56 -20 OFFCURVE",
"264 -35 CURVE SMOOTH",
"453 -44 OFFCURVE"
);
},
{
closed = 1;
nodes = (
"0 120 OFFCURVE",
"38 300 CURVE",
"75 437 OFFCURVE",
"153 554 OFFCURVE",
"245 647 CURVE SMOOTH",
"328 730 OFFCURVE",
"426 799 OFFCURVE",
"534 849 CURVE SMOOTH",
"589 875 OFFCURVE",
"656 890 OFFCURVE",
"711 888 CURVE",
"717 888 OFFCURVE",
"724 888 OFFCURVE",
"730 888 CURVE",
"669 854 OFFCURVE",
"633 800 OFFCURVE",
"630 726 CURVE",
"630 687 OFFCURVE",
"641 646 OFFCURVE",
"663 609 CURVE",
"634 578 OFFCURVE",
"606 541 OFFCURVE",
"582 496 CURVE",
"580 491 OFFCURVE",
"582 486 OFFCURVE",
"586 484 CURVE",
"591 481 OFFCURVE",
"596 483 OFFCURVE",
"598 487 CURVE SMOOTH",
"620 530 OFFCURVE",
"646 564 OFFCURVE",
"674 593 CURVE",
"684 579 OFFCURVE",
"696 565 OFFCURVE",
"710 552 CURVE SMOOTH",
"738 526 OFFCURVE",
"779 503 OFFCURVE",
"824 487 CURVE SMOOTH",
"869 472 OFFCURVE",
"919 462 OFFCURVE",
"967 462 CURVE SMOOTH",
"970 462 OFFCURVE",
"973 462 OFFCURVE",
"976 462 CURVE",
"933 370 OFFCURVE",
"865 280 OFFCURVE",
"781 203 CURVE SMOOTH",
"658 89 OFFCURVE",
"478 -23 OFFCURVE",
"265 -17 CURVE SMOOTH",
"81 -7 OFFCURVE"
);
},
{
closed = 1;
nodes = (
"696 592 OFFCURVE",
"686 606 CURVE",
"727 645 OFFCURVE",
"770 671 OFFCURVE",
"808 689 CURVE SMOOTH",
"870 719 OFFCURVE",
"953 735 OFFCURVE",
"1019 733 CURVE",
"1025 701 OFFCURVE",
"1026 672 OFFCURVE",
"1026 658 CURVE SMOOTH",
"1026 599 OFFCURVE",
"1009 539 OFFCURVE",
"984 481 CURVE",
"978 480 OFFCURVE",
"973 480 OFFCURVE",
"967 480 CURVE SMOOTH",
"921 480 OFFCURVE",
"873 489 OFFCURVE",
"830 504 CURVE SMOOTH",
"786 520 OFFCURVE",
"748 541 OFFCURVE",
"722 565 CURVE SMOOTH",
"708 578 OFFCURVE"
);
},
{
closed = 1;
nodes = (
"1044 672 OFFCURVE",
"1043 700 OFFCURVE",
"1037 732 CURVE",
"1073 727 OFFCURVE",
"1108 717 OFFCURVE",
"1136 689 CURVE",
"1151 671 OFFCURVE",
"1158 648 OFFCURVE",
"1159 621 CURVE",
"1159 600 OFFCURVE",
"1154 570 OFFCURVE",
"1133 543 CURVE SMOOTH",
"1106 507 OFFCURVE",
"1049 485 OFFCURVE",
"1004 482 CURVE",
"1025 535 OFFCURVE",
"1041 590 OFFCURVE",
"1044 657 CURVE",
"1044 658 LINE SMOOTH"
);
},
{
closed = 1;
nodes = (
"738 895 OFFCURVE",
"836 898 CURVE SMOOTH",
"896 898 OFFCURVE",
"957 870 OFFCURVE",
"988 817 CURVE SMOOTH",
"1000 796 OFFCURVE",
"1009 773 OFFCURVE",
"1015 751 CURVE",
"943 751 OFFCURVE",
"873 738 OFFCURVE",
"800 706 CURVE",
"761 687 OFFCURVE",
"718 661 OFFCURVE",
"677 622 CURVE",
"657 655 OFFCURVE",
"648 691 OFFCURVE",
"648 726 CURVE SMOOTH",
"648 827 OFFCURVE"
);
},
{
closed = 1;
nodes = (
"1101 955 OFFCURVE",
"1102 959 CURVE",
"1102 960 OFFCURVE",
"1106 980 OFFCURVE",
"1099 1002 CURVE SMOOTH",
"1092 1023 OFFCURVE",
"1075 1050 OFFCURVE",
"1027 1062 CURVE SMOOTH",
"938 1082 OFFCURVE",
"891 970 OFFCURVE",
"805 970 CURVE SMOOTH",
"786 970 OFFCURVE",
"773 975 OFFCURVE",
"765 986 CURVE SMOOTH",
"747 1010 OFFCURVE",
"761 1053 OFFCURVE",
"762 1054 CURVE",
"763 1059 OFFCURVE",
"761 1064 OFFCURVE",
"756 1066 CURVE",
"751 1067 OFFCURVE",
"746 1065 OFFCURVE",
"744 1060 CURVE",
"744 1058 OFFCURVE",
"727 1007 OFFCURVE",
"750 976 CURVE",
"761 960 OFFCURVE",
"780 952 OFFCURVE",
"805 952 CURVE SMOOTH",
"897 952 OFFCURVE",
"949 1060 OFFCURVE",
"1023 1044 CURVE SMOOTH",
"1097 1028 OFFCURVE",
"1085 966 OFFCURVE",
"1084 963 CURVE",
"1083 958 OFFCURVE",
"1086 953 OFFCURVE",
"1091 952 CURVE SMOOTH",
"1097 951 OFFCURVE"
);
}
);
width = 951;
},
{
layerId = "AF956123-A183-4F86-8774-5A4F8E572774";
width = 600;
}
);
unicode = 00D5;
},
{
glyphname = OE;
lastChange = "2018-12-14 18:07:14 +0000";
layers = (
{
layerId = master01;
paths = (
{
closed = 1;
nodes = (
"644 53 OFFCURVE",
"794 190 CURVE SMOOTH",
"881 271 OFFCURVE",
"952 366 OFFCURVE",
"996 463 CURVE",
"1069 470 OFFCURVE",
"1121 496 OFFCURVE",
"1148 532 CURVE SMOOTH",
"1172 563 OFFCURVE",
"1177 598 OFFCURVE",
"1177 621 CURVE SMOOTH",
"1177 649 OFFCURVE",
"1168 676 OFFCURVE",
"1149 700 CURVE SMOOTH",
"1122 732 OFFCURVE",
"1083 744 OFFCURVE",
"1033 750 CURVE",
"1033 754 OFFCURVE",
"1032 757 OFFCURVE",
"1031 761 CURVE SMOOTH",
"1025 782 OFFCURVE",
"1016 805 OFFCURVE",
"1003 826 CURVE",
"971 883 OFFCURVE",
"906 915 OFFCURVE",
"836 916 CURVE SMOOTH",
"811 916 OFFCURVE",
"784 911 OFFCURVE",
"755 899 CURVE",
"753 901 OFFCURVE",
"751 903 OFFCURVE",
"749 903 CURVE",
"736 906 OFFCURVE",
"724 906 OFFCURVE",
"711 906 CURVE SMOOTH",
"648 906 OFFCURVE",
"584 890 OFFCURVE",
"526 865 CURVE SMOOTH",
"433 824 OFFCURVE",
"326 754 OFFCURVE",
"232 660 CURVE SMOOTH",
"139 565 OFFCURVE",
"59 446 OFFCURVE",
"20 304 CURVE",
"-18 125 OFFCURVE",
"56 -20 OFFCURVE",
"264 -35 CURVE SMOOTH",
"453 -44 OFFCURVE"
);
},
{
closed = 1;
nodes = (
"0 120 OFFCURVE",
"38 300 CURVE",
"75 437 OFFCURVE",
"153 554 OFFCURVE",
"245 647 CURVE SMOOTH",
"328 730 OFFCURVE",
"426 799 OFFCURVE",
"534 849 CURVE SMOOTH",
"589 875 OFFCURVE",
"656 890 OFFCURVE",
"711 888 CURVE",
"717 888 OFFCURVE",
"724 888 OFFCURVE",
"730 888 CURVE",
"669 854 OFFCURVE",
"633 800 OFFCURVE",
"630 726 CURVE",
"630 687 OFFCURVE",
"641 646 OFFCURVE",
"663 609 CURVE",
"634 578 OFFCURVE",
"606 541 OFFCURVE",
"582 496 CURVE",
"580 491 OFFCURVE",
"582 486 OFFCURVE",
"586 484 CURVE",
"591 481 OFFCURVE",
"596 483 OFFCURVE",
"598 487 CURVE SMOOTH",
"620 530 OFFCURVE",
"646 564 OFFCURVE",
"674 593 CURVE",
"684 579 OFFCURVE",
"696 565 OFFCURVE",
"710 552 CURVE SMOOTH",
"738 526 OFFCURVE",
"779 503 OFFCURVE",
"824 487 CURVE SMOOTH",
"869 472 OFFCURVE",
"919 462 OFFCURVE",
"967 462 CURVE SMOOTH",
"970 462 OFFCURVE",
"973 462 OFFCURVE",
"976 462 CURVE",
"933 370 OFFCURVE",
"865 280 OFFCURVE",
"781 203 CURVE SMOOTH",
"658 89 OFFCURVE",
"478 -23 OFFCURVE",
"265 -17 CURVE SMOOTH",
"81 -7 OFFCURVE"
);
},
{
closed = 1;
nodes = (
"696 592 OFFCURVE",
"686 606 CURVE",
"727 645 OFFCURVE",
"770 671 OFFCURVE",
"808 689 CURVE SMOOTH",
"870 719 OFFCURVE",
"953 735 OFFCURVE",
"1019 733 CURVE",
"1025 701 OFFCURVE",
"1026 672 OFFCURVE",
"1026 658 CURVE SMOOTH",
"1026 599 OFFCURVE",
"1009 539 OFFCURVE",
"984 481 CURVE",
"978 480 OFFCURVE",
"973 480 OFFCURVE",
"967 480 CURVE SMOOTH",
"921 480 OFFCURVE",
"873 489 OFFCURVE",
"830 504 CURVE SMOOTH",
"786 520 OFFCURVE",
"748 541 OFFCURVE",
"722 565 CURVE SMOOTH",
"708 578 OFFCURVE"
);
},
{
closed = 1;
nodes = (
"1044 672 OFFCURVE",
"1043 700 OFFCURVE",
"1037 732 CURVE",
"1073 727 OFFCURVE",
"1108 717 OFFCURVE",
"1136 689 CURVE",
"1151 671 OFFCURVE",
"1158 648 OFFCURVE",
"1159 621 CURVE",
"1159 600 OFFCURVE",
"1154 570 OFFCURVE",
"1133 543 CURVE SMOOTH",
"1106 507 OFFCURVE",
"1049 485 OFFCURVE",
"1004 482 CURVE",
"1025 535 OFFCURVE",
"1041 590 OFFCURVE",
"1044 657 CURVE",
"1044 658 LINE SMOOTH"
);
},
{
closed = 1;
nodes = (
"738 895 OFFCURVE",
"836 898 CURVE SMOOTH",
"896 898 OFFCURVE",
"957 870 OFFCURVE",
"988 817 CURVE SMOOTH",
"1000 796 OFFCURVE",
"1009 773 OFFCURVE",
"1015 751 CURVE",
"943 751 OFFCURVE",
"873 738 OFFCURVE",
"800 706 CURVE",
"761 687 OFFCURVE",
"718 661 OFFCURVE",
"677 622 CURVE",
"657 655 OFFCURVE",
"648 691 OFFCURVE",
"648 726 CURVE SMOOTH",
"648 827 OFFCURVE"
);
},
{
closed = 1;
nodes = (
"1528 69 OFFCURVE",
"1605 218 CURVE SMOOTH",
"1607 222 OFFCURVE",
"1605 228 OFFCURVE",
"1600 230 CURVE",
"1596 232 OFFCURVE",
"1590 230 OFFCURVE",
"1588 225 CURVE",
"1520 85 OFFCURVE",
"1379 4 OFFCURVE",
"1224 4 CURVE SMOOTH",
"1149 4 OFFCURVE",
"1063 38 OFFCURVE",
"1014 103 CURVE SMOOTH",
"980 151 OFFCURVE",
"974 209 OFFCURVE",
"982 278 CURVE",
"994 350 OFFCURVE",
"1028 415 OFFCURVE",
"1086 464 CURVE SMOOTH",
"1130 503 OFFCURVE",
"1185 531 OFFCURVE",
"1246 543 CURVE",
"1254 528 OFFCURVE",
"1268 512 OFFCURVE",
"1282 501 CURVE SMOOTH",
"1315 474 OFFCURVE",
"1407 448 OFFCURVE",
"1425 497 CURVE",
"1437 543 OFFCURVE",
"1389 563 OFFCURVE",
"1348 567 CURVE SMOOTH",
"1317 569 OFFCURVE",
"1287 569 OFFCURVE",
"1256 563 CURVE",
"1235 612 OFFCURVE",
"1235 671 OFFCURVE",
"1251 729 CURVE",
"1308 682 OFFCURVE",
"1373 663 OFFCURVE",
"1450 660 CURVE",
"1533 660 OFFCURVE",
"1617 697 OFFCURVE",
"1665 763 CURVE SMOOTH",
"1698 811 OFFCURVE",
"1700 883 OFFCURVE",
"1656 927 CURVE",
"1613 967 OFFCURVE",
"1549 969 OFFCURVE",
"1491 962 CURVE",
"1490 962 OFFCURVE",
"1435 954 OFFCURVE",
"1373 916 CURVE SMOOTH",
"1343 897 OFFCURVE",
"1310 870 OFFCURVE",
"1283 833 CURVE SMOOTH",
"1268 812 OFFCURVE",
"1254 789 OFFCURVE",
"1243 761 CURVE",
"1210 798 OFFCURVE",
"1187 838 OFFCURVE",
"1177 896 CURVE SMOOTH",
"1176 901 OFFCURVE",
"1173 904 OFFCURVE",
"1167 904 CURVE",
"1161 903 OFFCURVE",
"1158 899 OFFCURVE",
"1159 893 CURVE SMOOTH",
"1168 831 OFFCURVE",
"1201 779 OFFCURVE",
"1236 743 CURVE",
"1216 686 OFFCURVE",
"1215 621 OFFCURVE",
"1237 560 CURVE",
"1178 548 OFFCURVE",
"1125 520 OFFCURVE",
"1075 478 CURVE SMOOTH",
"1036 445 OFFCURVE",
"980 383 OFFCURVE",
"964 281 CURVE SMOOTH",
"955 216 OFFCURVE",
"960 147 OFFCURVE",
"1001 90 CURVE SMOOTH",
"1052 23 OFFCURVE",
"1132 -10 OFFCURVE",
"1224 -14 CURVE",
"1389 -14 OFFCURVE"
);
},
{
closed = 1;
nodes = (
"1332 486 OFFCURVE",
"1293 515 CURVE SMOOTH",
"1281 524 OFFCURVE",
"1272 535 OFFCURVE",
"1265 546 CURVE",
"1284 549 OFFCURVE",
"1309 553 OFFCURVE",
"1346 550 CURVE",
"1371 549 OFFCURVE",
"1418 535 OFFCURVE",
"1408 502 CURVE",
"1393 475 OFFCURVE"
);
},
{
closed = 1;
nodes = (
"1310 699 OFFCURVE",
"1257 748 CURVE",
"1268 776 OFFCURVE",
"1282 801 OFFCURVE",
"1297 822 CURVE",
"1341 879 OFFCURVE",
"1416 932 OFFCURVE",
"1489 943 CURVE SMOOTH",
"1549 951 OFFCURVE",
"1614 945 OFFCURVE",
"1644 914 CURVE",
"1681 880 OFFCURVE",
"1678 814 OFFCURVE",
"1650 774 CURVE",
"1602 714 OFFCURVE",
"1547 680 OFFCURVE",
"1450 678 CURVE SMOOTH",
"1382 678 OFFCURVE"
);
}
);
width = 1723;
},
{
layerId = "AF956123-A183-4F86-8774-5A4F8E572774";
width = 600;
}
);
unicode = 0152;
},
{
glyphname = P;
lastChange = "2018-12-14 18:07:14 +0000";
layers = (
{
layerId = master01;
paths = (
{
closed = 1;
nodes = (
"1178 913 OFFCURVE",
"1101 913 CURVE SMOOTH",
"1061 913 OFFCURVE",
"1023 907 OFFCURVE",
"988 897 CURVE",
"913 920 OFFCURVE",
"836 932 OFFCURVE",
"763 932 CURVE SMOOTH",
"678 932 OFFCURVE",
"588 907 OFFCURVE",
"519 861 CURVE",
"519 861 OFFCURVE",
"518 861 OFFCURVE",
"518 861 CURVE",
"496 888 OFFCURVE",
"467 905 OFFCURVE",
"444 917 CURVE SMOOTH",
"420 929 OFFCURVE",
"401 934 OFFCURVE",
"401 934 CURVE",
"396 935 OFFCURVE",
"391 932 OFFCURVE",
"390 927 CURVE",
"388 922 OFFCURVE",
"391 917 OFFCURVE",
"396 916 CURVE",
"421 908 OFFCURVE",
"443 898 OFFCURVE",
"464 885 CURVE SMOOTH",
"478 876 OFFCURVE",
"492 864 OFFCURVE",
"504 850 CURVE",
"477 829 OFFCURVE",
"453 803 OFFCURVE",
"435 770 CURVE SMOOTH",
"413 731 OFFCURVE",
"407 703 OFFCURVE",
"407 680 CURVE SMOOTH",
"407 635 OFFCURVE",
"429 602 OFFCURVE",
"474 599 CURVE SMOOTH",
"506 597 OFFCURVE",
"527 612 OFFCURVE",
"541 633 CURVE SMOOTH",
"553 651 OFFCURVE",
"561 678 OFFCURVE",
"561 718 CURVE SMOOTH",
"561 736 OFFCURVE",
"559 758 OFFCURVE",
"555 782 CURVE SMOOTH",
"551 807 OFFCURVE",
"542 829 OFFCURVE",
"529 847 CURVE",
"600 892 OFFCURVE",
"683 914 OFFCURVE",
"763 914 CURVE",
"804 916 OFFCURVE",
"904 908 OFFCURVE",
"958 887 CURVE",
"944 882 OFFCURVE",
"930 877 OFFCURVE",
"917 870 CURVE",
"834 829 OFFCURVE",
"763 763 OFFCURVE",
"697 683 CURVE SMOOTH",
"631 602 OFFCURVE",
"571 509 OFFCURVE",
"511 413 CURVE SMOOTH",
"430 285 OFFCURVE",
"371 161 OFFCURVE",
"311 67 CURVE SMOOTH",
"281 20 OFFCURVE",
"251 -19 OFFCURVE",
"219 -48 CURVE SMOOTH",
"187 -76 OFFCURVE",
"153 -94 OFFCURVE",
"113 -99 CURVE SMOOTH",
"58 -106 OFFCURVE",
"4 -80 OFFCURVE",
"-8 -25 CURVE SMOOTH",
"-9 -20 OFFCURVE",
"-14 -17 OFFCURVE",
"-19 -19 CURVE",
"-24 -20 OFFCURVE",
"-27 -25 OFFCURVE",
"-26 -29 CURVE SMOOTH",
"-8 -92 OFFCURVE",
"51 -125 OFFCURVE",
"115 -117 CURVE SMOOTH",
"159 -111 OFFCURVE",
"197 -92 OFFCURVE",
"231 -61 CURVE SMOOTH",
"282 -16 OFFCURVE",
"325 53 OFFCURVE",
"372 134 CURVE SMOOTH",
"418 215 OFFCURVE",
"466 308 OFFCURVE",
"526 404 CURVE SMOOTH",
"606 531 OFFCURVE",
"686 654 OFFCURVE",
"777 745 CURVE SMOOTH",
"823 791 OFFCURVE",
"872 828 OFFCURVE",
"925 854 CURVE SMOOTH",
"945 864 OFFCURVE",
"966 872 OFFCURVE",
"987 878 CURVE",
"1002 873 OFFCURVE",
"1016 868 OFFCURVE",
"1029 862 CURVE SMOOTH",
"1126 820 OFFCURVE",
"1176 758 OFFCURVE",
"1203 703 CURVE SMOOTH",
"1229 647 OFFCURVE",
"1232 598 OFFCURVE",
"1232 581 CURVE SMOOTH",
"1232 456 OFFCURVE",
"1147 350 OFFCURVE",
"1044 295 CURVE SMOOTH",
"929 232 OFFCURVE",
"804 251 OFFCURVE",
"709 323 CURVE SMOOTH",
"687 340 OFFCURVE",
"669 356 OFFCURVE",
"657 369 CURVE",
"652 374 OFFCURVE",
"642 386 OFFCURVE",
"639 390 CURVE SMOOTH",
"636 394 OFFCURVE",
"630 395 OFFCURVE",
"627 392 CURVE",
"623 389 OFFCURVE",
"622 383 OFFCURVE",
"625 379 CURVE",
"625 379 OFFCURVE",
"651 343 OFFCURVE",
"698 308 CURVE SMOOTH",
"811 224 OFFCURVE",
"939 217 OFFCURVE",
"1053 279 CURVE SMOOTH",
"1167 341 OFFCURVE",
"1250 452 OFFCURVE",
"1250 581 CURVE SMOOTH",
"1250 606 OFFCURVE",
"1245 690 OFFCURVE",
"1181 770 CURVE SMOOTH",
"1150 811 OFFCURVE",
"1103 849 OFFCURVE",
"1036 879 CURVE",
"1030 881 OFFCURVE",
"1024 884 OFFCURVE",
"1018 886 CURVE",
"1045 892 OFFCURVE",
"1072 894 OFFCURVE",
"1101 895 CURVE SMOOTH",
"1169 897 OFFCURVE",
"1245 876 OFFCURVE",
"1274 811 CURVE",
"1276 806 OFFCURVE",
"1281 804 OFFCURVE",
"1286 806 CURVE",
"1290 808 OFFCURVE",
"1293 814 OFFCURVE",
"1290 818 CURVE",
"1256 893 OFFCURVE"
);
},
{
closed = 1;
nodes = (
"543 735 OFFCURVE",
"543 718 CURVE SMOOTH",
"543 693 OFFCURVE",
"539 673 OFFCURVE",
"534 660 CURVE SMOOTH",
"523 630 OFFCURVE",
"501 615 OFFCURVE",
"474 617 CURVE SMOOTH",
"437 621 OFFCURVE",
"425 647 OFFCURVE",
"425 680 CURVE SMOOTH",
"425 699 OFFCURVE",
"430 724 OFFCURVE",
"450 761 CURVE SMOOTH",
"467 792 OFFCURVE",
"490 816 OFFCURVE",
"515 836 CURVE",
"526 820 OFFCURVE",
"534 801 OFFCURVE",
"537 779 CURVE",
"541 756 OFFCURVE"
);
}
);
width = 1203;
},
{
layerId = "AF956123-A183-4F86-8774-5A4F8E572774";
width = 600;
}
);
unicode = 0050;
},
{
glyphname = Q;
lastChange = "2018-12-14 18:07:14 +0000";
layers = (
{
layerId = master01;
paths = (
{
closed = 1;
nodes = (
"800 -319 OFFCURVE",
"844 -324 OFFCURVE",
"874 -324 CURVE SMOOTH",
"922 -324 OFFCURVE",
"982 -308 OFFCURVE",
"1013 -266 CURVE SMOOTH",
"1038 -232 OFFCURVE",
"1036 -180 OFFCURVE",
"1018 -149 CURVE SMOOTH",
"999 -115 OFFCURVE",
"963 -105 OFFCURVE",
"923 -104 CURVE SMOOTH",
"890 -104 OFFCURVE",
"863 -112 OFFCURVE",
"862 -112 CURVE",
"857 -113 OFFCURVE",
"855 -118 OFFCURVE",
"856 -123 CURVE",
"858 -128 OFFCURVE",
"863 -131 OFFCURVE",
"867 -129 CURVE",
"884 -125 OFFCURVE",
"902 -123 OFFCURVE",
"923 -122 CURVE",
"954 -122 OFFCURVE",
"985 -129 OFFCURVE",
"1003 -158 CURVE",
"1018 -186 OFFCURVE",
"1018 -226 OFFCURVE",
"999 -255 CURVE",
"971 -291 OFFCURVE",
"922 -305 OFFCURVE",
"874 -306 CURVE SMOOTH",
"846 -306 OFFCURVE",
"805 -301 OFFCURVE",
"758 -281 CURVE SMOOTH",
"712 -261 OFFCURVE",
"660 -225 OFFCURVE",
"612 -163 CURVE SMOOTH",
"570 -109 OFFCURVE",
"527 -66 OFFCURVE",
"489 -34 CURVE",
"577 6 OFFCURVE",
"660 63 OFFCURVE",
"732 130 CURVE SMOOTH",
"874 262 OFFCURVE",
"974 432 OFFCURVE",
"982 588 CURVE",
"982 625 OFFCURVE",
"979 661 OFFCURVE",
"968 700 CURVE SMOOTH",
"956 742 OFFCURVE",
"934 788 OFFCURVE",
"891 821 CURVE SMOOTH",
"842 856 OFFCURVE",
"784 881 OFFCURVE",
"702 881 CURVE SMOOTH",
"548 881 OFFCURVE",
"374 782 OFFCURVE",
"272 661 CURVE SMOOTH",
"214 590 OFFCURVE",
"184 511 OFFCURVE",
"175 428 CURVE SMOOTH",
"169 350 OFFCURVE",
"199 276 OFFCURVE",
"253 221 CURVE SMOOTH",
"304 172 OFFCURVE",
"376 139 OFFCURVE",
"463 139 CURVE SMOOTH",
"484 139 OFFCURVE",
"507 141 OFFCURVE",
"530 145 CURVE SMOOTH",
"618 162 OFFCURVE",
"684 200 OFFCURVE",
"728 249 CURVE SMOOTH",
"772 298 OFFCURVE",
"794 357 OFFCURVE",
"794 415 CURVE SMOOTH",
"794 444 OFFCURVE",
"789 471 OFFCURVE",
"779 498 CURVE SMOOTH",
"763 538 OFFCURVE",
"739 567 OFFCURVE",
"711 586 CURVE",
"682 604 OFFCURVE",
"649 612 OFFCURVE",
"616 612 CURVE SMOOTH",
"572 612 OFFCURVE",
"528 598 OFFCURVE",
"492 574 CURVE",
"488 571 OFFCURVE",
"487 565 OFFCURVE",
"490 561 CURVE",
"492 557 OFFCURVE",
"498 556 OFFCURVE",
"502 559 CURVE",
"535 581 OFFCURVE",
"576 595 OFFCURVE",
"616 594 CURVE SMOOTH",
"646 594 OFFCURVE",
"675 587 OFFCURVE",
"701 571 CURVE",
"726 554 OFFCURVE",
"748 529 OFFCURVE",
"762 491 CURVE SMOOTH",
"771 467 OFFCURVE",
"776 441 OFFCURVE",
"776 415 CURVE SMOOTH",
"776 362 OFFCURVE",
"756 307 OFFCURVE",
"715 261 CURVE SMOOTH",
"674 215 OFFCURVE",
"612 179 OFFCURVE",
"527 163 CURVE SMOOTH",
"505 159 OFFCURVE",
"483 157 OFFCURVE",
"463 157 CURVE SMOOTH",
"381 157 OFFCURVE",
"313 188 OFFCURVE",
"266 234 CURVE SMOOTH",
"210 287 OFFCURVE",
"189 361 OFFCURVE",
"193 426 CURVE",
"202 505 OFFCURVE",
"231 581 OFFCURVE",
"286 649 CURVE SMOOTH",
"382 767 OFFCURVE",
"545 859 OFFCURVE",
"702 863 CURVE SMOOTH",
"764 863 OFFCURVE",
"829 846 OFFCURVE",
"880 806 CURVE SMOOTH",
"918 777 OFFCURVE",
"940 735 OFFCURVE",
"951 695 CURVE SMOOTH",
"960 664 OFFCURVE",
"964 632 OFFCURVE",
"964 589 CURVE",
"957 440 OFFCURVE",
"859 273 OFFCURVE",
"719 143 CURVE SMOOTH",
"646 76 OFFCURVE",
"562 18 OFFCURVE",
"473 -21 CURVE",
"396 42 OFFCURVE",
"336 64 OFFCURVE",
"332 66 CURVE",
"280 88 OFFCURVE",
"218 103 OFFCURVE",
"156 104 CURVE SMOOTH",
"107 104 OFFCURVE",
"55 91 OFFCURVE",
"33 38 CURVE SMOOTH",
"25 17 OFFCURVE",
"25 -5 OFFCURVE",
"35 -26 CURVE",
"65 -80 OFFCURVE",
"146 -92 OFFCURVE",
"202 -95 CURVE SMOOTH",
"295 -98 OFFCURVE",
"367 -85 OFFCURVE",
"471 -42 CURVE",
"510 -75 OFFCURVE",
"554 -118 OFFCURVE",
"597 -174 CURVE SMOOTH",
"648 -239 OFFCURVE",
"703 -276 OFFCURVE",
"752 -298 CURVE",
"751 -298 LINE"
);
},
{
closed = 1;
nodes = (
"110 85 OFFCURVE",
"156 86 CURVE SMOOTH",
"214 86 OFFCURVE",
"279 70 OFFCURVE",
"326 49 CURVE",
"331 47 OFFCURVE",
"384 27 OFFCURVE",
"455 -29 CURVE",
"375 -62 OFFCURVE",
"289 -83 OFFCURVE",
"201 -77 CURVE SMOOTH",
"149 -73 OFFCURVE",
"80 -66 OFFCURVE",
"51 -17 CURVE",
"44 -2 OFFCURVE",
"45 17 OFFCURVE",
"51 32 CURVE",
"70 72 OFFCURVE"
);
}
);
width = 1004;
},
{
layerId = "AF956123-A183-4F86-8774-5A4F8E572774";
width = 600;
}
);
unicode = 0051;
},
{
glyphname = R;
lastChange = "2018-12-14 18:07:14 +0000";
layers = (
{
layerId = master01;
paths = (
{
closed = 1;
nodes = (
"1106 876 OFFCURVE",
"1031 877 CURVE SMOOTH",
"991 878 OFFCURVE",
"954 872 OFFCURVE",
"919 862 CURVE",
"837 886 OFFCURVE",
"765 896 OFFCURVE",
"693 896 CURVE SMOOTH",
"677 896 OFFCURVE",
"617 895 OFFCURVE",
"550 874 CURVE SMOOTH",
"517 864 OFFCURVE",
"481 848 OFFCURVE",
"448 826 CURVE",
"448 826 OFFCURVE",
"448 826 OFFCURVE",
"448 825 CURVE",
"425 852 OFFCURVE",
"397 870 OFFCURVE",
"374 881 CURVE SMOOTH",
"349 893 OFFCURVE",
"331 898 OFFCURVE",
"330 898 CURVE",
"325 899 OFFCURVE",
"320 896 OFFCURVE",
"319 892 CURVE",
"318 887 OFFCURVE",
"321 882 OFFCURVE",
"326 881 CURVE",
"351 873 OFFCURVE",
"374 862 OFFCURVE",
"393 849 CURVE SMOOTH",
"407 840 OFFCURVE",
"421 829 OFFCURVE",
"433 815 CURVE",
"407 794 OFFCURVE",
"383 767 OFFCURVE",
"364 734 CURVE SMOOTH",
"343 696 OFFCURVE",
"336 667 OFFCURVE",
"336 645 CURVE SMOOTH",
"335 598 OFFCURVE",
"364 563 OFFCURVE",
"408 563 CURVE SMOOTH",
"471 563 OFFCURVE",
"491 633 OFFCURVE",
"491 682 CURVE SMOOTH",
"491 730 OFFCURVE",
"483 774 OFFCURVE",
"459 811 CURVE",
"505 843 OFFCURVE",
"558 860 OFFCURVE",
"602 868 CURVE SMOOTH",
"647 877 OFFCURVE",
"682 878 OFFCURVE",
"693 878 CURVE SMOOTH",
"760 878 OFFCURVE",
"825 869 OFFCURVE",
"888 852 CURVE",
"874 847 OFFCURVE",
"860 841 OFFCURVE",
"847 835 CURVE SMOOTH",
"764 794 OFFCURVE",
"692 727 OFFCURVE",
"627 647 CURVE SMOOTH",
"586 597 OFFCURVE",
"547 542 OFFCURVE",
"509 484 CURVE",
"452 500 OFFCURVE",
"386 489 OFFCURVE",
"385 421 CURVE SMOOTH",
"385 391 OFFCURVE",
"402 365 OFFCURVE",
"423 349 CURVE",
"351 231 OFFCURVE",
"296 118 OFFCURVE",
"240 32 CURVE SMOOTH",
"211 -15 OFFCURVE",
"181 -55 OFFCURVE",
"148 -83 CURVE SMOOTH",
"111 -116 OFFCURVE",
"68 -136 OFFCURVE",
"22 -136 CURVE SMOOTH",
"-27 -136 OFFCURVE",
"-68 -107 OFFCURVE",
"-78 -61 CURVE SMOOTH",
"-79 -56 OFFCURVE",
"-84 -53 OFFCURVE",
"-89 -54 CURVE SMOOTH",
"-94 -55 OFFCURVE",
"-97 -60 OFFCURVE",
"-96 -65 CURVE SMOOTH",
"-83 -122 OFFCURVE",
"-31 -154 OFFCURVE",
"22 -154 CURVE SMOOTH",
"78 -154 OFFCURVE",
"125 -128 OFFCURVE",
"160 -97 CURVE SMOOTH",
"212 -51 OFFCURVE",
"255 17 OFFCURVE",
"301 98 CURVE SMOOTH",
"342 171 OFFCURVE",
"386 253 OFFCURVE",
"437 338 CURVE",
"487 306 OFFCURVE",
"564 258 OFFCURVE",
"710 241 CURVE",
"722 180 OFFCURVE",
"717 122 OFFCURVE",
"708 62 CURVE",
"699 16 OFFCURVE",
"689 -32 OFFCURVE",
"704 -73 CURVE SMOOTH",
"718 -112 OFFCURVE",
"755 -136 OFFCURVE",
"792 -136 CURVE SMOOTH",
"841 -136 OFFCURVE",
"891 -105 OFFCURVE",
"923 -73 CURVE SMOOTH",
"927 -69 OFFCURVE",
"927 -64 OFFCURVE",
"923 -60 CURVE SMOOTH",
"920 -57 OFFCURVE",
"914 -56 OFFCURVE",
"911 -59 CURVE SMOOTH",
"878 -90 OFFCURVE",
"836 -118 OFFCURVE",
"792 -118 CURVE SMOOTH",
"758 -118 OFFCURVE",
"731 -95 OFFCURVE",
"721 -67 CURVE SMOOTH",
"707 -26 OFFCURVE",
"719 21 OFFCURVE",
"726 59 CURVE SMOOTH",
"736 120 OFFCURVE",
"742 180 OFFCURVE",
"729 239 CURVE",
"743 238 OFFCURVE",
"758 237 OFFCURVE",
"772 237 CURVE SMOOTH",
"838 237 OFFCURVE",
"909 250 OFFCURVE",
"977 286 CURVE SMOOTH",
"1063 332 OFFCURVE",
"1109 388 OFFCURVE",
"1134 436 CURVE",
"1162 478 OFFCURVE",
"1164 551 OFFCURVE",
"1164 569 CURVE SMOOTH",
"1164 603 OFFCURVE",
"1155 682 OFFCURVE",
"1092 754 CURVE SMOOTH",
"1061 790 OFFCURVE",
"1016 825 OFFCURVE",
"952 850 CURVE",
"951 850 OFFCURVE",
"950 851 OFFCURVE",
"949 851 CURVE",
"975 856 OFFCURVE",
"1002 859 OFFCURVE",
"1031 859 CURVE SMOOTH",
"1102 859 OFFCURVE",
"1174 844 OFFCURVE",
"1204 775 CURVE",
"1206 771 OFFCURVE",
"1211 769 OFFCURVE",
"1216 771 CURVE",
"1220 773 OFFCURVE",
"1222 778 OFFCURVE",
"1220 783 CURVE",
"1185 861 OFFCURVE"
);
},
{
closed = 1;
nodes = (
"457 580 OFFCURVE",
"408 581 CURVE SMOOTH",
"375 582 OFFCURVE",
"354 606 OFFCURVE",
"354 645 CURVE SMOOTH",
"354 664 OFFCURVE",
"360 689 OFFCURVE",
"380 725 CURVE SMOOTH",
"397 756 OFFCURVE",
"419 781 OFFCURVE",
"444 800 CURVE",
"468 763 OFFCURVE",
"473 721 OFFCURVE",
"473 682 CURVE",
"470 635 OFFCURVE"
);
},
{
closed = 1;
nodes = (
"462 479 OFFCURVE",
"499 468 CURVE",
"471 427 OFFCURVE",
"449 393 OFFCURVE",
"432 364 CURVE",
"413 378 OFFCURVE",
"402 400 OFFCURVE",
"402 422 CURVE SMOOTH",
"402 477 OFFCURVE"
);
},
{
closed = 1;
nodes = (
"493 426 OFFCURVE",
"516 462 CURVE",
"532 456 OFFCURVE",
"548 448 OFFCURVE",
"562 437 CURVE",
"579 426 OFFCURVE",
"612 400 OFFCURVE",
"643 363 CURVE SMOOTH",
"667 335 OFFCURVE",
"690 300 OFFCURVE",
"704 259 CURVE",
"603 272 OFFCURVE",
"522 304 OFFCURVE",
"447 353 CURVE",
"471 391 OFFCURVE"
);
},
{
closed = 1;
nodes = (
"1087 742 OFFCURVE",
"1114 692 CURVE SMOOTH",
"1155 615 OFFCURVE",
"1156 517 OFFCURVE",
"1118 444 CURVE SMOOTH",
"1095 399 OFFCURVE",
"1051 347 OFFCURVE",
"968 302 CURVE SMOOTH",
"903 268 OFFCURVE",
"836 255 OFFCURVE",
"772 255 CURVE SMOOTH",
"756 255 OFFCURVE",
"740 256 OFFCURVE",
"724 257 CURVE",
"710 304 OFFCURVE",
"684 343 OFFCURVE",
"657 375 CURVE SMOOTH",
"625 413 OFFCURVE",
"591 440 OFFCURVE",
"573 452 CURVE SMOOTH",
"558 462 OFFCURVE",
"542 471 OFFCURVE",
"526 478 CURVE",
"583 564 OFFCURVE",
"642 645 OFFCURVE",
"707 710 CURVE SMOOTH",
"753 755 OFFCURVE",
"802 792 OFFCURVE",
"855 819 CURVE",
"875 828 OFFCURVE",
"896 837 OFFCURVE",
"918 843 CURVE",
"927 840 OFFCURVE",
"936 837 OFFCURVE",
"945 833 CURVE",
"1037 796 OFFCURVE"
);
}
);
width = 1154;
},
{
layerId = "AF956123-A183-4F86-8774-5A4F8E572774";
width = 600;
}
);
unicode = 0052;
},
{
glyphname = S;
lastChange = "2018-12-14 18:07:14 +0000";
layers = (
{
layerId = master01;
paths = (
{
closed = 1;
nodes = (
"59 -66 OFFCURVE",
"141 -93 OFFCURVE",
"226 -93 CURVE SMOOTH",
"349 -93 OFFCURVE",
"446 -52 OFFCURVE",
"500 -12 CURVE SMOOTH",
"571 41 OFFCURVE",
"616 105 OFFCURVE",
"642 173 CURVE SMOOTH",
"683 275 OFFCURVE",
"684 388 OFFCURVE",
"688 502 CURVE SMOOTH",
"690 555 OFFCURVE",
"692 608 OFFCURVE",
"698 661 CURVE",
"754 663 OFFCURVE",
"812 676 OFFCURVE",
"863 699 CURVE SMOOTH",
"912 721 OFFCURVE",
"971 764 OFFCURVE",
"1008 818 CURVE SMOOTH",
"1040 865 OFFCURVE",
"1058 922 OFFCURVE",
"1034 977 CURVE SMOOTH",
"1018 1013 OFFCURVE",
"979 1029 OFFCURVE",
"937 1030 CURVE SMOOTH",
"831 1030 OFFCURVE",
"762 938 OFFCURVE",
"722 843 CURVE SMOOTH",
"701 790 OFFCURVE",
"689 734 OFFCURVE",
"682 679 CURVE",
"625 679 OFFCURVE",
"573 693 OFFCURVE",
"535 722 CURVE",
"531 726 OFFCURVE",
"526 725 OFFCURVE",
"522 721 CURVE",
"519 717 OFFCURVE",
"520 711 OFFCURVE",
"524 708 CURVE SMOOTH",
"566 676 OFFCURVE",
"621 661 OFFCURVE",
"680 661 CURVE",
"670 570 OFFCURVE",
"671 478 OFFCURVE",
"665 390 CURVE SMOOTH",
"660 316 OFFCURVE",
"650 245 OFFCURVE",
"625 179 CURVE SMOOTH",
"599 114 OFFCURVE",
"558 55 OFFCURVE",
"489 4 CURVE SMOOTH",
"439 -34 OFFCURVE",
"345 -75 OFFCURVE",
"226 -75 CURVE SMOOTH",
"145 -75 OFFCURVE",
"67 -49 OFFCURVE",
"10 -5 CURVE SMOOTH",
"6 -2 OFFCURVE",
"3 1 OFFCURVE",
"-1 4 CURVE",
"44 31 OFFCURVE",
"78 67 OFFCURVE",
"101 97 CURVE SMOOTH",
"142 151 OFFCURVE",
"165 205 OFFCURVE",
"167 277 CURVE SMOOTH",
"167 342 OFFCURVE",
"128 392 OFFCURVE",
"57 396 CURVE",
"0 396 OFFCURVE",
"-40 362 OFFCURVE",
"-68 312 CURVE",
"-118 213 OFFCURVE",
"-114 95 OFFCURVE",
"-31 7 CURVE",
"-66 -10 OFFCURVE",
"-107 -22 OFFCURVE",
"-155 -22 CURVE SMOOTH",
"-175 -22 OFFCURVE",
"-196 -20 OFFCURVE",
"-219 -15 CURVE SMOOTH",
"-223 -14 OFFCURVE",
"-228 -18 OFFCURVE",
"-229 -22 CURVE",
"-230 -27 OFFCURVE",
"-227 -32 OFFCURVE",
"-222 -33 CURVE SMOOTH",
"-199 -38 OFFCURVE",
"-176 -40 OFFCURVE",
"-155 -40 CURVE SMOOTH",
"-110 -40 OFFCURVE",
"-56 -28 OFFCURVE",
"-17 -6 CURVE",
"-2 -19 LINE"
);
},
{
closed = 1;
nodes = (
"4 373 OFFCURVE",
"57 378 CURVE",
"114 378 OFFCURVE",
"147 334 OFFCURVE",
"148 278 CURVE SMOOTH",
"148 198 OFFCURVE",
"109 127 OFFCURVE",
"52 68 CURVE SMOOTH",
"34 49 OFFCURVE",
"11 32 OFFCURVE",
"-15 16 CURVE",
"-93 94 OFFCURVE",
"-100 205 OFFCURVE",
"-52 305 CURVE",
"-29 345 OFFCURVE"
);
},
{
closed = 1;
nodes = (
"834 1007 OFFCURVE",
"937 1012 CURVE",
"967 1012 OFFCURVE",
"1004 1000 OFFCURVE",
"1017 965 CURVE",
"1035 926 OFFCURVE",
"1020 869 OFFCURVE",
"991 827 CURVE SMOOTH",
"959 781 OFFCURVE",
"907 742 OFFCURVE",
"855 716 CURVE SMOOTH",
"807 694 OFFCURVE",
"753 681 OFFCURVE",
"700 679 CURVE",
"707 733 OFFCURVE",
"718 786 OFFCURVE",
"738 836 CURVE SMOOTH",
"772 921 OFFCURVE"
);
}
);
width = 942;
},
{
layerId = "AF956123-A183-4F86-8774-5A4F8E572774";
width = 600;
}
);
unicode = 0053;
},
{
glyphname = Scaron;
lastChange = "2018-12-14 18:07:14 +0000";
layers = (
{
layerId = master01;
paths = (
{
closed = 1;
nodes = (
"59 -66 OFFCURVE",
"141 -93 OFFCURVE",
"226 -93 CURVE SMOOTH",
"349 -93 OFFCURVE",
"446 -52 OFFCURVE",
"500 -12 CURVE SMOOTH",
"571 41 OFFCURVE",
"616 105 OFFCURVE",
"642 173 CURVE SMOOTH",
"683 275 OFFCURVE",
"684 388 OFFCURVE",
"688 502 CURVE SMOOTH",
"690 555 OFFCURVE",
"692 608 OFFCURVE",
"698 661 CURVE",
"754 663 OFFCURVE",
"812 676 OFFCURVE",
"863 699 CURVE SMOOTH",
"912 721 OFFCURVE",
"971 764 OFFCURVE",
"1008 818 CURVE SMOOTH",
"1040 865 OFFCURVE",
"1058 922 OFFCURVE",
"1034 977 CURVE SMOOTH",
"1018 1013 OFFCURVE",
"979 1029 OFFCURVE",
"937 1030 CURVE SMOOTH",
"831 1030 OFFCURVE",
"762 938 OFFCURVE",
"722 843 CURVE SMOOTH",
"701 790 OFFCURVE",
"689 734 OFFCURVE",
"682 679 CURVE",
"625 679 OFFCURVE",
"573 693 OFFCURVE",
"535 722 CURVE",
"531 726 OFFCURVE",
"526 725 OFFCURVE",
"522 721 CURVE",
"519 717 OFFCURVE",
"520 711 OFFCURVE",
"524 708 CURVE SMOOTH",
"566 676 OFFCURVE",
"621 661 OFFCURVE",
"680 661 CURVE",
"670 570 OFFCURVE",
"671 478 OFFCURVE",
"665 390 CURVE SMOOTH",
"660 316 OFFCURVE",
"650 245 OFFCURVE",
"625 179 CURVE SMOOTH",
"599 114 OFFCURVE",
"558 55 OFFCURVE",
"489 4 CURVE SMOOTH",
"439 -34 OFFCURVE",
"345 -75 OFFCURVE",
"226 -75 CURVE SMOOTH",
"145 -75 OFFCURVE",
"67 -49 OFFCURVE",
"10 -5 CURVE SMOOTH",
"6 -2 OFFCURVE",
"3 1 OFFCURVE",
"-1 4 CURVE",
"44 31 OFFCURVE",
"78 67 OFFCURVE",
"101 97 CURVE SMOOTH",
"142 151 OFFCURVE",
"165 205 OFFCURVE",
"167 277 CURVE SMOOTH",
"167 342 OFFCURVE",
"128 392 OFFCURVE",
"57 396 CURVE",
"0 396 OFFCURVE",
"-40 362 OFFCURVE",
"-68 312 CURVE",
"-118 213 OFFCURVE",
"-114 95 OFFCURVE",
"-31 7 CURVE",
"-66 -10 OFFCURVE",
"-107 -22 OFFCURVE",
"-155 -22 CURVE SMOOTH",
"-175 -22 OFFCURVE",
"-196 -20 OFFCURVE",
"-219 -15 CURVE SMOOTH",
"-223 -14 OFFCURVE",
"-228 -18 OFFCURVE",
"-229 -22 CURVE",
"-230 -27 OFFCURVE",
"-227 -32 OFFCURVE",
"-222 -33 CURVE SMOOTH",
"-199 -38 OFFCURVE",
"-176 -40 OFFCURVE",
"-155 -40 CURVE SMOOTH",
"-110 -40 OFFCURVE",
"-56 -28 OFFCURVE",
"-17 -6 CURVE",
"-2 -19 LINE"
);
},
{
closed = 1;
nodes = (
"4 373 OFFCURVE",
"57 378 CURVE",
"114 378 OFFCURVE",
"147 334 OFFCURVE",
"148 278 CURVE SMOOTH",
"148 198 OFFCURVE",
"109 127 OFFCURVE",
"52 68 CURVE SMOOTH",
"34 49 OFFCURVE",
"11 32 OFFCURVE",
"-15 16 CURVE",
"-93 94 OFFCURVE",
"-100 205 OFFCURVE",
"-52 305 CURVE",
"-29 345 OFFCURVE"
);
},
{
closed = 1;
nodes = (
"834 1007 OFFCURVE",
"937 1012 CURVE",
"967 1012 OFFCURVE",
"1004 1000 OFFCURVE",
"1017 965 CURVE",
"1035 926 OFFCURVE",
"1020 869 OFFCURVE",
"991 827 CURVE SMOOTH",
"959 781 OFFCURVE",
"907 742 OFFCURVE",
"855 716 CURVE SMOOTH",
"807 694 OFFCURVE",
"753 681 OFFCURVE",
"700 679 CURVE",
"707 733 OFFCURVE",
"718 786 OFFCURVE",
"738 836 CURVE SMOOTH",
"772 921 OFFCURVE"
);
},
{
closed = 1;
nodes = (
"924 1064 OFFCURVE",
"925 1065 CURVE SMOOTH",
"926 1066 OFFCURVE",
"1008 1146 OFFCURVE",
"1090 1146 CURVE SMOOTH",
"1095 1146 OFFCURVE",
"1099 1150 OFFCURVE",
"1099 1155 CURVE SMOOTH",
"1099 1160 OFFCURVE",
"1095 1164 OFFCURVE",
"1090 1164 CURVE SMOOTH",
"1052 1164 OFFCURVE",
"1011 1149 OFFCURVE",
"967 1121 CURVE SMOOTH",
"952 1111 OFFCURVE",
"940 1102 OFFCURVE",
"930 1094 CURVE",
"931 1117 OFFCURVE",
"924 1137 OFFCURVE",
"911 1153 CURVE SMOOTH",
"881 1190 OFFCURVE",
"825 1190 OFFCURVE",
"823 1190 CURVE SMOOTH",
"818 1190 OFFCURVE",
"814 1186 OFFCURVE",
"814 1181 CURVE SMOOTH",
"814 1176 OFFCURVE",
"818 1172 OFFCURVE",
"823 1172 CURVE",
"823 1172 OFFCURVE",
"872 1172 OFFCURVE",
"897 1141 CURVE",
"911 1125 OFFCURVE",
"915 1102 OFFCURVE",
"910 1073 CURVE SMOOTH",
"909 1067 OFFCURVE",
"910 1065 OFFCURVE",
"914 1063 CURVE",
"919 1061 OFFCURVE"
);
}
);
width = 942;
},
{
layerId = "AF956123-A183-4F86-8774-5A4F8E572774";
width = 600;
}
);
unicode = 0160;
},
{
glyphname = T;
lastChange = "2018-12-14 18:07:14 +0000";
layers = (
{
layerId = master01;
paths = (
{
closed = 1;
nodes = (
"-8 -99 OFFCURVE",
"26 -99 CURVE",
"26 -99 LINE",
"133 -99 OFFCURVE",
"215 -6 OFFCURVE",
"282 74 CURVE SMOOTH",
"336 140 OFFCURVE",
"394 221 OFFCURVE",
"464 315 CURVE SMOOTH",
"561 445 OFFCURVE",
"664 585 OFFCURVE",
"778 691 CURVE SMOOTH",
"789 701 OFFCURVE",
"800 711 OFFCURVE",
"811 721 CURVE",
"940 689 OFFCURVE",
"1025 683 OFFCURVE",
"1078 683 CURVE SMOOTH",
"1140 683 OFFCURVE",
"1208 689 OFFCURVE",
"1260 732 CURVE SMOOTH",
"1294 760 OFFCURVE",
"1311 813 OFFCURVE",
"1279 851 CURVE SMOOTH",
"1249 886 OFFCURVE",
"1201 888 OFFCURVE",
"1151 889 CURVE SMOOTH",
"1024 889 OFFCURVE",
"910 826 OFFCURVE",
"807 741 CURVE",
"740 758 OFFCURVE",
"661 782 OFFCURVE",
"570 815 CURVE SMOOTH",
"516 835 OFFCURVE",
"467 842 OFFCURVE",
"422 842 CURVE SMOOTH",
"341 842 OFFCURVE",
"276 817 OFFCURVE",
"232 791 CURVE SMOOTH",
"187 765 OFFCURVE",
"163 739 OFFCURVE",
"163 739 CURVE",
"160 735 OFFCURVE",
"160 729 OFFCURVE",
"163 726 CURVE",
"167 723 OFFCURVE",
"172 723 OFFCURVE",
"176 727 CURVE",
"179 729 OFFCURVE",
"203 754 OFFCURVE",
"245 778 CURVE SMOOTH",
"287 801 OFFCURVE",
"347 824 OFFCURVE",
"422 824 CURVE SMOOTH",
"465 824 OFFCURVE",
"512 817 OFFCURVE",
"564 798 CURVE SMOOTH",
"650 766 OFFCURVE",
"725 743 OFFCURVE",
"790 726 CURVE",
"753 693 OFFCURVE",
"716 657 OFFCURVE",
"681 618 CURVE SMOOTH",
"599 527 OFFCURVE",
"522 424 OFFCURVE",
"450 326 CURVE SMOOTH",
"357 200 OFFCURVE",
"283 98 OFFCURVE",
"216 27 CURVE SMOOTH",
"165 -27 OFFCURVE",
"106 -78 OFFCURVE",
"26 -81 CURVE",
"-6 -81 OFFCURVE",
"-39 -73 OFFCURVE",
"-64 -50 CURVE",
"-78 -34 OFFCURVE",
"-86 -12 OFFCURVE",
"-86 15 CURVE SMOOTH",
"-86 27 OFFCURVE",
"-84 40 OFFCURVE",
"-81 55 CURVE",
"-80 59 OFFCURVE",
"-83 64 OFFCURVE",
"-88 65 CURVE SMOOTH",
"-93 66 OFFCURVE",
"-98 63 OFFCURVE",
"-99 58 CURVE SMOOTH",
"-102 43 OFFCURVE",
"-104 29 OFFCURVE",
"-104 15 CURVE SMOOTH",
"-104 -15 OFFCURVE",
"-95 -42 OFFCURVE",
"-77 -62 CURVE SMOOTH",
"-53 -90 OFFCURVE"
);
},
{
closed = 1;
nodes = (
"948 706 OFFCURVE",
"828 735 CURVE",
"920 809 OFFCURVE",
"1025 869 OFFCURVE",
"1151 871 CURVE",
"1189 870 OFFCURVE",
"1238 869 OFFCURVE",
"1265 840 CURVE",
"1288 809 OFFCURVE",
"1278 771 OFFCURVE",
"1246 744 CURVE SMOOTH",
"1223 725 OFFCURVE",
"1172 700 OFFCURVE",
"1078 701 CURVE SMOOTH",
"1029 701 OFFCURVE"
);
}
);
width = 805;
},
{
layerId = "AF956123-A183-4F86-8774-5A4F8E572774";
width = 600;
}
);
unicode = 0054;
},
{
glyphname = U;
lastChange = "2018-12-14 18:07:14 +0000";
layers = (
{
layerId = master01;
paths = (
{
closed = 1;
nodes = (
"1215 826 OFFCURVE",
"1210 824 CURVE",
"1209 824 OFFCURVE",
"984 763 OFFCURVE",
"776 488 CURVE SMOOTH",
"762 470 OFFCURVE",
"740 438 OFFCURVE",
"716 398 CURVE SMOOTH",
"679 337 OFFCURVE",
"635 258 OFFCURVE",
"601 177 CURVE",
"535 34 OFFCURVE",
"417 -77 OFFCURVE",
"252 -76 CURVE SMOOTH",
"201 -76 OFFCURVE",
"155 -59 OFFCURVE",
"119 -30 CURVE SMOOTH",
"82 1 OFFCURVE",
"55 49 OFFCURVE",
"55 118 CURVE SMOOTH",
"55 170 OFFCURVE",
"70 234 OFFCURVE",
"109 311 CURVE SMOOTH",
"176 444 OFFCURVE",
"267 554 OFFCURVE",
"356 642 CURVE SMOOTH",
"409 694 OFFCURVE",
"461 739 OFFCURVE",
"505 775 CURVE",
"554 771 OFFCURVE",
"601 771 OFFCURVE",
"648 777 CURVE SMOOTH",
"685 782 OFFCURVE",
"732 800 OFFCURVE",
"732 843 CURVE SMOOTH",
"732 884 OFFCURVE",
"700 899 OFFCURVE",
"662 896 CURVE SMOOTH",
"598 891 OFFCURVE",
"545 832 OFFCURVE",
"499 794 CURVE",
"430 801 OFFCURVE",
"374 817 OFFCURVE",
"324 837 CURVE SMOOTH",
"258 861 OFFCURVE",
"202 891 OFFCURVE",
"137 908 CURVE SMOOTH",
"97 919 OFFCURVE",
"51 926 OFFCURVE",
"5 926 CURVE SMOOTH",
"-51 926 OFFCURVE",
"-112 916 OFFCURVE",
"-145 875 CURVE SMOOTH",
"-177 836 OFFCURVE",
"-179 780 OFFCURVE",
"-148 744 CURVE SMOOTH",
"-129 721 OFFCURVE",
"-102 710 OFFCURVE",
"-81 703 CURVE",
"-59 697 OFFCURVE",
"-41 696 OFFCURVE",
"-41 696 CURVE",
"-36 695 OFFCURVE",
"-31 699 OFFCURVE",
"-31 704 CURVE SMOOTH",
"-31 709 OFFCURVE",
"-33 713 OFFCURVE",
"-40 714 CURVE",
"-77 717 OFFCURVE",
"-113 730 OFFCURVE",
"-135 756 CURVE SMOOTH",
"-161 787 OFFCURVE",
"-153 836 OFFCURVE",
"-131 863 CURVE SMOOTH",
"-99 903 OFFCURVE",
"-39 908 OFFCURVE",
"5 908 CURVE SMOOTH",
"49 908 OFFCURVE",
"94 901 OFFCURVE",
"132 891 CURVE SMOOTH",
"195 874 OFFCURVE",
"251 845 OFFCURVE",
"317 820 CURVE SMOOTH",
"364 802 OFFCURVE",
"417 786 OFFCURVE",
"480 778 CURVE",
"438 743 OFFCURVE",
"391 702 OFFCURVE",
"343 655 CURVE SMOOTH",
"254 566 OFFCURVE",
"161 455 OFFCURVE",
"93 319 CURVE SMOOTH",
"53 240 OFFCURVE",
"37 173 OFFCURVE",
"37 118 CURVE SMOOTH",
"37 44 OFFCURVE",
"66 -10 OFFCURVE",
"108 -44 CURVE SMOOTH",
"152 -80 OFFCURVE",
"204 -94 OFFCURVE",
"252 -94 CURVE SMOOTH",
"401 -94 OFFCURVE",
"490 -21 OFFCURVE",
"563 78 CURVE",
"541 5 OFFCURVE",
"511 -130 OFFCURVE",
"597 -163 CURVE SMOOTH",
"730 -214 OFFCURVE",
"812 -58 OFFCURVE",
"812 51 CURVE",
"811 56 OFFCURVE",
"807 59 OFFCURVE",
"802 59 CURVE",
"797 58 OFFCURVE",
"794 54 OFFCURVE",
"794 49 CURVE SMOOTH",
"794 -59 OFFCURVE",
"711 -192 OFFCURVE",
"605 -147 CURVE SMOOTH",
"523 -112 OFFCURVE",
"567 32 OFFCURVE",
"587 91 CURVE SMOOTH",
"613 168 OFFCURVE",
"654 252 OFFCURVE",
"693 323 CURVE SMOOTH",
"732 394 OFFCURVE",
"770 452 OFFCURVE",
"790 478 CURVE SMOOTH",
"892 613 OFFCURVE",
"999 695 OFFCURVE",
"1080 744 CURVE SMOOTH",
"1120 768 OFFCURVE",
"1154 784 OFFCURVE",
"1178 794 CURVE",
"1190 798 OFFCURVE",
"1205 805 OFFCURVE",
"1215 807 CURVE SMOOTH",
"1220 808 OFFCURVE",
"1222 813 OFFCURVE",
"1221 818 CURVE SMOOTH",
"1220 823 OFFCURVE"
);
},
{
closed = 1;
nodes = (
"714 869 OFFCURVE",
"714 843 CURVE SMOOTH",
"714 809 OFFCURVE",
"669 798 OFFCURVE",
"645 795 CURVE SMOOTH",
"605 789 OFFCURVE",
"563 788 OFFCURVE",
"525 792 CURVE",
"567 826 OFFCURVE",
"612 875 OFFCURVE",
"664 878 CURVE SMOOTH",
"695 880 OFFCURVE"
);
}
);
width = 902;
},
{
layerId = "AF956123-A183-4F86-8774-5A4F8E572774";
width = 600;
}
);
unicode = 0055;
},
{
glyphname = Uacute;
lastChange = "2018-12-14 18:07:14 +0000";
layers = (
{
layerId = master01;
paths = (
{
closed = 1;
nodes = (
"1215 826 OFFCURVE",
"1210 824 CURVE",
"1209 824 OFFCURVE",
"984 763 OFFCURVE",
"776 488 CURVE SMOOTH",
"762 470 OFFCURVE",
"740 438 OFFCURVE",
"716 398 CURVE SMOOTH",
"679 337 OFFCURVE",
"635 258 OFFCURVE",
"601 177 CURVE",
"535 34 OFFCURVE",
"417 -77 OFFCURVE",
"252 -76 CURVE SMOOTH",
"201 -76 OFFCURVE",
"155 -59 OFFCURVE",
"119 -30 CURVE SMOOTH",
"82 1 OFFCURVE",
"55 49 OFFCURVE",
"55 118 CURVE SMOOTH",
"55 170 OFFCURVE",
"70 234 OFFCURVE",
"109 311 CURVE SMOOTH",
"176 444 OFFCURVE",
"267 554 OFFCURVE",
"356 642 CURVE SMOOTH",
"409 694 OFFCURVE",
"461 739 OFFCURVE",
"505 775 CURVE",
"554 771 OFFCURVE",
"601 771 OFFCURVE",
"648 777 CURVE SMOOTH",
"685 782 OFFCURVE",
"732 800 OFFCURVE",
"732 843 CURVE SMOOTH",
"732 884 OFFCURVE",
"700 899 OFFCURVE",
"662 896 CURVE SMOOTH",
"598 891 OFFCURVE",
"545 832 OFFCURVE",
"499 794 CURVE",
"430 801 OFFCURVE",
"374 817 OFFCURVE",
"324 837 CURVE SMOOTH",
"258 861 OFFCURVE",
"202 891 OFFCURVE",
"137 908 CURVE SMOOTH",
"97 919 OFFCURVE",
"51 926 OFFCURVE",
"5 926 CURVE SMOOTH",
"-51 926 OFFCURVE",
"-112 916 OFFCURVE",
"-145 875 CURVE SMOOTH",
"-177 836 OFFCURVE",
"-179 780 OFFCURVE",
"-148 744 CURVE SMOOTH",
"-129 721 OFFCURVE",
"-102 710 OFFCURVE",
"-81 703 CURVE",
"-59 697 OFFCURVE",
"-41 696 OFFCURVE",
"-41 696 CURVE",
"-36 695 OFFCURVE",
"-31 699 OFFCURVE",
"-31 704 CURVE SMOOTH",
"-31 709 OFFCURVE",
"-33 713 OFFCURVE",
"-40 714 CURVE",
"-77 717 OFFCURVE",
"-113 730 OFFCURVE",
"-135 756 CURVE SMOOTH",
"-161 787 OFFCURVE",
"-153 836 OFFCURVE",
"-131 863 CURVE SMOOTH",
"-99 903 OFFCURVE",
"-39 908 OFFCURVE",
"5 908 CURVE SMOOTH",
"49 908 OFFCURVE",
"94 901 OFFCURVE",
"132 891 CURVE SMOOTH",
"195 874 OFFCURVE",
"251 845 OFFCURVE",
"317 820 CURVE SMOOTH",
"364 802 OFFCURVE",
"417 786 OFFCURVE",
"480 778 CURVE",
"438 743 OFFCURVE",
"391 702 OFFCURVE",
"343 655 CURVE SMOOTH",
"254 566 OFFCURVE",
"161 455 OFFCURVE",
"93 319 CURVE SMOOTH",
"53 240 OFFCURVE",
"37 173 OFFCURVE",
"37 118 CURVE SMOOTH",
"37 44 OFFCURVE",
"66 -10 OFFCURVE",
"108 -44 CURVE SMOOTH",
"152 -80 OFFCURVE",
"204 -94 OFFCURVE",
"252 -94 CURVE SMOOTH",
"401 -94 OFFCURVE",
"490 -21 OFFCURVE",
"563 78 CURVE",
"541 5 OFFCURVE",
"511 -130 OFFCURVE",
"597 -163 CURVE SMOOTH",
"730 -214 OFFCURVE",
"812 -58 OFFCURVE",
"812 51 CURVE",
"811 56 OFFCURVE",
"807 59 OFFCURVE",
"802 59 CURVE",
"797 58 OFFCURVE",
"794 54 OFFCURVE",
"794 49 CURVE SMOOTH",
"794 -59 OFFCURVE",
"711 -192 OFFCURVE",
"605 -147 CURVE SMOOTH",
"523 -112 OFFCURVE",
"567 32 OFFCURVE",
"587 91 CURVE SMOOTH",
"613 168 OFFCURVE",
"654 252 OFFCURVE",
"693 323 CURVE SMOOTH",
"732 394 OFFCURVE",
"770 452 OFFCURVE",
"790 478 CURVE SMOOTH",
"892 613 OFFCURVE",
"999 695 OFFCURVE",
"1080 744 CURVE SMOOTH",
"1120 768 OFFCURVE",
"1154 784 OFFCURVE",
"1178 794 CURVE",
"1190 798 OFFCURVE",
"1205 805 OFFCURVE",
"1215 807 CURVE SMOOTH",
"1220 808 OFFCURVE",
"1222 813 OFFCURVE",
"1221 818 CURVE SMOOTH",
"1220 823 OFFCURVE"
);
},
{
closed = 1;
nodes = (
"714 869 OFFCURVE",
"714 843 CURVE SMOOTH",
"714 809 OFFCURVE",
"669 798 OFFCURVE",
"645 795 CURVE SMOOTH",
"605 789 OFFCURVE",
"563 788 OFFCURVE",
"525 792 CURVE",
"567 826 OFFCURVE",
"612 875 OFFCURVE",
"664 878 CURVE SMOOTH",
"695 880 OFFCURVE"
);
},
{
closed = 1;
nodes = (
"1133 945 OFFCURVE",
"1278 1037 CURVE",
"1282 1040 OFFCURVE",
"1284 1045 OFFCURVE",
"1281 1050 CURVE",
"1278 1054 OFFCURVE",
"1273 1055 OFFCURVE",
"1268 1052 CURVE SMOOTH",
"1141 970 OFFCURVE",
"967 914 OFFCURVE",
"813 934 CURVE",
"808 935 OFFCURVE",
"804 931 OFFCURVE",
"803 927 CURVE",
"802 922 OFFCURVE",
"805 917 OFFCURVE",
"810 916 CURVE",
"972 899 OFFCURVE"
);
}
);
width = 902;
},
{
layerId = "AF956123-A183-4F86-8774-5A4F8E572774";
width = 600;
}
);
unicode = 00DA;
},
